<svg xmlns="http://www.w3.org/2000/svg" width="20" height="20" viewBox="0 0 20 20" fill="none">
  <mask id="li-mask" width="20" height="20" x="0" y="0" maskUnits="userSpaceOnUse" style="mask-type:luminance">
    <path fill="#fff" d="M16.8843 0H3.07692C1.37759 0 0 1.37759 0 3.07692V16.8843c0 1.6993 1.37759 3.0769 3.07692 3.0769H16.8843c1.6993 0 3.0769-1.3776 3.0769-3.0769V3.07692C19.9612 1.37759 18.5836 0 16.8843 0Z"/>
  </mask>
  <g mask="url(#li-mask)">
    <path fill="url(#li-grad)" d="M15.5181 17.7208s.9404-1.565-1.2591-2.6846c0 0 .4266 1.6725-.5699 3.2235h-1.022s-.0447-.326.3869-.492c.9049-.3478.9419-1.8368.6778-2.0143-.8076-.543-1.1281-1.0076-.9197-2.1878 0 0-1.398.5125-3.1379.2928-.09062-.0115-.17949.0317-.22513.1106-.09262.1603-.28087.4508-.59092.7851 0 0-.08036.9259-.28734 1.5852 0 0 .07964 1.1273-.20692 1.9202H7.14117s.01446-.4911.6019-.554c.71969-.0771-.12959-2.3148-.12959-2.3148s-.03718 1.2209-.76985 2.8665h-.93415s.00077-.4755.47431-.5936c.77261-.1927.42687-1.582.30328-2.355-.12354-.7732-.29928-2.2213-.93036-3.0244-.63108-.8031-.95311-.7963-.9923-2.2722 0 0-.53596-.84545-.34474-1.96309 0 0-.40142-1.33902.20046-3.32012 0 0-1.42292-.29033-1.45163-.64381-.02871-.35348.07714-.75364.45683-.78834.3797-.0347.93763-.08962.93912-.49128.0015-.40167-.48404-.93214-.18298-1.08916.28009-.14603.60661.80133.8218.65205.14031-.09711-.38244-.60961-.04118-.53846.1398.0292 1.33129.42263 1.73467 2.50033.40344 2.07771.23544 3.46541.81805 3.46541.58267 0 3.24159-.09708 4.79449.28333 1.5527.38046 1.6152.97636 2.2966.80385.6815-.17252 1.4647-.58293 1.909.92589.3917 1.3298-.7095 1.161-.7095 1.5774 0 .4164-.1465 1.0612.02 1.4552.1665.3939.0752 1.3453.2212 1.8829.146.5377.3235 1.0286-.0088 1.723 0 0 .1623 1.1693-.2044 1.8121h-.8825s-.0634-.367.3678-.5387l-.0006.0003Z"/>
  </g>
  <defs>
    <linearGradient id="li-grad" x1="2.52578" x2="15.3679" y1="2.15777" y2="19.3162" gradientUnits="userSpaceOnUse">
      <stop stop-color="#37D7FA"/>
      <stop offset=".4" stop-color="#4B72FE"/>
      <stop offset=".68" stop-color="#FF8DF2"/>
      <stop offset="1" stop-color="#FF8705"/>
    </linearGradient>
  </defs>
</svg>
