<svg version="1.1" xmlns="http://www.w3.org/2000/svg" viewBox="0 0 2542.262167653107 964.7126510285998" width="5084.524335306214" height="1929.4253020571996">
  <!-- svg-source:excalidraw -->
  
  <defs>
    <style>
      @font-face {
        font-family: "Virgil";
        src: url("https://excalidraw.com/Virgil.woff2");
      }
      @font-face {
        font-family: "Cascadia";
        src: url("https://excalidraw.com/Cascadia.woff2");
      }
    </style>
  </defs>
  <rect x="0" y="0" width="2542.262167653107" height="964.7126510285998" fill="#ffffff"></rect><g stroke-linecap="round" transform="translate(36 309) rotate(0 215.5 39)"><path d="M0 0 C0 0, 0 0, 0 0 M0 0 C0 0, 0 0, 0 0 M-0.08 5.63 C1.51 4.87, 3.93 2.1, 5.67 0.03 M0.02 6.46 C1.69 3.76, 3.71 2.02, 5.29 0.22 M-0.46 12.65 C2.61 7.82, 9.06 1.04, 10.94 -0.06 M0.67 11.93 C3.29 7.61, 7.5 3.37, 10.7 0.66 M-0.18 19.31 C6.89 12.26, 12.8 4.74, 17.2 -0.79 M0.66 18.19 C4.83 13.2, 10.14 7.95, 15.85 -0.39 M1.91 24.36 C7.61 15.38, 16.01 8.57, 19.42 -1.88 M0.73 23.19 C9.01 14.74, 16.34 6.52, 20.51 0.87 M0.54 28.98 C9.47 16.93, 19.99 7.52, 27.25 -0.8 M0.87 31.11 C7.47 21.89, 14.55 14.28, 25.76 0.04 M-0.52 37.64 C8.43 26.94, 13 18.53, 32.66 0.81 M0.71 36.24 C8.34 27.44, 17.46 17.25, 31.62 0.29 M-0.64 40.7 C7.94 34.42, 14.04 25.6, 38.72 -0.66 M-0.27 42.17 C11.92 30.05, 21.3 17.63, 35.96 -0.45 M1.52 48.75 C7.81 39.25, 18.48 27.66, 42.69 -0.73 M-0.59 48.95 C8.15 37.87, 17.01 27.85, 41.73 -0.6 M-1.5 55.48 C16.95 36.43, 32.54 17.78, 48.66 -0.67 M-0.19 54.81 C10.11 44.08, 18.97 32.21, 47.84 0.03 M-1.33 59.86 C19.87 40.91, 38.03 21, 54.66 -1.41 M0.44 61.07 C17.97 39.25, 36.11 20.41, 52.43 -0.86 M0.69 68.93 C19.6 46.68, 35.33 25.85, 57.31 -1.35 M-1.11 67.83 C21.81 43.02, 42.19 19.55, 57.7 0.93 M1.42 72.23 C24.05 47.14, 50.96 15.79, 62.91 1.68 M0.96 73.18 C20.72 50.46, 41.09 26.39, 63.22 -1 M0.49 79.42 C13.65 62.69, 29.53 46.61, 68.1 0.62 M1.34 79.62 C22.61 52.81, 46.59 24.51, 68.74 -0.69 M5.37 80.12 C29.99 54.79, 48.25 28.96, 74.96 1.24 M6.96 78.69 C19.74 62.35, 33.74 46.34, 73.5 -0.9 M12.2 79.61 C36.92 49.78, 59.12 20.43, 79.65 0.34 M11.95 79.57 C38.13 47.77, 62.7 16.7, 79.05 -0.17 M18.06 77.9 C38.53 53.77, 59.62 28.26, 83.52 -0.2 M16.1 78.87 C44.45 47.36, 69.47 18.24, 84.57 0.13 M20.94 77.09 C39.27 59.82, 57.19 41.74, 89.76 0.76 M21.07 78.85 C36.02 63.12, 49.22 46.55, 89.66 0.74 M26.95 79.53 C52.24 49.47, 74.09 21.25, 94.49 -2.31 M27.68 78.37 C41.47 59.42, 57.77 43.26, 95.66 -0.6 M30.86 77.95 C56.17 49.66, 83.81 21.8, 99.41 0.61 M32.78 77.86 C56.57 51.12, 79.51 23.22, 100.47 -0.14 M38.63 78.28 C64.29 47.67, 87.16 20.38, 106.95 1.07 M37.84 78.93 C53.45 58.64, 70.9 40.32, 105.88 -1.23 M43.29 78.09 C69.25 50.09, 93.18 23.22, 112.8 -1.56 M43.09 77.62 C61.57 57.44, 79.58 37.8, 110.32 0.64 M48.85 76.93 C68.83 53.65, 91.65 29.4, 116.51 -1.34 M47.59 79.58 C69.96 54.12, 90.73 29.29, 115.61 -0.51 M52.76 79.21 C76.39 52.02, 99.22 28.19, 121.29 0.64 M53.89 77.73 C66.92 62.25, 81.21 47.45, 120.94 0.09 M58.55 80.35 C82.04 52.79, 102.9 29.57, 125.96 -1.3 M58.87 79.24 C78.29 58.11, 96.01 36.31, 127.09 1.12 M62.97 76.85 C85.12 56, 104.03 35.15, 131.43 1.37 M65 78.4 C87.41 53.18, 108.49 26.81, 132.96 0.85 M68.55 80.48 C87.82 53.93, 110.7 33.14, 137.28 1.56 M69.2 79.64 C92.72 54.18, 113.38 28.36, 138.5 0.09 M74.82 80.34 C96.63 54.17, 119.58 28.98, 144.95 -1.36 M74.13 78.4 C91.57 60.89, 107.32 40.99, 143.93 -0.88 M78.84 77.06 C104.02 49.11, 130.06 18.31, 146.31 0.62 M79.01 78.13 C95.15 62.51, 110.2 46.42, 148.6 0.65 M86.39 76.84 C100.95 61.34, 115.54 39.57, 154.8 -1.76 M84.91 79.14 C112.75 47.73, 138.1 16.34, 154.3 0.72 M88.59 77.64 C110.87 57.07, 128.42 36.14, 158.07 -0.89 M89.6 79.64 C108.08 58.29, 125.55 37.56, 158.04 -0.33 M96.97 79.29 C113.1 57.83, 134.06 33.75, 165.09 1.8 M96.85 78.59 C117.47 54.48, 139.18 30.46, 165.42 -0.96 M100.17 77.6 C120.03 59.41, 138.95 36.15, 170.77 2.03 M101.22 78.7 C123.03 52.72, 146.54 26.51, 169.38 0.58 M107.01 78.48 C123.98 57.04, 140.4 41.46, 175.11 -1.26 M107.4 77.32 C131.92 49.61, 156.26 20.19, 175.55 -0.91 M111.13 80.11 C127.1 57.74, 144.83 38.04, 179.8 0.24 M111 79.42 C131.63 55.8, 150.54 32.91, 179.07 -0.57 M118.15 79 C141.62 47.14, 168.46 18.86, 187.36 -1.69 M117.89 78.5 C132.69 62.32, 145.86 46.25, 185.87 -0.56 M122.22 80.17 C143.84 54.58, 164.42 29.44, 189.76 -1.62 M122.99 79.53 C141.97 54.82, 162.98 32.53, 191.5 0.86 M129.23 79.24 C143.44 62.46, 155.1 45.98, 195.53 1.57 M127.58 77.9 C150.04 52.78, 171.83 27.84, 196.44 0.29 M133.37 80.58 C152.45 55.41, 170.21 35.38, 202.41 -1.09 M132.13 78.33 C155.31 54.17, 176.96 30.13, 200.93 0.1 M140.28 79.41 C153.57 62.05, 166.66 47.66, 208.47 1.38 M139.61 77.86 C158.52 56.29, 177.14 34.17, 206.26 -0.59 M143.68 79.96 C163.97 55.96, 182.56 38.18, 212.72 -1.89 M144.28 78.73 C160.94 58.27, 179.92 36.65, 211.56 0.97 M147.85 78.3 C169.26 55.9, 186.04 33.42, 218.24 -1.58 M148.38 78.09 C169.14 56.75, 187.38 34.02, 217.2 0.16 M155.47 76.74 C175.98 55.25, 193.72 34.18, 220.82 -1.94 M154.21 79.21 C167.75 61.28, 182.7 45.29, 223.48 -0.11 M159.64 78.23 C177.97 58.29, 196.31 36.36, 228.08 1.19 M160.19 78.63 C175.48 60.44, 189.87 43.05, 228.06 -0.47 M166.23 77.17 C180.5 61.94, 194.08 43.77, 232.07 -1.34 M165.57 77.87 C190.31 49.69, 215.75 20.07, 232.68 -0.13 M170.59 77.6 C189 59.65, 204.65 36.38, 239.77 -1.25 M169.23 78.36 C184.47 60.81, 200.52 44.03, 237.88 0.81 M176.63 79.3 C190.47 60.56, 207.62 42.61, 244.97 1.63 M174.95 78.39 C199.93 51.75, 223.5 24.03, 243.06 0.52 M181.47 79.89 C200.59 57.75, 217.98 35, 248.22 1.7 M180.29 78.02 C201.11 56.55, 218.84 34.94, 248.58 0.65 M186.54 76.99 C199.63 62.36, 213.2 47.16, 255.25 -1.51 M185.83 78.04 C207.16 54.04, 226.85 29.67, 254.43 0.02 M190.23 78.35 C217.84 49.07, 241.77 15.91, 257.6 -1.26 M192.05 78.93 C209.48 58.49, 226.43 38.35, 259.03 -0.44 M195.01 79.94 C218.67 54.37, 239.25 29.02, 263.79 -1.43 M196.59 77.71 C219.8 51.93, 242.12 26.45, 264.52 -0.81 M200.04 80.09 C227.56 48.7, 256.3 15.5, 271.89 1.6 M201.1 79 C219.26 59.43, 235.33 39.26, 269.62 0.86 M208.29 77.62 C235.06 49.07, 261.07 19.36, 276.68 1.03 M206.53 77.85 C228.04 53.76, 248.62 30.67, 274.93 -0.6 M211.21 77.99 C238.34 47.43, 261.39 21.01, 282.26 1.83 M211.95 78.75 C229.45 57.68, 248.31 38.28, 281.7 -0.5 M219.81 79.36 C244.43 47.78, 273.13 17.24, 285.19 -1.17 M217.85 78.52 C234.51 57.61, 252 38.9, 287.2 0.63 M221.28 78.78 C242.79 56.59, 259.49 38.87, 291.1 -1.18 M222.98 79.28 C244.57 56.18, 262.7 32.92, 291.49 -0.01 M230.17 78.26 C253.65 52.48, 274.47 25.12, 297.79 -1.27 M229.65 77.37 C252.26 49.28, 276.17 21.89, 296.76 -0.55 M232.95 78.96 C259.32 52.5, 280.63 23.63, 303.94 -0.26 M234.52 78.29 C251.32 58.73, 267.43 39.62, 302.13 0.47 M239.19 79.26 C265.71 48.68, 291.3 16.01, 308.13 1.34 M239.94 77.65 C263.56 51.33, 287.19 22.74, 306.96 -0.96 M246.13 76.89 C267.07 52.68, 290.83 25.07, 313.53 -0.43 M244.77 78.08 C263 56.58, 282.73 34.92, 311.66 0.64 M249.85 79.1 C271.57 55.28, 291.84 30.46, 319.02 1.05 M249.65 78.19 C275.43 48.93, 299.44 19.95, 319.03 -0.84 M253.89 76.72 C274.09 53.1, 298.84 30.57, 323.8 1.14 M255.86 79.52 C268.72 63.03, 282.37 47.12, 323.04 -0.18 M260.34 78.33 C275.96 61.73, 294.74 42.9, 330.51 -1.94 M260.6 77.44 C277.77 57.06, 296.72 35.73, 328.14 0.15 M266.51 80.39 C288.54 50.39, 313.74 23.08, 333.87 -0.95 M265.82 78.11 C284.71 55.73, 303.62 33.85, 334.11 0.9 M271.36 78.08 C295.3 51.8, 319.92 24.54, 339.8 -1.59 M270.86 78.17 C288.04 57.88, 306.09 38.05, 339.34 -1.03 M275.44 79.69 C295.42 54.8, 318.29 29.44, 346.04 -0.27 M276.57 77.91 C292.07 60.75, 308.7 40.56, 343.64 0.39 M280.78 77.02 C307.8 49.57, 330.26 18.12, 348.62 -1.31 M281.38 78.49 C304.59 51.86, 327.39 25.88, 348.94 -0.08 M285.35 80.21 C306.21 56.19, 323.6 35.28, 353.8 1.44 M285.97 77.59 C305.43 57.87, 323.73 35.36, 355.3 0.36 M291.69 79.9 C305.58 61.94, 322.91 42.62, 361.89 -0.97 M292.06 78.37 C309.19 58.28, 325.51 39.7, 359.12 -0.37 M298.05 77.34 C315.71 56.97, 330.61 37.4, 365.82 -1.78 M297.75 78.41 C313.96 60.2, 329.12 43.43, 365.67 0.5 M303.01 78.52 C319.11 58.63, 337.14 40.27, 371.71 -0.34 M302.33 78.63 C322.04 56.1, 340.26 35.55, 370 -0.43 M308.58 80.3 C331.56 50.94, 353.29 26.85, 377.98 -0.05 M307.58 78.23 C323.14 61.64, 336.28 45.4, 376.22 0.1 M312.86 80.51 C336.61 54.54, 356.22 28.31, 380.04 1.84 M312.56 79.66 C333.17 54.12, 354.32 28.68, 382.28 1.07 M317.14 80.1 C338.22 57.36, 359.35 34.42, 385.33 0.3 M319 77.49 C345.41 46.67, 372.64 16.78, 387.34 0.01 M322.54 77.28 C351.24 49.12, 373.76 23.29, 390.03 0.67 M324.01 79.45 C348.12 51.65, 371.85 23.37, 392.54 0.05 M329.13 77.6 C357.14 50.29, 384.92 17.2, 398.12 0.76 M329.48 79.25 C342.17 63.75, 357.04 46.23, 398.32 0.72 M332.55 80.1 C353.82 58.39, 370.36 37.06, 402.02 1.04 M334.85 79.6 C360.98 48.53, 387.71 16.63, 403.27 1.01 M339.14 79.43 C353.73 60.51, 367.72 46.69, 409.76 -1.35 M340.4 79.13 C361.2 53.66, 381.66 28.86, 407.37 0.26 M346.56 80 C364.1 52.98, 384.22 31.43, 413.53 1.66 M344.14 79.3 C370.15 49.48, 395.34 20.48, 412.88 1.08 M350.93 78.06 C376.02 47.94, 400.49 19.9, 420.87 -0.92 M351.04 77.36 C369.54 56.65, 387.08 35.8, 419.59 0.3 M355.44 79.86 C380.19 52.89, 401.99 27.68, 423.27 -0.93 M355.88 79.31 C380.91 49.5, 406.91 19.76, 423.68 -0.06 M361.47 79.76 C377.53 57.66, 394.13 39.78, 431.27 -1.02 M360.57 78.77 C382.52 55.66, 402.2 32.07, 429 0.08 M365.25 78.36 C384.81 59, 399.92 39.12, 433.82 1.1 M366.95 78 C385.71 57.09, 404.01 37.09, 432.58 1.39 M372.91 76.62 C388.54 61.75, 402.91 42.77, 432.72 7.4 M372.09 78.78 C387.14 60.88, 401.59 45.68, 433.29 8.74 M377.22 77.99 C391.71 58.5, 408.01 42.95, 434.4 12.96 M377.14 79.35 C392.89 60.34, 409.64 41.76, 433.81 13.38 M379.93 79.29 C397.74 61.61, 412.65 42.4, 431.33 20.37 M381.94 78.15 C392.46 65.28, 403.68 52.53, 432.22 20.19 M387.78 77.06 C399.3 64.74, 411.84 51.04, 431.8 26.81 M387.15 78.91 C405.07 57.47, 422.19 38.2, 431.94 25.58 M392.35 77.98 C402.55 65.62, 412.13 57.54, 431.77 30.47 M392.33 77.97 C403.01 68.87, 412.24 57.35, 433.81 32.68 M396.55 77.69 C406.89 66.38, 414.67 56.23, 434.8 36.9 M398.59 77.84 C409.47 66.12, 421.38 52.99, 432.21 38.55 M403.24 78.97 C414.33 65.46, 424.4 54.67, 434.57 45.89 M403.42 78.21 C412.56 67.51, 421.25 57.44, 433.7 43.82 M410.34 77.81 C415.35 71.98, 421.09 63.78, 431.4 49.59 M407.97 78.87 C417.47 67.68, 426.19 57.85, 433.81 49.71 M415.48 77.59 C417.83 75.3, 420.85 67.84, 434.82 55.38 M413.92 78.65 C421.62 71.64, 427.53 63.33, 433.76 57.6 M419.13 79.16 C423.11 71.42, 430.28 67.4, 431.42 64.26 M418.71 78.34 C421.85 75.18, 424.88 71.33, 432.49 62.33 M424.91 78.91 C426.91 75.79, 429.71 70.94, 432.84 69.14 M424.44 79.36 C427.55 75.07, 429.57 71.76, 432.84 69.19 M429.58 78.61 C430.69 77.12, 431.66 76.88, 433.49 74.49 M429.84 78.33 C430.89 77.72, 431.53 76.53, 433.49 74.52" stroke="#4c6ef5" stroke-width="0.5" fill="none"></path><path d="M0.46 0.5 C167.26 -0.35, 333.93 -0.93, 430.13 -0.63 M-0.22 0.04 C138.76 -1.16, 276.21 -1.15, 431.12 0.31 M429.54 1.19 C430.67 25.06, 430.83 54.59, 432.09 78.19 M430.44 0.37 C432.55 24.19, 431.52 45.57, 430.87 77.66 M431.52 78.62 C282.7 78.73, 135.69 78.88, 0.75 78.52 M431.16 78.4 C339.13 78.25, 247.82 78.83, 0.25 78.28 M-1.81 78.71 C-1.01 53.88, 0.26 29.12, -1.29 -0.32 M-0.14 77.58 C-0.07 50.54, 1.03 25.69, -0.47 0.13" stroke="#000000" stroke-width="1" fill="none"></path></g><g transform="translate(41 329.5) rotate(0 210.5 18.5)"><text x="210.5" y="28" font-family="Helvetica, Segoe UI Emoji" font-size="36px" fill="#000000" text-anchor="middle" style="white-space: pre;" direction="ltr">Repository</text></g><g stroke-linecap="round" transform="translate(10 250) rotate(0 235.5 168.5)"><path d="M-0.42 0.22 C99.16 2.05, 197.13 1.65, 471.3 -0.17 M-0.3 -0.25 C161.36 -0.14, 322.43 0.08, 471.34 -0.28 M471.57 0.15 C471.4 111.6, 471.86 226.66, 470.04 336.07 M471.32 0.53 C471.6 103.72, 470.84 207.46, 470.72 336.48 M470.23 337.43 C299.21 334.82, 126.06 335.81, -0.39 337.66 M471.29 336.83 C291.58 336.58, 112.95 335.8, -0.2 337.42 M1.1 337.25 C-0.85 229.65, -0.83 120.99, -0.75 -1.06 M-0.02 337.26 C-1.4 268.65, -0.7 200.41, -0.22 0.16" stroke="#000000" stroke-width="1" fill="none"></path></g><g stroke-linecap="round" transform="translate(867 197) rotate(0 202.5 60)"><path d="M-0.33 0.75 C124.84 -0.77, 246.87 -0.3, 404.66 -0.31 M0.16 0.28 C161.94 0.96, 323.43 1.03, 405.39 -0.27 M404.62 1.3 C403.18 34.07, 405.15 65.21, 406.42 118.1 M405.71 -0.57 C405.48 31.32, 405.28 61.7, 404.79 119.34 M404.01 120.64 C264.12 119.76, 122.83 118.81, 1.11 120.04 M404.56 119.76 C251.98 122.18, 100.09 121.22, 0.13 119.79 M1.24 120.13 C-1.45 73.99, 0.67 27.92, -0.63 -1.5 M-0.86 120.13 C1.33 75.95, 0.57 33.19, 0.8 -0.38" stroke="#000000" stroke-width="1" fill="none"></path></g><g transform="translate(909 242) rotate(0 165.5 18.5)"><text x="0" y="28" font-family="Helvetica, Segoe UI Emoji" font-size="36px" fill="#000000" text-anchor="start" style="white-space: pre;" direction="ltr">Reference&lt;JsRepo&gt;</text></g><g stroke-linecap="round"><g transform="translate(488.9885057471265 408.9729096434603) rotate(0 124.70161797220157 0.8771408262045952)"><path d="M-0.8 0.17 C40.92 0.24, 208.66 1.06, 250.21 1.01 M0.98 -0.79 C42.66 -0.56, 208.81 2.32, 249.88 2.54" stroke="#000000" stroke-width="1" fill="none"></path></g><g transform="translate(488.9885057471265 408.9729096434603) rotate(0 124.70161797220157 0.8771408262045952)"><path d="M221.85 14.45 C229.7 8.85, 235.92 8.66, 250.98 1.35 M220.62 12.21 C230.56 9.57, 239.56 7.27, 249.5 2.54" stroke="#000000" stroke-width="1" fill="none"></path></g><g transform="translate(488.9885057471265 408.9729096434603) rotate(0 124.70161797220157 0.8771408262045952)"><path d="M222.1 -6.07 C229.97 -5.74, 236.12 0.01, 250.98 1.35 M220.86 -8.31 C230.56 -4.45, 239.48 -0.24, 249.5 2.54" stroke="#000000" stroke-width="1" fill="none"></path></g></g><g stroke-linecap="round" transform="translate(871.5 381) rotate(0 202.5 60)"><path d="M0.7 0.2 C94.55 -0.02, 189.12 -0.44, 404.71 -1.11 M0.24 0.15 C92.42 -1.46, 185.22 -2.24, 404.98 0.02 M403.48 0.46 C404.12 27.52, 402.84 52.08, 406.3 119.83 M405.62 0.25 C404.22 42.95, 404.17 86.29, 405.3 120.48 M404.39 119.8 C296.4 120.08, 187.09 118.96, 0.66 119.18 M404.62 120.12 C313.86 122.37, 221.2 122.07, 0.15 120.45 M-1.04 118.84 C0.67 85.72, 0.71 46.26, 1.14 -0.33 M0.35 119.86 C0.57 82.32, 0.48 42.73, 0.44 -0.67" stroke="#000000" stroke-width="1" fill="none"></path></g><g transform="translate(913.5 427) rotate(0 165.5 18.5)"><text x="0" y="28" font-family="Helvetica, Segoe UI Emoji" font-size="36px" fill="#000000" text-anchor="start" style="white-space: pre;" direction="ltr">Reference&lt;JsRepo&gt;</text></g><g stroke-linecap="round" transform="translate(876.5 563) rotate(0 202.5 60)"><path d="M1.04 -0.58 C153.25 1.71, 308.87 1.73, 404.3 0.64 M-0.03 0.2 C114.67 -0.09, 229.85 -0.14, 404.62 0.24 M406.1 1.92 C404.79 29.8, 404.41 56.89, 403.33 118.83 M405.5 0.4 C405.13 47.77, 406.03 94.76, 405.8 120.81 M404.77 119.87 C317.74 121.24, 229.26 121.58, -0.65 120.85 M404.71 119.49 C270.05 121.14, 136.32 121.18, -0.19 120.49 M-0.87 119.01 C0.22 97.27, -0.62 72.46, -1.29 -0.05 M-0.85 119.01 C0.08 77.22, 0.45 36.11, 0.81 -0.29" stroke="#000000" stroke-width="1" fill="none"></path></g><g transform="translate(918.5 609) rotate(0 165.5 18.5)"><text x="0" y="28" font-family="Helvetica, Segoe UI Emoji" font-size="36px" fill="#000000" text-anchor="start" style="white-space: pre;" direction="ltr">Reference&lt;JsRepo&gt;</text></g><g stroke-linecap="round" transform="translate(770 59) rotate(0 293 359.5)"><path d="M-0.73 -0.49 C183.52 1.99, 367.66 0.95, 586.71 -0.79 M-0.2 0.1 C188.76 0.94, 377.1 0.76, 585.99 0.21 M585.21 -0.11 C588.3 202.37, 589.35 405.03, 585.77 719.19 M585.74 0.03 C583.53 248.74, 583.47 498.11, 585.62 719.27 M585.87 718.26 C359.36 719.71, 131.77 719.08, -0.02 718.76 M586.01 719.18 C386.04 718.95, 185.64 718.92, -0.14 719.26 M0.28 718.64 C3.33 444.68, 2.14 170.47, 0.02 0.59 M0.14 719.14 C-0.03 544.78, -0.31 370.15, -0.05 -0.36" stroke="#000000" stroke-width="1" fill="none"></path></g><g transform="translate(180 466) rotate(0 61.5 18.5)"><text x="0" y="28" font-family="Helvetica, Segoe UI Emoji" font-size="36px" fill="#000000" text-anchor="start" style="white-space: pre;" direction="ltr">JsRepo</text></g><g stroke-linecap="round"><g transform="translate(1282.195652173913 270.74923752298764) rotate(0 185.53838020012859 -71.72267943520387)"><path d="M1.13 0.69 C63.03 -23.15, 309.36 -118.34, 370.81 -142.21 M0.27 0.01 C62.06 -24.28, 307.87 -120.6, 369.86 -144.14" stroke="#000000" stroke-width="1" fill="none"></path></g><g transform="translate(1282.195652173913 270.74923752298764) rotate(0 185.53838020012859 -71.72267943520387)"><path d="M348.42 -124.39 C353.42 -131.21, 358.53 -132.57, 371.21 -144.73 M346.5 -125.37 C352.46 -129.62, 356.93 -132.16, 370.18 -144.78" stroke="#000000" stroke-width="1" fill="none"></path></g><g transform="translate(1282.195652173913 270.74923752298764) rotate(0 185.53838020012859 -71.72267943520387)"><path d="M341.02 -143.53 C348.02 -145.62, 354.98 -142.18, 371.21 -144.73 M339.1 -144.51 C346.56 -144.53, 352.66 -142.85, 370.18 -144.78" stroke="#000000" stroke-width="1" fill="none"></path></g></g><g stroke-linecap="round"><g transform="translate(1283 439) rotate(0 191.4960822124732 4.318874933579764)"><path d="M0.45 0.11 C64.35 1.51, 319.88 6.84, 383.76 7.98 M-0.77 -0.87 C63.01 0.76, 319.19 8.08, 383.21 9.51" stroke="#000000" stroke-width="1" fill="none"></path></g><g transform="translate(1283 439) rotate(0 191.4960822124732 4.318874933579764)"><path d="M354.95 20.3 C364.19 17, 371.91 14.13, 383.37 8.7 M353.78 19.56 C362.8 16.81, 371.35 13.39, 383.57 9.3" stroke="#000000" stroke-width="1" fill="none"></path></g><g transform="translate(1283 439) rotate(0 191.4960822124732 4.318874933579764)"><path d="M355.48 -0.21 C364.48 3.28, 372.03 7.21, 383.37 8.7 M354.31 -0.96 C363.37 2.32, 371.75 4.92, 383.57 9.3" stroke="#000000" stroke-width="1" fill="none"></path></g></g><g stroke-linecap="round"><g transform="translate(1281 618) rotate(0 197.784675726979 62.53954549607806)"><path d="M-0.82 -0.49 C64.89 20.4, 328.02 104.54, 394.13 125.91 M0.96 -1.8 C67.04 19.16, 330.63 105.62, 396.39 126.88" stroke="#000000" stroke-width="1" fill="none"></path></g><g transform="translate(1281 618) rotate(0 197.784675726979 62.53954549607806)"><path d="M365.58 126.45 C373.38 129.2, 385.19 126.75, 395.33 124.9 M367.09 128.26 C375.18 127.47, 383.33 128.16, 395.84 126.78" stroke="#000000" stroke-width="1" fill="none"></path></g><g transform="translate(1281 618) rotate(0 197.784675726979 62.53954549607806)"><path d="M371.94 106.94 C377.96 115.37, 387.91 118.64, 395.33 124.9 M373.45 108.75 C379.78 113.74, 386.05 120.19, 395.84 126.78" stroke="#000000" stroke-width="1" fill="none"></path></g></g><g stroke-linecap="round" transform="translate(1685 10) rotate(0 177.5 100.5)"><path d="M-0.85 -0.45 C137.28 2.38, 275.35 1.98, 353.92 0.43 M-0.22 0.21 C76.89 1.11, 153.22 0.83, 354.39 0.23 M354.63 1.35 C357.03 48.65, 353.8 97, 354.05 202.22 M354.24 -0.38 C357.33 68.03, 356.89 136.86, 355.18 201.73 M353.78 201.69 C243.56 203.55, 130.67 203, 0.72 200.97 M354.85 200.46 C269.03 200.31, 182.22 200.29, 0.32 201.1 M1.28 200.52 C0.13 126.96, -1.35 50.87, 0.69 1.25 M0.58 200.36 C-0.45 156.05, -0.75 110.8, -0.64 0.72" stroke="#000000" stroke-width="1" fill="none"></path></g><g stroke-linecap="round" transform="translate(1710 47) rotate(0 156.5 34)"><path d="M0 0 C0 0, 0 0, 0 0 M0 0 C0 0, 0 0, 0 0 M-0.78 5.63 C1.72 5.06, 2.71 2.67, 5.07 -0.24 M0.04 6.27 C0.92 5, 2.91 2.62, 4.87 0.18 M-1.1 12.64 C4.29 8.33, 7.72 3.55, 10.91 -1.25 M0.72 11.78 C3.49 8.83, 5.71 6.26, 11.17 0.26 M-1.87 19.63 C4.01 15.32, 6.84 11.08, 17.09 1.02 M-0.55 18.57 C4.15 14.58, 7.81 9.36, 15.37 0.91 M1.9 24.93 C6.96 18.43, 11.15 14.29, 19.28 0.45 M-0.61 24.82 C5.88 17.99, 12.06 10.26, 21.56 -0.57 M0.22 31.84 C6.3 23.7, 10.68 15.2, 27.9 -1.33 M-0.61 30.89 C8.52 19.57, 18.21 9.66, 26.52 0.45 M1.64 35.33 C11.59 24.14, 19.5 12.79, 33.29 1.56 M-0.81 36.18 C8.93 25.07, 19.81 14.2, 31.07 -0.71 M-0.95 42.3 C13.13 26.37, 27.71 11.21, 36.64 -1.17 M0.6 43.37 C9.2 31.18, 19.32 19.88, 37.87 0.18 M-0.12 47.75 C13.7 32.4, 26.89 19.41, 43.39 -0.12 M0.41 48.81 C13.13 33.03, 25.83 19.1, 41.61 0.26 M-1.22 55.37 C16.87 35.29, 32.9 17.68, 46.1 1.71 M-0.03 55.23 C17.08 35.71, 32.69 18.35, 46.72 -0.32 M0.52 61.42 C15.65 40.82, 33.32 25.5, 53.81 0.73 M0.83 61.9 C13.75 45.6, 26.19 30.41, 53.52 -0.39 M0.7 67.36 C20.59 44.94, 39.36 21.7, 58.91 0.7 M0.32 67.37 C12.66 54.44, 24.39 39.36, 57.97 0.39 M2.54 68.96 C24.48 42.27, 46.08 18.46, 62.56 0.59 M3.11 70.78 C23.43 46.86, 43.22 23.57, 63.77 -0.5 M5.78 70.45 C25.45 49.61, 45.26 28.84, 69.5 -1.59 M6.92 70.26 C21.41 54.79, 34.43 39.89, 68.12 -0.31 M15.38 69.16 C29.61 48.92, 48.01 30.9, 73.48 -0.87 M14.1 69.66 C30.08 52.38, 45.9 33.64, 73.89 -0.99 M17.69 69.36 C38.66 46.77, 59.44 25.01, 80.1 -1.42 M18.52 70.64 C41.11 43.16, 66.13 16.38, 79.27 0.87 M23.16 69.11 C43.01 49.58, 58.28 29.55, 84.22 -0.76 M23.16 69.73 C36.84 53.48, 49.76 38.24, 86.01 0.11 M29.22 72.21 C49.32 47.43, 70.66 22.04, 88.78 -1.81 M29.77 70.4 C40.47 54.71, 55.24 41.56, 89.09 -0.91 M33.68 68.01 C46.74 55.34, 60.98 40.04, 94.24 -1.04 M35.09 69.07 C54.42 47.49, 74.31 24.86, 94.87 -0.3 M41.58 71.33 C63.08 47.08, 83.05 20.12, 101.41 -0.61 M40.51 69.28 C58.86 47.61, 79.14 26.3, 100.85 -0.54 M45.91 71.02 C60.55 51.06, 75.88 33.36, 104.83 -0.47 M45.63 70.4 C62.27 48.89, 82.05 27.72, 105.8 -0.43 M49.78 70.18 C72.39 42.47, 95.04 17.53, 111.66 1.5 M51.2 69.97 C73.04 42.57, 96.12 14.85, 111.44 0.98 M56.58 70.22 C79.71 45.41, 103.05 16.99, 114.4 2.13 M56.1 70.07 C71.63 51.41, 87.29 32.74, 116.04 1.17 M62.67 71.47 C81.68 45.67, 100.62 24.71, 121.02 1.06 M60.87 70.03 C74.18 54.4, 87.42 40.15, 121.32 0.53 M64.29 69.12 C80.09 53.09, 97.36 33.13, 125.16 0.88 M65.42 70.61 C84.77 48.27, 105.02 25.63, 127.43 0.61 M70.9 69.05 C95.81 42.74, 117.86 16.93, 130.81 -0.24 M71.17 69.95 C88.46 50.9, 104.4 32.71, 132.53 0.94 M76.09 71.7 C92.37 55.17, 106.07 38.89, 139.19 -0.67 M76.79 69.72 C98.41 45.52, 122.07 19.54, 138.42 1.14 M82.93 71.97 C104.6 46.32, 125.17 22.9, 142.14 0.52 M82.33 69.12 C102.28 47.68, 122.38 23.59, 142.74 -1.08 M86.85 71.09 C102.39 51.9, 116.96 36.24, 148.99 -0.53 M86.97 70.98 C105.11 50.36, 121.75 30.2, 148.7 0.18 M93.03 68.47 C110.32 49.82, 129.09 26.95, 151.94 -0.6 M93.16 69.82 C107.21 54.34, 122.38 36.53, 153.2 -0.92 M99.25 69.63 C118.41 45.54, 141.87 19.03, 156.91 -1.52 M98.34 69.89 C121 44.58, 143.8 17.51, 158.56 0.07 M105.29 70 C116.6 53.98, 133.08 33.57, 164.96 1.69 M103.09 69.25 C124.66 46.38, 146.18 21.68, 164.73 -0.04 M107.78 70.85 C124.86 52.16, 138.03 36.8, 171.1 0.73 M108.86 69.85 C124.23 50.3, 141.76 31.48, 168.9 0.03 M113.61 71.15 C131.28 50.42, 152.51 28.92, 173.74 -2.15 M114.13 69.53 C134.04 47.49, 151.29 26.22, 175.77 0 M118.76 71.46 C138.39 48.09, 157.09 27.09, 181.52 1.77 M118.09 70.17 C134.76 51.34, 150.05 33.35, 179.19 0.19 M125.7 69.74 C148.82 42.01, 172.68 13.34, 186.67 -0.48 M124.88 69.66 C139.14 54.1, 152.55 38.59, 186.36 -0.48 M130.28 69.34 C147.84 46.72, 167.95 24.41, 191.94 0.34 M129.19 70.06 C151.97 44.56, 174.71 17.12, 191.51 -0.39 M135.09 70.76 C146.04 56.99, 160.59 43.42, 195.91 -0.46 M134.53 69.57 C155.2 45.37, 176.74 22.62, 196.1 -1.21 M140.3 71.6 C161.86 45.43, 185.12 19.1, 199.94 -1.63 M140.89 70.66 C157 52.35, 173.58 34.01, 200.52 0.23 M145.1 70.38 C165 44.23, 189.02 19.03, 205.47 -0.08 M146.9 70.08 C167.63 45.04, 190.76 19.5, 206.22 -0.06 M150.54 70.49 C161.28 54.52, 176.5 40.28, 212.94 0.98 M151.54 70.97 C173.45 44.73, 194.19 20.42, 211.48 0.9 M156.9 67.97 C167.95 55.82, 185.2 40.33, 219.15 -0.11 M156.35 68.91 C173.26 50.77, 189.66 30.89, 217.53 -0.95 M162.58 71.48 C173.95 57.08, 187.27 41.64, 224.14 0.47 M161.07 69.95 C178.5 51.33, 195.26 32.16, 222.26 -0.6 M164.79 70.85 C188.5 45.66, 212.77 17.66, 228.56 -0.16 M167.21 71.46 C190.35 43.9, 214.89 14.46, 228.42 0.07 M173.76 69.22 C186.53 53.96, 202.39 38.51, 232.56 0.33 M173.01 70.43 C187.53 53.46, 200.76 38.25, 233.29 0.38 M178.85 71.23 C196.5 49.27, 217.07 27.13, 236.48 2.1 M176.38 69.77 C193.03 49.56, 210.5 29.65, 238.23 -0.37 M181.28 71.55 C194.44 55.67, 209.25 41.77, 243.04 -0.76 M182.47 69.15 C196.53 54.69, 209.51 39.68, 243.62 -0.57 M189.02 70.81 C204.65 47.81, 224.15 25.51, 247.47 -0.05 M187.35 71.04 C200.71 54.96, 214.45 38.72, 247.87 0.01 M194.13 71.47 C212.94 50.33, 228.88 27.66, 254.24 -0.93 M194.18 70.77 C208.72 52.84, 223.94 35.33, 254.89 -0.98 M199.69 69.7 C222.76 43, 247.47 14.13, 259.93 2.08 M198.9 70.62 C222.78 44.06, 246.01 16.55, 259.86 -0.37 M205.12 71.22 C221.46 49.04, 243.69 25.34, 266.61 0.87 M204.44 69.85 C222.69 48.72, 240.33 28.75, 265.33 0.54 M209.08 71.21 C232.46 45.97, 251.9 22.35, 268.72 1.66 M208.37 70.79 C222.68 55.6, 234.47 43.29, 270.98 0.09 M214.85 70.17 C236.86 41.71, 263.37 14.55, 274.42 0.88 M215.14 70.86 C235.47 46.17, 253.78 24.17, 275.76 0.28 M221.21 69.82 C240.01 49, 258.83 25.46, 280.52 1.02 M219.72 70.69 C235.1 53.63, 249.91 36.83, 281.6 0.89 M223.77 68.92 C241.37 52.36, 256.18 35.06, 285.78 -1.47 M225.8 70.15 C245.67 48.47, 263.43 26.91, 285.59 -0.55 M229.91 71.22 C243.64 57.78, 256.98 43.03, 289.83 -0.32 M229.49 70.42 C249.9 46.4, 269.31 24.08, 291.69 -0.58 M236.12 69.24 C254.84 48.59, 270.23 29.95, 298.56 0.44 M235.49 70.02 C249.51 54.25, 262.47 39.3, 296.85 0.15 M242.85 72.26 C256.41 49.57, 277.8 30.99, 302.96 -1.65 M240.81 70.95 C263.77 44.18, 286.97 16.6, 302.79 1.01 M247.94 70.09 C258.51 56.24, 271.84 42.5, 308.49 0.4 M246.91 70.65 C270.63 43.18, 294.31 16.31, 308.13 -0.6 M253.47 69.02 C275.35 42.96, 299.84 15.54, 314.01 -1.07 M251.42 70.17 C265.78 52.82, 279.96 36.2, 312.08 0.86 M259.12 71.62 C278.15 48.82, 297.22 24.4, 314.47 2.44 M256.32 70.13 C278.55 45.5, 298.94 22.32, 316.01 2.12 M261.06 68.71 C276.76 51.42, 290.44 36.88, 317.72 8.8 M261.63 70.87 C281.7 46.95, 302.36 23.22, 315.06 8.39 M269.32 71.16 C278.48 57.34, 290.72 42.38, 314.59 16.77 M267.6 70.45 C280.18 57.18, 291.39 44.33, 315.03 15.18 M274.69 69.79 C286.69 56.4, 301.34 39.05, 315.75 19.7 M272.37 70.75 C283 57.34, 292.26 46.91, 316.03 20.11 M277.4 71.99 C290.62 53.96, 308.09 39.63, 317.86 25.69 M277.55 70.27 C291.01 54.63, 304.36 39.15, 315.46 27.26 M285.28 69.85 C293.97 55.99, 308.96 41.01, 316.28 34.09 M283.14 70.42 C292.66 60.29, 300.94 49.62, 315.53 33.93 M287.95 72.3 C294.21 62.97, 300.98 55.14, 315.24 39.76 M288.55 69.89 C295.38 62, 301.41 55.17, 316.26 38.99 M293.53 69.71 C303.6 61.33, 310.63 53.71, 314 45.1 M294.06 69.39 C300.51 63.97, 304.93 56.61, 316.41 45.19 M299.46 69.76 C304.33 67.66, 306.25 59.72, 315.53 52.72 M298.59 69.78 C305.76 63.5, 311.15 56.23, 317.03 49.92 M305.78 69.47 C308.8 66.15, 309.25 64.36, 317.2 57.31 M303.96 70.09 C307.29 65.82, 310.81 61.54, 315.25 57.36 M310.23 70.47 C312.58 68.48, 314.07 65.15, 316.08 63.05 M309.81 70.07 C311.51 68.33, 312.62 67.37, 315.46 63.5" stroke="#4c6ef5" stroke-width="0.5" fill="none"></path><path d="M0.92 -1 C76.23 1.26, 152.12 0.97, 313.5 1.15 M0.45 0.59 C93.73 2.66, 186.35 2.71, 313.5 -0.34 M311.53 -1.71 C315.39 17.33, 315.52 38.37, 314.58 66.43 M312.85 -0.53 C312.73 14.41, 313.6 27.61, 313.19 68.03 M312.64 69.37 C236.84 68.11, 159.13 68.79, 1.11 67.41 M313.24 67.64 C224.43 68.27, 135.96 67.89, -0.6 67.62 M1.03 66.05 C-1.39 56.1, -0.22 40.51, -1.29 1.96 M-0.79 67.62 C-0.73 47.68, -0.05 27.58, 0.03 -0.69" stroke="#000000" stroke-width="1" fill="none"></path></g><g transform="translate(1715 62.5) rotate(0 151.5 18.5)"><text x="151.5" y="28" font-family="Helvetica, Segoe UI Emoji" font-size="36px" fill="#000000" text-anchor="middle" style="white-space: pre;" direction="ltr">Remote&lt;'static&gt;</text></g><g transform="translate(1787 148) rotate(0 81.5 18.5)"><text x="0" y="28" font-family="Helvetica, Segoe UI Emoji" font-size="36px" fill="#000000" text-anchor="start" style="white-space: pre;" direction="ltr">JsRemote</text></g><g stroke-linecap="round" transform="translate(1696.5 328.5) rotate(0 177.5 100.5)"><path d="M1.22 -0.99 C107.81 -1.31, 213.25 -1.47, 355.9 1.06 M-0.36 -0.45 C105.56 0.93, 212.4 1.04, 354.47 -0.39 M354.03 -0.2 C352.37 76.87, 352.89 154.35, 354.79 199.72 M355.41 0.76 C356.18 53.45, 356.47 107.05, 355.89 200.94 M355 200.25 C245.61 200.53, 135.66 201.94, 0.56 201.01 M355.34 200.93 C249.51 202.13, 143.7 202.57, -0.59 201.26 M-1.34 201.73 C0.43 130.11, -0.18 60.44, -1.26 1.33 M-0.27 201.6 C0.61 131.97, 0.2 64.62, -0.71 -0.49" stroke="#000000" stroke-width="1" fill="none"></path></g><g stroke-linecap="round" transform="translate(1721.5 365.5) rotate(0 156.5 34)"><path d="M0 0 C0 0, 0 0, 0 0 M0 0 C0 0, 0 0, 0 0 M0.12 6.35 C0.96 4.69, 2.51 3.75, 4.29 -0.2 M-0.27 6.77 C0.54 5.17, 1.92 3.85, 5.27 0.63 M-0.17 10.7 C2.34 8.72, 5.71 5.2, 11.03 -0.55 M0.63 12.07 C4.36 7.23, 7.64 3.03, 10.56 -0.52 M-0.63 18.62 C7.53 11.45, 12.68 2.99, 14 -0.6 M-0.18 17.92 C3.42 14.05, 6.98 9.24, 15.5 0.12 M-1.27 22.7 C3.53 20.14, 7.58 13.78, 20.6 0.12 M0.73 24.86 C5.06 19.21, 9.49 11.99, 21.6 0.21 M0.13 29.85 C6.36 25.05, 12.22 15.95, 27.86 -1.12 M-0.98 29.92 C8.12 21.31, 14.52 14.24, 26.02 0.1 M1.7 35.47 C7.2 27, 13.01 20.5, 30.34 1.41 M-0.5 35.94 C8.07 26.12, 18.86 16.82, 32.31 -0.13 M-0.43 43.34 C9.08 31.16, 16.98 19.42, 35.1 1.64 M-0.8 41.82 C12.04 30.47, 21.43 15.54, 36.05 -0.72 M-1.99 49.66 C12.08 35.21, 24.44 18.97, 43.04 1.55 M0.34 48.97 C9.86 38.37, 18.34 26.87, 43.05 -0.17 M2.14 55.7 C10.29 41.46, 21.03 30.02, 47.81 -0.9 M-0.14 53.99 C14.02 39.62, 27.19 23.14, 47.03 0.85 M0.83 59.69 C19.55 37.54, 36.79 16.26, 53.18 0.05 M-0.88 60.8 C16.96 41.27, 33.44 21.24, 53.79 -0.5 M-0.59 65.44 C19.83 43.25, 39.95 23.22, 59.9 1.88 M-0.57 67.45 C20.32 41.67, 43.51 17.58, 58.95 0.92 M4.44 71.42 C20.32 51.14, 33.01 34.35, 63.08 1.62 M3.61 69.38 C20.45 49, 37.77 29.88, 64.09 0.19 M8.63 68.96 C24.06 50.92, 40.84 31.22, 67.07 -0.22 M7.78 69.82 C27.8 47.88, 46.95 25.21, 68.44 0.5 M11.55 70.85 C27.55 53.43, 41.11 37.68, 74.84 0.16 M12.8 70.56 C35.16 45.82, 57.05 20.93, 75.09 -0.89 M19.76 69.2 C42.66 43, 63.01 17.37, 78.85 1.8 M19.28 70 C35.12 52.31, 51.18 33.96, 78.67 -0.5 M25.56 70.3 C41.19 51.6, 57.15 32.55, 86.4 -1.24 M23.12 70.19 C36.57 56.21, 49.62 42.58, 85.54 -0.62 M29.86 70.52 C41.75 56.21, 53.6 40.52, 90.57 0.11 M29.18 70.98 C49.28 47.37, 68.6 23.7, 89.46 0.77 M35.56 68.18 C51.89 50.43, 68.53 30.99, 95.51 1.69 M35.5 69.97 C49.8 52.34, 66.01 34.17, 95.78 0.04 M38.42 71.43 C52.38 54.5, 66.21 37.45, 99.39 -1.93 M38.95 70.68 C53.51 53.41, 66.94 37.19, 101.17 0.02 M43.79 70.87 C68.68 42.36, 89.04 15.24, 107.72 -1.6 M44.79 71.27 C68.12 43.46, 91.11 16.57, 105.75 0.01 M48.75 71.66 C70.98 43.89, 92.84 22.95, 112.26 -1.75 M49.63 70.9 C67.3 51.38, 85.15 31.28, 110.8 -0.11 M56.27 69.66 C69.4 54.47, 87.33 36.24, 115.73 0.3 M54.41 70.08 C77.84 44.44, 100.14 18.13, 116.31 0.89 M59.96 72.08 C82.8 48.55, 99.72 21.86, 121.96 -1.61 M61.89 69.37 C83.88 42.87, 108.01 17.21, 121.92 -0.08 M66.88 69.31 C85.35 48.35, 103.42 30.43, 126.05 1.71 M66.4 69.57 C84.94 48.72, 102.25 28.61, 127.9 -0.09 M70.98 70.79 C94.09 42.66, 120.12 14.76, 131.08 -0.6 M71.97 69.69 C84.74 54.94, 98.72 39.39, 132.69 0.57 M75.95 68.97 C95.13 47.78, 114.49 28.52, 139.01 0.42 M76.05 71.08 C95.7 47.74, 116.42 25.57, 136.58 0.5 M80.57 71.07 C96.89 55.31, 110.1 37.12, 144.02 1.42 M81.7 69.41 C99.75 51.52, 116.16 30.63, 143.88 -0.8 M85.63 71.04 C99.2 55.44, 111.55 38.69, 147.42 -1.37 M87.26 70.83 C104.45 51.08, 120.03 31.15, 148.65 1.19 M91.27 69.37 C118.04 41.19, 138.99 15.63, 154.99 -0.27 M92.53 69.95 C106.8 53.72, 118.8 38.66, 152.84 0.05 M95.88 69.04 C118.4 46.5, 137.96 26.35, 159.89 -0.26 M98.49 69.96 C117.13 47.14, 136.81 24.9, 158.01 0.47 M101.45 71.34 C121.38 53.21, 137.47 33.32, 164.01 0.84 M103.47 70.65 C122.97 47.97, 143.38 24.14, 163.51 0.31 M108.48 71.74 C126.35 50.25, 144.76 30.02, 168.85 0.33 M108.83 70.51 C127.28 49.96, 144.23 28.74, 170.17 0.7 M113.3 71.81 C135.37 46.96, 155.52 23.52, 176.92 -1.57 M113.16 70.76 C127.35 52.15, 142.42 36.95, 174.45 0.05 M119.01 71.05 C140.13 49.22, 158.53 24.18, 178.56 -1.82 M119.94 69.44 C137.24 48.75, 155.29 28.34, 180.2 0.16 M124.8 70.8 C144.24 49.09, 159.68 28.59, 185.37 1.35 M123.79 69.43 C148.46 42.36, 173.15 14.64, 184.79 0.24 M128.87 70.1 C145.76 54.01, 157.98 36.32, 189.06 0.25 M130.09 70.59 C152.18 45.99, 174.11 19.31, 190.8 1.03 M133.77 69.54 C156.44 43.01, 178.76 17.44, 194.82 1.66 M135.19 69.73 C149.79 52.55, 163.16 36.52, 196.25 -1.22 M141.28 71.18 C159.08 45.68, 179.73 23.13, 200.22 -1.31 M140.12 70.74 C163.45 42.91, 187.36 14.74, 202.24 -0.6 M145.81 70.41 C168.61 43.47, 190.95 20.19, 208.55 -1.39 M146.75 70.61 C169.86 42.78, 192.73 15.41, 207.17 0.46 M149.25 71.8 C170.36 48.63, 189.71 27.59, 211.72 -1.18 M151.49 69.55 C173.42 44.48, 195.25 20.04, 212.4 -0.72 M158.37 68.99 C168.99 55.27, 179.69 42.87, 215.64 -1.38 M157.47 68.96 C172.99 52.7, 189.15 33.61, 218.45 -1.03 M159.64 68.61 C176.81 52.09, 188.81 38.31, 223.06 -0.83 M162.24 69.59 C183.67 43.15, 207.71 16.75, 222.72 0.55 M168.02 70.83 C181.12 53.42, 193.86 39.31, 226.99 -0.69 M167.28 70.29 C183.42 51.76, 199.22 34.49, 227.62 -1.07 M173.07 69.5 C193.31 46.94, 211.21 24.31, 233.54 -0.54 M173 70.35 C184.16 55.93, 197.2 39.72, 232.29 -0.96 M177.14 72.36 C194.32 53.09, 208.59 32.08, 238.66 2.23 M177.68 69.79 C201.49 43.05, 225.22 15.57, 238.12 0.6 M184.03 69.52 C202.27 47.77, 225.81 23.33, 242.28 0.57 M183.01 70.21 C202.9 47.65, 223.34 24.11, 243.73 0.46 M185.93 69.48 C201.41 56.36, 212.98 39.54, 250.49 1.87 M187.78 70.81 C201.59 53.79, 216.47 39.09, 247.95 0.89 M192.77 70.91 C206.55 56.08, 221.65 38.75, 256.21 0.6 M194.08 70.46 C211.46 50.16, 228.85 28.95, 255.31 0.42 M199.09 70.55 C222.1 44.47, 244.46 17.6, 258.15 2.17 M198.97 69.83 C220.89 44.54, 241.89 20.85, 259.76 -0.12 M205.4 71.09 C221.39 48.93, 236.09 30.35, 266.08 -1.18 M204.65 69.32 C225.65 46.04, 245.83 22.49, 264.86 0.46 M209.1 69.07 C230.82 46.22, 256.18 19.57, 271.79 1.48 M208.19 71.26 C229.94 46.39, 251.34 20.84, 269.44 -0.2 M213.8 70.68 C235.04 44.39, 254.61 23.81, 274.43 -0.32 M215.71 69.87 C228.47 55.11, 239.45 41.03, 275.81 0.02 M220.26 71.75 C236.41 52.06, 249.68 34.13, 279.39 1.37 M220.02 69.41 C241.5 44.99, 263.91 19.17, 281.46 -0.21 M223.69 69.5 C241.14 54.95, 255.59 36.09, 287.65 0.83 M224.87 70.14 C245.14 47.14, 266.28 23.29, 287.2 0.42 M228.7 70.5 C251.72 45.66, 272.36 23.02, 290.7 -1.43 M230.6 70.49 C251.14 45.85, 271.75 23.47, 290.89 -0.11 M234.6 70.51 C253.94 47.91, 274.17 25.71, 295.9 1.12 M236.34 69.04 C250.46 53.25, 265.99 36.2, 297.63 -1.08 M242.34 70.4 C254.8 56.9, 265.63 40.14, 301.32 1.01 M241.68 70.63 C254.02 54.68, 269 39.27, 301.41 1.05 M247.86 71.92 C265.86 45.56, 286.58 25.14, 309.18 0.56 M246.9 70.4 C266.87 47.22, 289.18 21.85, 307.33 0.67 M252.94 69.71 C267.89 50.77, 289.51 28.2, 312.65 -0.19 M250.6 69.86 C272.73 44.91, 294.1 21.37, 313.27 -0.87 M258.62 71.08 C278.22 44.49, 300.87 19, 314.67 3.37 M257.93 68.95 C275.75 49.54, 294.32 26.76, 315.48 1.75 M264.04 71.91 C276.66 52.99, 294.11 31.12, 316.68 9.57 M262.28 70.11 C274.17 56.73, 287.69 41.13, 316.12 9.19 M267.84 68.54 C281.79 54.22, 294.19 39.44, 316.75 14.01 M267.43 70.32 C285.4 49.09, 304.03 26.35, 316.23 15.17 M271.01 69.64 C290.11 52.3, 305.14 34.98, 314.38 19.26 M273.27 71.21 C289.09 51.15, 307.52 30.36, 315.34 20.37 M277.64 68.81 C285.83 59.52, 296.8 47.53, 316.71 26.98 M277.31 69.82 C285.9 61.57, 292.92 51.79, 316.45 26.72 M285.04 68.73 C293.5 57.62, 301.69 47.51, 315.2 34.53 M283.67 70.92 C295.17 57.95, 303.95 46.04, 315.59 32.22 M289.92 69.3 C296.35 63.55, 303.32 53.84, 315.8 39.08 M288.04 71.38 C298.57 58.7, 308.17 45.78, 316.74 39.21 M293.11 68.21 C301.8 61.22, 312.19 49.46, 317.11 45.75 M293.21 70.89 C300.21 61.78, 308.45 53.28, 314.82 44.72 M298.43 68.88 C301.91 65.55, 310.05 61.75, 315.08 52.25 M298.74 70.11 C305.43 63.78, 310.46 58.13, 315.26 51.3 M305.84 68.56 C309.95 63.77, 312.99 60.69, 314.21 56.81 M305.12 70.59 C308.06 65.95, 311.72 63.13, 315.66 57.06 M310.47 69.75 C311.15 68.81, 313.99 65.6, 315.24 63.11 M309.74 70.85 C311.52 68.5, 313.06 67.07, 315.42 63.99" stroke="#4c6ef5" stroke-width="0.5" fill="none"></path><path d="M1.4 -1.14 C97.99 0.41, 196.64 2.91, 312.98 -1.16 M-0.51 -0.7 C72.84 0.99, 144.29 1.13, 313.58 -0.56 M311.65 0.26 C311.85 27, 312.39 50.16, 312.34 69.69 M312.61 -0.19 C313.25 17.81, 314.3 35.98, 313.1 68.5 M313.62 67.1 C215.01 67.37, 116.46 66.72, -0.03 67.87 M313.36 67.33 C195.65 67.57, 76.94 68.04, 0.38 67.71 M-0.34 68.25 C-0.51 45.28, -0.9 20.31, 0.8 0.09 M0.76 67.26 C0.51 53.24, -0.59 37.15, -0.02 -0.93" stroke="#000000" stroke-width="1" fill="none"></path></g><g transform="translate(1726.5 381) rotate(0 151.5 18.5)"><text x="151.5" y="28" font-family="Helvetica, Segoe UI Emoji" font-size="36px" fill="#000000" text-anchor="middle" style="white-space: pre;" direction="ltr">Tree&lt;'static&gt;</text></g><g transform="translate(1821.5 468.5) rotate(0 55 18.5)"><text x="0" y="28" font-family="Helvetica, Segoe UI Emoji" font-size="36px" fill="#000000" text-anchor="start" style="white-space: pre;" direction="ltr">JsTree</text></g><g stroke-linecap="round" transform="translate(1701.5 627.5) rotate(0 177.5 100.5)"><path d="M0.21 -1.28 C91.75 1.29, 183.55 2.57, 354.71 -1.12 M-0.58 -0.36 C100.8 2.39, 200.62 2.13, 354.66 0.07 M354.93 -0.52 C353.37 78.12, 352.89 160.87, 355.12 202.35 M355.85 0.87 C352.46 61.92, 352.56 124.75, 355.02 200.56 M354.42 201.45 C280.66 201.37, 208.49 202.93, -0.92 201.55 M355.29 201.2 C276.49 201.13, 199.34 201.11, -0.53 201.62 M0.25 200.07 C-1.01 129.17, -1.41 57.52, -0.22 1.55 M0.56 201.23 C0.92 159.34, 0.32 119.29, 0.57 0.57" stroke="#000000" stroke-width="1" fill="none"></path></g><g stroke-linecap="round" transform="translate(1726.5 664.5) rotate(0 156.5 34)"><path d="M0 0 C0 0, 0 0, 0 0 M0 0 C0 0, 0 0, 0 0 M-0.78 6.55 C1.88 5.39, 3.44 3.61, 5.72 0.18 M-0.42 6.46 C1.52 5.16, 2.84 3.08, 5.25 0.29 M-0.03 10.54 C5.48 6.76, 9.56 2.58, 11.97 -0.83 M-0.41 11.85 C4.88 7.6, 8.6 2.58, 11.34 0.49 M0.75 17.54 C6.49 10.54, 10.45 6.54, 15.55 0.06 M0.21 17.84 C5.28 12.61, 9.83 6.83, 14.82 -0.38 M-0.06 22.34 C5.05 19.59, 9.28 15.16, 20.32 0.1 M0.81 24.61 C5.42 18.96, 9.54 13.26, 20.94 -0.61 M-1.1 28.74 C9.67 18.67, 21.2 7.42, 25.52 -0.07 M0.63 30.46 C11.32 17.94, 19.93 6.47, 26.03 0.89 M-0.19 38.53 C10.8 24.1, 22.92 6.89, 32.42 -1.65 M-0.12 37.76 C7.19 29.55, 12.74 20.44, 32.27 0.83 M1.54 41.48 C13.26 28.59, 25.25 14.16, 37.2 -1.71 M-0.28 42.09 C10.48 28.45, 23.79 15.34, 36.73 0.57 M-0.43 49.75 C14.2 31.69, 31.71 13.96, 42.15 0.9 M0.3 49.45 C16.11 30.34, 32.92 10.72, 42.64 -0.93 M0.45 52.69 C10.75 40.66, 20.52 27.58, 48.24 -0.28 M-0.51 53.95 C10.1 42.55, 21.74 30.33, 48.24 -0.17 M-1.55 59.08 C11.87 46.3, 26.06 30.77, 54.26 -1.25 M-0.37 60.73 C16.2 40.94, 33.49 22.7, 54.08 -0.19 M-2.02 67.88 C14.16 53.31, 23.6 36.95, 57.47 -1.37 M0.21 67.65 C13.16 51.27, 26.67 35.4, 57.82 0.42 M4.17 71.66 C25 45.19, 45.78 22.63, 64.68 -1.29 M2.6 69.46 C16.02 54.94, 29.8 40.13, 63.56 0.37 M9.49 69.02 C20.54 52.12, 36.32 35.96, 68.91 -0.78 M6.89 71.05 C32.82 42.49, 56.89 14.46, 68.62 0.7 M12.24 71.41 C36.75 44.15, 57.84 20.47, 72.51 -0.62 M12.51 69.08 C35.48 46.28, 56.42 21.6, 74.92 -0.35 M18.43 71.28 C34.52 50.04, 50.86 30.75, 79.78 -0.48 M18.34 70.97 C39.39 46.35, 61.21 22.14, 79.7 -0.37 M22.26 71.16 C41.33 52.23, 57.79 32.05, 84.07 -0.79 M23.39 70.74 C38.53 51.52, 54.69 34.03, 84.93 0.14 M30.74 69.86 C41.91 55.5, 57.06 38.72, 88.47 -0.63 M29.59 70.05 C44.04 53.03, 59.76 33.63, 90.03 0.74 M34.86 68.5 C46.39 53.67, 60.13 38.3, 96.85 0.43 M35.11 69.08 C53.48 48.15, 73.23 26.75, 95.25 -0.07 M38.17 68.75 C53.76 55.33, 67.05 36.93, 102.56 0.41 M39.18 69.5 C56.65 49.48, 73.28 31.46, 100.46 0.17 M43.24 71.59 C58.67 56.86, 69.9 41.78, 107.52 1.1 M44.74 70.14 C68.69 43.6, 90.98 17.72, 106.47 -1.29 M51.63 71.76 C62.33 55.1, 75.4 41.92, 110.83 -1.88 M50.55 70.14 C67.83 48.21, 87.52 27.61, 111.8 0.65 M55.72 72.12 C73.73 48.49, 91.92 27.64, 115.29 -0.16 M55.26 70.24 C75.42 46.91, 97.43 22.47, 115.4 0.51 M61.25 70.51 C76.47 53.48, 90.88 31.92, 123.25 1.75 M60.07 70.37 C73.63 55.13, 86.26 41.33, 122.7 -0.5 M67.87 69.88 C84.18 47.7, 100.06 28.29, 128.53 0.83 M65.56 70.61 C90.74 43.03, 114.15 15.55, 127.74 0.68 M72.32 68.42 C91.64 47.88, 110.13 28.6, 130.94 -1.6 M70.99 70.17 C84.05 54.86, 98.1 40.32, 131.78 0.64 M77.06 69.7 C91.74 50.24, 108.43 34.9, 136.83 -1.69 M77.12 70.28 C96.65 46.59, 118.92 23.2, 138.14 0.46 M81.35 68.75 C95.5 53.3, 111.38 37.86, 142.26 0.97 M81.49 69.14 C99.53 49.89, 116.44 30.05, 143.52 0.59 M85.9 70.23 C107.26 45.16, 127.98 23.51, 149.62 1.59 M87.3 70.89 C103.12 51.55, 120.54 31.52, 148.79 -0.11 M92 70.54 C112.3 50.88, 127.3 30.37, 154.73 0.18 M92.64 70.47 C114.85 43.02, 139.48 16.19, 154.33 0.45 M98.15 71.94 C111.4 54.74, 122.36 41.06, 159.5 -0.22 M97.37 70.66 C120.63 45.56, 140.9 19.15, 158.8 0.62 M103.15 68.66 C128.9 40.69, 150.21 14.41, 163.04 0.53 M104.41 70.93 C127.66 43.36, 150.88 14.5, 164.51 -0.09 M106.77 69.09 C122.43 56.27, 132.97 43.1, 170.29 1.82 M108.54 70.42 C131.7 45.23, 154.22 18.57, 170.18 -0.09 M112.85 69.8 C137.56 42.23, 159.21 16.4, 175.11 0.38 M113.71 70.88 C137.69 42.61, 159.08 17.22, 174.28 -0.74 M117.92 69.78 C138.98 46.22, 160.73 20.01, 180.97 0.45 M119.88 69.59 C141.79 43.17, 164.43 17.06, 179.85 0.59 M126.34 68.45 C141.72 49.34, 162.27 29.68, 184.02 -0.13 M124.31 70.3 C145.8 45.22, 168.15 21.14, 185.77 -0.59 M130.92 71.9 C152.52 43.86, 174.47 20.73, 189.73 0.23 M130.39 70.19 C149.43 48.12, 169 24.9, 191.63 1.1 M136.04 70.91 C146.46 56.55, 162.39 38.96, 196.03 0.96 M134.92 70.75 C154.11 48.3, 171.97 27.58, 197 -0.19 M142.3 71.17 C156.91 53.46, 173.17 32.78, 201.92 1.52 M140.97 70.8 C161.86 45.23, 184.87 19.6, 202.26 -0.54 M145.58 71.3 C165.02 44.74, 188.37 23.9, 206.61 -0.57 M145.15 69.37 C168.67 45.2, 189.04 19.9, 207.9 0.56 M149.76 69.1 C172.6 45.23, 194.14 19.25, 210.11 0.5 M150.44 70.64 C172.6 44.65, 195.55 20.55, 211.36 -0.71 M157.76 71.56 C175.86 50.77, 195.05 28.93, 216.41 0.87 M157.51 68.91 C168.97 54.88, 181.48 41.03, 218.32 0.31 M160.21 69.05 C178.85 51.05, 192.21 32.62, 222.04 1.18 M161.51 69.5 C186.47 41.69, 210.61 13.1, 223.5 -0.19 M165.91 70.17 C185.58 45.42, 207.68 24.69, 227.26 0.67 M166.76 70.46 C187.43 48.08, 207.8 23.08, 228 0.33 M173.74 72.15 C184.52 55.72, 199.94 39.9, 232.63 -0.66 M172.8 69.75 C187.97 53.87, 203.57 35.72, 234.1 -0.18 M176.53 71.2 C191.34 54.26, 202.18 40.33, 237.52 0.8 M176.53 70.45 C197.77 47.16, 216.73 24.83, 237.94 1.23 M183.6 69.37 C197.65 53.31, 212.2 37.04, 244 -1.38 M182.84 70.39 C204.14 47.41, 223.67 22.3, 243.54 -0.27 M189.32 68.75 C210.16 43.78, 233.71 17, 248.73 -1.23 M187.41 71.16 C210.23 44.23, 233.91 19.01, 249 -0.06 M192.27 69.49 C216.71 46.51, 237.83 20.26, 253.45 -1.56 M194.06 70.99 C212.24 47.18, 234.23 24.37, 255.08 -0.46 M199.84 72.01 C221.08 45.24, 243.18 20.39, 257.61 0.18 M197.53 69.71 C211.07 57.55, 222.26 43.48, 260.01 0.27 M203.39 71.08 C224.76 43.26, 249.36 18.73, 265.48 -1.96 M204.8 69.7 C226.9 44.05, 248.94 18.21, 264.87 0.83 M210.83 69.97 C230.76 44.22, 257.39 14.81, 270.76 -0.32 M209.93 70.82 C227.69 49.33, 247.38 27.43, 270.33 -0.16 M213.79 70.55 C232.64 49.74, 250.87 29.48, 275.76 0.49 M215.32 69.31 C229.18 53.04, 246.15 35.14, 276 0.78 M220.22 71.45 C233.86 53.51, 244.14 42.55, 279.95 1.73 M220.56 70.79 C239.56 46.2, 260.68 22.52, 281.23 0.9 M225.5 70.12 C242.82 50.87, 261.54 27.92, 287.16 0.64 M225.75 69.15 C240.88 53.11, 255.97 35.23, 286.45 0.17 M229.12 69.05 C253.84 43.34, 278.28 17.8, 290.14 0.6 M230.28 69.52 C249.48 47.37, 267.78 24.76, 291.91 0.26 M237.73 69.8 C259.96 43.46, 282.11 19, 297.74 1.18 M236.17 69.18 C250.26 52.66, 267.19 34.84, 297.1 -0.62 M241.84 71.2 C255.94 54.4, 272.66 36.13, 303.48 0.37 M240.86 70.51 C252.9 55.22, 265.52 41.17, 301.45 -0.67 M246.88 71.43 C265.3 50.76, 281.04 33.87, 308.72 0.61 M246.53 69.94 C263.9 50.07, 279.54 33.17, 307.75 0.36 M249.87 70.16 C274.83 42.33, 296.19 18.46, 311.29 -1.04 M250.95 70.85 C272.61 45.83, 292.97 22.25, 312.85 0.15 M258.52 70.67 C279.28 43.71, 301.08 17.99, 313.93 4.24 M256.72 70.56 C274.49 48.78, 292.69 28.23, 316.47 3.7 M263.88 69.98 C274.55 56.59, 289.74 38.5, 314.89 8.37 M262.13 71.23 C274.48 56.44, 284.46 43.45, 315.8 7.6 M267.44 68.97 C279.48 59.23, 289.79 47.4, 315.73 16.24 M268.49 70.79 C281.08 54.92, 292.76 39.96, 315.62 14.59 M273.75 70.52 C281.89 57.27, 294.3 47.53, 315.93 21.6 M272.9 69.91 C284.94 56.23, 295.88 44.12, 317.04 20.36 M276.93 70.36 C289.99 55.64, 306.72 36.44, 316.79 25.48 M276.9 69.68 C289.23 56.62, 301.29 42.7, 315.59 26.7 M284.53 71.46 C291.34 62.85, 298.81 54.77, 315.91 34.97 M282.62 70.78 C293.35 58.75, 304.54 47.28, 315.91 33.2 M289.46 70.42 C298.47 60.15, 307.47 48.56, 315.1 37.69 M288.83 70.67 C295.86 63.01, 301.78 53.96, 315.79 38.39 M292.46 68.31 C301.89 60.44, 309.82 55.93, 316.25 44.11 M293.6 69.28 C301.22 61.4, 308.02 54.04, 316.34 45 M298.71 68.81 C303.46 66.91, 306.32 61.21, 315.85 50.44 M299.12 70 C304.37 64.11, 311.4 56.5, 316.56 51.58 M304.93 68.62 C308.2 68.55, 310.33 63.24, 317.31 56.84 M304.99 70.44 C307.1 66.45, 310.09 64.83, 316.16 57.47 M309.03 70.38 C310.62 69.7, 311.2 67.74, 315.23 62.87 M309.49 70.17 C312.02 67.77, 314.46 65.45, 316 64.09" stroke="#4c6ef5" stroke-width="0.5" fill="none"></path><path d="M-1.42 -0.58 C124.17 -1.47, 250.12 -0.7, 311.76 -0.25 M-0.4 0.69 C86.59 2.32, 172.61 1.64, 313.07 0.69 M312.42 -1.24 C311.39 16.69, 314.66 37.08, 314.51 68.25 M313.97 -0.94 C311.54 13.19, 311.55 28.05, 312.51 67.07 M313.5 66.98 C247.85 67.36, 184.94 65.97, 0.61 66.86 M313.22 67.43 C204.72 69.4, 96.41 68.44, 0.69 68.39 M-1.03 68.75 C-1.04 41.57, -1.51 14.28, 1.73 -1.91 M0.26 68.2 C-0.2 49.94, 1.02 33.47, 0.64 0.21" stroke="#000000" stroke-width="1" fill="none"></path></g><g transform="translate(1731.5 680) rotate(0 151.5 18.5)"><text x="151.5" y="28" font-family="Helvetica, Segoe UI Emoji" font-size="36px" fill="#000000" text-anchor="middle" style="white-space: pre;" direction="ltr">Commit&lt;'static&gt;</text></g><g transform="translate(1805.5 766.5) rotate(0 80.5 18.5)"><text x="0" y="28" font-family="Helvetica, Segoe UI Emoji" font-size="36px" fill="#000000" text-anchor="start" style="white-space: pre;" direction="ltr">JsCommit</text></g><g transform="translate(973.6072539032982 124.90725391744172) rotate(0 107 18.5)"><text x="0" y="28" font-family="Helvetica, Segoe UI Emoji" font-size="36px" fill="#000000" text-anchor="start" style="white-space: pre;" direction="ltr">RefCount + 1</text></g><g transform="translate(974.5814976385984 338.3552644201777) rotate(0 107 18.5)"><text x="0" y="28" font-family="Helvetica, Segoe UI Emoji" font-size="36px" fill="#000000" text-anchor="start" style="white-space: pre;" direction="ltr">RefCount + 1</text></g><g transform="translate(976.5810206707336 520.3118603444796) rotate(0 107 18.5)"><text x="0" y="28" font-family="Helvetica, Segoe UI Emoji" font-size="36px" fill="#000000" text-anchor="start" style="white-space: pre;" direction="ltr">RefCount + 1</text></g><g stroke-linecap="round"><g transform="translate(2057.3487373205703 122.58805641268373) rotate(0 108.60231437143716 -0.6437863570727131)"><path d="M0.29 -1.17 C36.75 -1.04, 181.98 -0.28, 218.23 -0.12 M-1.02 0.83 C35.35 0.65, 181.07 -2.18, 217.39 -2.12" stroke="#000000" stroke-width="1" fill="none"></path></g><g transform="translate(2057.3487373205703 122.58805641268373) rotate(0 108.60231437143716 -0.6437863570727131)"><path d="M187.36 8.78 C196.9 5.3, 203.85 1.11, 216.01 -1.17 M189.85 8.18 C196 6.48, 202.93 4.15, 216.92 -2.31" stroke="#000000" stroke-width="1" fill="none"></path></g><g transform="translate(2057.3487373205703 122.58805641268373) rotate(0 108.60231437143716 -0.6437863570727131)"><path d="M187.15 -11.74 C196.59 -10.02, 203.6 -9.01, 216.01 -1.17 M189.64 -12.34 C195.94 -9.31, 202.91 -6.91, 216.92 -2.31" stroke="#000000" stroke-width="1" fill="none"></path></g></g><g stroke-linecap="round" transform="translate(2283.294839951847 20.935395021466775) rotate(0 112 95.97710554248897)"><path d="M34.25 27.13 C34.25 27.13, 34.25 27.13, 34.25 27.13 M34.25 27.13 C34.25 27.13, 34.25 27.13, 34.25 27.13 M11.93 57.91 C24.41 47.84, 33.67 35.41, 43.6 20.31 M12.81 56.92 C22.05 48.1, 28.56 40.17, 45.02 20.5 M9.48 66.94 C21.73 52.9, 37.5 38.56, 56.36 15.91 M9.69 66.54 C21.22 54.79, 34.15 41.36, 55.2 15.47 M5.41 78.36 C23.96 56.66, 44.84 33.55, 66.14 9.1 M8.13 77.3 C26.48 54.73, 47.02 31.59, 67.08 9.31 M-1.57 91.63 C29.16 59.14, 56.46 28.15, 69.58 10.49 M0.24 91.1 C23.9 62.63, 49.8 33.09, 71.82 8.24 M2.09 97 C27 62.39, 56.01 33.6, 79.35 6.93 M1.51 95.12 C24.1 68.91, 47.64 42.43, 78.45 6.89 M0.87 103.47 C26.41 67.99, 55.5 37.74, 81.93 5.04 M1.71 101.98 C30.49 69.79, 60.29 36.49, 84.53 6.02 M3.1 106.92 C22.49 82.91, 42.28 61.54, 91.63 5.75 M2.65 106.01 C33.83 70.47, 65.15 35.36, 90.89 5.21 M3.98 111.07 C39.02 68.8, 76.27 24.27, 97.34 3.67 M1.99 112.44 C36 73.69, 69.76 36.7, 97.26 4.51 M2.95 115.32 C23.06 91.71, 46.79 67.61, 102.71 5.01 M3.44 117.39 C36.43 81.1, 67.39 42.63, 103.25 2.45 M2.57 122.65 C38.76 84.44, 72.13 44.12, 111.57 -0.09 M4.41 122.03 C28.95 93.14, 53.49 63.75, 110.55 0.6 M6.52 126.73 C33.98 92.84, 62.96 64.39, 112.82 0.63 M4.89 127.77 C48.82 76.54, 90.6 28.75, 114.67 1.95 M9.87 128.57 C41.09 91.96, 72.57 57.57, 119.01 2.81 M8.48 131.19 C38.83 93.33, 70.41 57.8, 120.32 2.36 M9.8 135.38 C52.26 86.64, 94.78 36.04, 124.67 3.2 M9.92 133.04 C55.29 83.33, 97.78 32.45, 124.54 2.48 M14.36 137.69 C52.57 91.86, 94.69 48.66, 130.32 4.5 M12.73 137.56 C54.11 90.93, 94.72 43.66, 129.57 2.73 M14 139.98 C59.19 92.89, 99.02 41.49, 133.36 3.23 M15.45 141.31 C43.63 107.08, 71 74.3, 132.46 5.42 M17.62 142.54 C40.16 117.32, 67.27 89.32, 137.41 5.6 M18.6 143.18 C54.98 101.58, 91.34 61.06, 139.32 4.79 M20.77 147.38 C68.61 91.68, 118.38 36.65, 143.21 7.42 M19.61 146.55 C69.08 92.75, 116.11 37.34, 142.97 5.08 M21.71 152.08 C52.1 113.78, 83.42 81, 145.99 5.92 M21.76 151.23 C69.22 95.1, 115.91 39.76, 147.17 6.57 M25.57 155.65 C50.53 126.03, 76.67 95.42, 150.34 7.68 M25.13 153.65 C69.02 102.56, 114.16 51.02, 152.24 7.68 M27.83 157.2 C64.76 114.89, 102.81 72.58, 154.27 9.96 M26.85 157.56 C54.82 125.45, 82.58 92.74, 156.01 8.49 M30.34 161.26 C62.29 118.88, 97.41 81.04, 160.7 11.35 M30 159.65 C71.55 111.84, 113.24 63.31, 160.04 11.59 M32.95 161.47 C66.04 127.29, 95.14 90.72, 164.25 15.14 M34 163.38 C67 125.86, 98.72 87.2, 163.29 13.62 M34.16 164.65 C66.19 130.59, 94.71 96.25, 168.02 14.44 M36.12 165.24 C63.13 132.24, 90.59 99.23, 165.68 14.59 M39.28 169.18 C67.2 137.23, 98.95 102.85, 171.73 18.07 M38.41 167.37 C78.43 123.17, 116.77 77.78, 171.05 15.94 M42.01 169.45 C77.39 127.2, 116.08 85.95, 175.66 20.25 M42.09 170.01 C69.61 137.81, 96.85 106.54, 174.08 18.63 M45.48 172.53 C79.24 133.25, 111.37 94.92, 177.67 19.45 M45.48 172.78 C92.81 119.08, 139.88 64.87, 177.31 21.04 M47.23 175.81 C76.37 145.15, 103.82 113.86, 179.72 21.98 M49.41 174.17 C99 116.48, 150.22 57.61, 181.75 23.39 M51.3 176.13 C77.26 145.56, 104.97 116.97, 184.87 22.78 M51.48 177.95 C82.99 140.89, 114.44 106.19, 184.57 23.69 M54.71 181.22 C96.4 132.72, 138.98 84.66, 189.46 25.69 M54.85 180.02 C98.04 133.24, 138.66 85.15, 188.24 27.65 M58.88 182.01 C108.74 122.95, 163.46 63.79, 192.39 28.5 M58.92 181.98 C100.24 133.64, 143.26 84.38, 190.7 30.36 M61.16 184.62 C101.27 142.5, 138.78 96.03, 192.45 31.05 M62.4 183.87 C95.75 144.66, 129.54 106.18, 192.54 33.73 M65.86 183.19 C93.05 152.81, 120.48 120.17, 195.79 33.98 M67.49 184.53 C93.22 154.33, 119.3 124.26, 196.11 35.22 M72.66 184.39 C119.37 132.97, 166.42 77.94, 200.78 36.41 M71.06 185.19 C118.27 132.78, 164.29 78.96, 199.93 38.8 M75.99 186.74 C113.95 143.14, 153.36 98.43, 203.48 40 M74.82 186.85 C104.27 151.1, 134.7 117.1, 201.87 42.43 M79.79 187.45 C125.95 135.16, 170.71 87.46, 203.93 44.51 M78.94 189.33 C112.72 148.98, 146.18 109.92, 204 43.91 M85.01 189.06 C128.22 135.27, 175.77 80.71, 206.29 46.15 M84.32 190.05 C110.01 161.41, 135.22 132.1, 207.56 47.49 M89.68 189.29 C111.14 159.41, 136.32 132.47, 208.98 49.19 M87.48 190.11 C127.42 145.53, 166.46 100.19, 209.91 49.67 M93.09 190.97 C137.86 140.72, 186.3 86.13, 214.74 53.61 M91.59 192.36 C123.19 156.89, 153.05 122.86, 213.4 52.98 M95.9 191.84 C124.8 161.04, 152.32 130.71, 213.52 58.98 M97.34 193.45 C136.41 147.2, 175.72 101.64, 215.09 56.11 M101.55 192.99 C145.47 145.91, 185.1 98.72, 217.16 62.78 M103.19 192.42 C137.53 151.62, 171.34 111.52, 216.22 60.4 M107.83 193.95 C140.88 150.8, 177.93 109.71, 218.95 63.59 M107.74 191.97 C134.08 166.22, 158.56 136.06, 218.57 65.19 M113.53 191.08 C153.9 147.23, 194.78 101.01, 219 69.43 M113.24 193.05 C147.08 154.12, 181.75 114.31, 220.71 70.37 M116.71 194.2 C150.18 157.17, 182.45 121.61, 219.78 72.41 M118.58 193.68 C158.59 146.74, 199.66 100.47, 220.28 75.22 M124.01 190.41 C162.76 149.38, 199.37 105.81, 220.86 79.56 M123.51 192.98 C144.8 168.18, 166.39 143.09, 223.54 79.43 M129.56 192.06 C168.52 150.77, 205.43 109.55, 223.03 83.27 M128.3 193.26 C160.36 156.19, 191.39 118.77, 224.4 81.7 M138.36 190.28 C171.91 150.51, 204.09 113.41, 227.14 88.09 M135.94 189.8 C164.87 159.2, 191.5 128.72, 225.95 86.78 M143.83 188.94 C168.98 158.86, 194.05 126.15, 226.89 92.46 M144.54 186.99 C163.11 165.62, 184.05 142.74, 226.13 93.31 M152.5 184.72 C168.22 164.97, 182.97 148.29, 225.5 100.68 M150.8 184.55 C172.28 161.56, 193.01 137.5, 225.19 100.07 M158.2 183.24 C172.58 166.16, 187.43 151.12, 225.33 108.94 M159 181.88 C184.52 152.82, 209.49 124.95, 224.16 108.1 M167.51 179.95 C180.64 161.42, 194.28 149.05, 222.59 115.6 M167.29 179.16 C181.5 161.94, 197.66 144.36, 222.31 115.26 M175.19 178.26 C190.84 156.15, 209.35 140.76, 220.79 122.1 M173.94 177.59 C189.53 158.63, 204.32 141.55, 221.47 121.27 M193.42 160.29 C200.87 148.99, 212.11 140.49, 212.36 138.39 M195.35 158.41 C201.52 152.2, 207.64 144.55, 214.44 137.33" stroke="#fa5252" stroke-width="0.5" fill="none"></path><path d="M109.07 -0.08 C122.01 -1.64, 137.13 2.12, 149.78 6.1 C162.42 10.08, 174.72 16.34, 184.94 23.79 C195.15 31.25, 204.56 40.73, 211.06 50.84 C217.56 60.95, 222.39 73, 223.94 84.44 C225.48 95.89, 223.76 108.4, 220.32 119.49 C216.88 130.58, 211.11 141.48, 203.32 150.97 C195.53 160.46, 184.77 169.86, 173.56 176.43 C162.34 182.99, 149.16 188.02, 136.03 190.36 C122.9 192.71, 108.22 192.25, 94.77 190.49 C81.32 188.74, 66.92 185.49, 55.33 179.82 C43.73 174.14, 33.7 165.54, 25.21 156.44 C16.72 147.33, 8.61 136.09, 4.38 125.17 C0.15 114.25, -1.18 102.46, -0.16 90.93 C0.86 79.4, 4.76 66.63, 10.49 56 C16.23 45.37, 24.43 35.33, 34.24 27.15 C44.04 18.96, 55.72 11.29, 69.31 6.88 C82.91 2.48, 106.53 1.62, 115.79 0.74 C125.06 -0.14, 124.75 0.19, 124.91 1.59 M65.73 8.58 C76.78 2.86, 93.71 1.89, 107.22 1.28 C120.72 0.68, 133.97 1.29, 146.77 4.92 C159.56 8.55, 173.24 15.75, 183.99 23.05 C194.74 30.34, 204.74 38.96, 211.27 48.7 C217.8 58.45, 221.78 69.97, 223.16 81.5 C224.54 93.03, 222.48 106.37, 219.56 117.87 C216.65 129.37, 212.82 141.19, 205.69 150.5 C198.55 159.81, 187.96 167.32, 176.74 173.72 C165.52 180.12, 151.69 185.91, 138.36 188.89 C125.03 191.87, 110.19 193.13, 96.76 191.63 C83.34 190.12, 69.61 185.36, 57.82 179.86 C46.02 174.36, 34.57 167.49, 25.99 158.62 C17.41 149.76, 10.57 137.63, 6.36 126.66 C2.15 115.68, 0.12 104.53, 0.75 92.76 C1.37 80.99, 4.54 66.82, 10.09 56.02 C15.64 45.21, 24.41 35.67, 34.03 27.93 C43.66 20.2, 62.45 12.79, 67.84 9.6 C73.23 6.41, 66.03 7.71, 66.36 8.81" stroke="#000000" stroke-width="1" fill="none"></path></g><g transform="translate(2288.294839951847 98.41250056395575) rotate(0 107 18.5)"><text x="107" y="28" font-family="Helvetica, Segoe UI Emoji" font-size="36px" fill="#000000" text-anchor="middle" style="white-space: pre;" direction="ltr">GC</text></g><g transform="translate(2066.321073184411 32.42824050349418) rotate(0 102.5 37)"><text x="0" y="28" font-family="Helvetica, Segoe UI Emoji" font-size="36px" fill="#000000" text-anchor="start" style="white-space: pre;" direction="ltr">JsRepo</text><text x="0" y="65" font-family="Helvetica, Segoe UI Emoji" font-size="36px" fill="#000000" text-anchor="start" style="white-space: pre;" direction="ltr">RefCount - 1</text></g><g stroke-linecap="round"><g transform="translate(2076.3174959254247 431.7665112329619) rotate(0 109.07280151811733 -0.14408660958360997)"><path d="M-0.38 -0.25 C36.23 -0.12, 181.94 -0.43, 218.52 -0.39 M1.63 -1.43 C38.21 -1, 181.63 1.25, 217.84 1.13" stroke="#000000" stroke-width="1" fill="none"></path></g><g transform="translate(2076.3174959254247 431.7665112329619) rotate(0 109.07280151811733 -0.14408660958360997)"><path d="M189.16 12.03 C195.5 10.99, 202.03 8.74, 216.33 0.63 M188.73 11.23 C199.12 6.94, 207.93 4.07, 218.18 0.37" stroke="#000000" stroke-width="1" fill="none"></path></g><g transform="translate(2076.3174959254247 431.7665112329619) rotate(0 109.07280151811733 -0.14408660958360997)"><path d="M189.31 -8.49 C195.43 -5.26, 201.93 -3.24, 216.33 0.63 M188.89 -9.29 C199.42 -6.94, 208.18 -3.18, 218.18 0.37" stroke="#000000" stroke-width="1" fill="none"></path></g></g><g stroke-linecap="round" transform="translate(2302.2635985567013 330.1138498417454) rotate(0 112 95.97710554248897)"><path d="M10.63 54.29 C10.63 54.29, 10.63 54.29, 10.63 54.29 M10.63 54.29 C10.63 54.29, 10.63 54.29, 10.63 54.29 M8.75 64.76 C18.42 48.37, 31.45 36.52, 37.5 28.91 M6.98 64.27 C13.6 56.52, 19.89 48.51, 39.15 28.92 M4.14 71.21 C17.55 62.02, 27.25 49.99, 50.04 23.57 M6.33 71.42 C16.58 59.79, 26.09 48.1, 48.36 22.96 M3.26 81.83 C21.66 56.94, 45.79 32.89, 58.21 15.77 M2.45 82.71 C17.44 62.98, 33.13 46.26, 58.55 17.17 M3.05 90.77 C28.52 56.97, 55.7 24.68, 72.4 10.15 M0.71 88.4 C19.02 68.44, 36.01 49.16, 70.82 8.24 M1.59 96.16 C24.01 73.05, 42.3 48.25, 78.56 8.53 M2.23 93.58 C23.45 70.97, 43.74 48.7, 78.15 8.23 M3.28 100.48 C34.38 64.3, 67.62 26.52, 82.89 6.65 M3.27 99.4 C23.98 74.22, 47.01 48.92, 84.21 6.06 M4.08 103.49 C27.38 77.4, 51.44 49.55, 92.13 3.62 M2.61 104.74 C31.12 74.11, 58.12 43.58, 89.94 3.88 M4 111.28 C30.92 79.33, 54.47 51.43, 97.96 2.07 M4.24 110.1 C31.88 79.1, 59.7 46.25, 98 3.92 M6.97 114.66 C35.54 78.38, 69.84 44.56, 104.2 3.21 M5.45 114.87 C30.97 88.01, 53.91 58.63, 104.32 2.45 M4.8 119.61 C44.9 78.8, 81.16 34.01, 109.39 2.27 M4.95 120.47 C26.23 96.6, 48.92 73.07, 108.71 1.97 M8.92 124.52 C45.12 81.16, 82.42 35.44, 115.32 2.08 M6.79 124.51 C43.74 84.28, 76.7 45.25, 113.7 1.64 M11.1 126.98 C40.42 92.39, 67.45 58.58, 120.21 1.46 M9.3 128.31 C47.28 87, 82.83 44.62, 119.82 2.47 M10.49 133.26 C47.83 90.82, 84.39 49.42, 123.23 4.83 M12.27 131.26 C45.86 92.98, 78.2 55.27, 124.39 3.74 M13.59 137.26 C50.84 94.67, 88.94 48.89, 127.17 6.11 M15.16 134.56 C43.97 101.04, 72.71 65.44, 128.28 3.74 M14.1 138.37 C56.25 92.61, 96.36 46.03, 132.83 3.59 M15.11 139.86 C55.48 93.73, 94.7 49.46, 132.57 5.39 M16.78 143.34 C53.44 98.38, 91.47 56.85, 138.97 6.27 M18.97 143.98 C46.57 109.02, 75.45 76.88, 136.66 5.47 M19.35 146.9 C65.59 95.55, 107.95 45.68, 142.2 8.31 M21.43 146.36 C60.79 99.04, 100.69 53.44, 142.33 7.8 M20.36 149.68 C62.35 107.7, 99.07 63.82, 146.81 8.57 M23.05 149.69 C68.57 98.36, 114.84 43.74, 145.78 7.68 M23.04 151.99 C57.72 119.56, 90.87 80.68, 153.3 8.27 M24.27 154.66 C69.22 102.37, 115.41 49.45, 152.35 8.3 M24.54 159.31 C64.2 110.59, 106.69 62.22, 155.06 9.17 M26.94 158.12 C56.9 123.22, 88.21 87.55, 155.35 9.75 M28.43 158.8 C73.32 111.33, 113.24 61.36, 158.01 10.34 M30.86 160.5 C56.29 128.53, 84.78 95.35, 159.95 10.58 M33.33 162.04 C83.26 105.43, 130.33 50.1, 163.33 12.6 M32.73 163.3 C64.67 128.25, 96.97 90.63, 162.04 13.14 M35.37 163.33 C73.2 123.54, 110.82 83.68, 167.27 16.38 M36.71 164.23 C74.63 121.69, 113.72 75.25, 166.25 14.13 M38.71 167.55 C78.38 125.15, 113.42 80.76, 171.02 17.88 M39.18 167.89 C76.64 123.83, 114.56 80.39, 170.01 17.65 M43.45 168.73 C93.08 109.94, 143.19 52.55, 174.55 17.29 M42.88 169.09 C88.12 116.66, 133.79 64.95, 173.68 18.13 M47.58 172.98 C82.55 133.34, 118.05 92.28, 178.64 21.99 M45 172.82 C85.3 125.03, 127.08 77.06, 178.3 20.91 M50.95 174.31 C93.64 124.05, 137.17 74.35, 182.6 21.22 M48.82 174.39 C84.1 136.32, 117.41 98.2, 180.53 22.1 M50.98 175.47 C88.4 132.57, 127.03 90.44, 186.19 26.11 M52.42 177.48 C95.85 126.32, 139.51 77.01, 185.12 24.27 M55.53 179.81 C103.18 123.76, 151.33 71.58, 187.68 26.55 M56.38 179.52 C93.77 134.63, 131.02 92.12, 188.84 26.41 M58.15 182.22 C103.75 128.44, 148.96 80.31, 191.38 28.74 M60.68 181.28 C110.79 124.05, 160.93 64.95, 191.82 29.91 M64.65 180.69 C104.95 133.73, 149.18 85.38, 192.19 32.06 M64.52 183.32 C97.71 142.48, 131.97 104.5, 195.06 32.31 M68.55 184.25 C116.99 128.67, 163.86 72.54, 196.87 36.94 M66.99 184.3 C94.74 153.13, 123.52 120.67, 197.16 35.67 M73.58 184.64 C106.25 140.15, 144.25 98.05, 200.86 37.21 M72.27 184.84 C116.01 135.02, 159.68 85.2, 199.03 38.93 M74.47 185.3 C103.66 154.48, 132.66 121.91, 200.69 42.81 M75.32 185.73 C126.49 127.13, 176.4 70.35, 202.29 40.73 M80.62 187.35 C115.07 147.87, 146.63 108.51, 205.04 45.79 M80.01 186.76 C115.55 146.09, 149.65 106.25, 204.71 44.36 M85.41 191.08 C125.65 139.35, 167.42 91.04, 207.45 46.44 M84.56 188.86 C130.07 136.87, 177.53 83.22, 206.94 46.72 M89.24 189.98 C125.57 149.71, 160.2 107.97, 208.72 52.15 M88.9 191.07 C133.23 138.03, 180.81 86.16, 209.27 50.01 M92.92 192.18 C137.73 139.48, 179.71 91.56, 212.88 51.82 M92.09 192.71 C123.04 157.17, 152.74 123.56, 211.65 52.88 M99.4 192.01 C144.48 142.09, 189.74 87.21, 214.39 58.95 M98.34 191.84 C130.3 153.4, 164.04 115.99, 215.13 58.4 M103.07 191.47 C146.76 145.03, 188.18 96.92, 217.94 61.02 M104.5 191.42 C146.8 141.46, 188.65 91.05, 215.89 62.26 M106.96 192.52 C144.04 149.01, 184.16 105.44, 215.75 64.88 M109.34 190.52 C131.8 166.09, 154.56 139.16, 218.62 66.9 M113.85 191.71 C149.81 149.99, 182.02 109.52, 218.72 71.39 M115.02 191.73 C156.91 143.94, 197.68 95.35, 219.99 71 M119.63 189.61 C156.46 150.31, 192.16 107.01, 221.68 76.24 M118.48 191.39 C152.99 154.86, 185.53 117.56, 219.97 75.18 M124.36 188.9 C153.55 155.44, 185.28 124.48, 223.87 79.12 M124.77 190.47 C160.68 150.12, 196.77 108.62, 222.56 79.87 M129.62 191.73 C150.85 165.76, 173.08 141.16, 222.88 84.34 M130.54 190.81 C164.27 151.32, 199.23 111.1, 223.94 82.8 M133.61 190.38 C157.75 165.77, 182.32 138.67, 227.18 85.95 M135.41 192.55 C155.71 168.92, 176.22 145.39, 225.08 86.93 M143.67 187.85 C169.95 158.56, 197.81 126.18, 227.32 94.86 M142.57 189.5 C162.54 165.82, 182.55 141.11, 225.28 94.39 M148.33 185.77 C166.02 165.81, 184.71 145.19, 223.09 100.96 M151.1 185.95 C178.9 155.28, 205.8 122.79, 225.38 101.4 M158.34 183.77 C173.05 166.9, 186.08 150.15, 225.46 109.75 M157.15 182.75 C170.12 167.31, 184.21 152.36, 223.96 107.71 M165.29 179.32 C187.89 155.95, 207.98 129.46, 223.06 113.74 M164.74 180.06 C180.72 162.02, 198.42 143.29, 224.02 114.79 M171.46 179.88 C186.98 165.21, 199.33 148.99, 221.53 123.54 M173.84 178.24 C185.63 164.84, 196.09 150.55, 222.44 121.8 M190.21 162.97 C195.86 156.31, 204.7 148.6, 210.65 139.05 M190.9 162.75 C196.08 157.88, 202.63 150.71, 211.41 139.53" stroke="#fa5252" stroke-width="0.5" fill="none"></path><path d="M111.64 -0.75 C124.24 -2.37, 138.45 2.02, 151.1 6.35 C163.74 10.68, 177.55 17.56, 187.51 25.23 C197.47 32.89, 204.82 42.32, 210.88 52.34 C216.95 62.36, 222.35 73.93, 223.9 85.36 C225.46 96.78, 223.8 109.74, 220.22 120.89 C216.64 132.04, 210.49 142.84, 202.43 152.24 C194.38 161.64, 183.27 170.96, 171.89 177.29 C160.51 183.61, 147.42 187.9, 134.14 190.2 C120.87 192.5, 105.62 193.22, 92.22 191.1 C78.82 188.99, 65.11 183.44, 53.74 177.49 C42.36 171.54, 32.1 164.59, 23.97 155.41 C15.83 146.24, 8.81 133.6, 4.93 122.44 C1.05 111.28, -0.29 99.82, 0.68 88.44 C1.65 77.06, 4.88 64.6, 10.74 54.16 C16.6 43.72, 25.98 33.56, 35.86 25.8 C45.74 18.03, 55.88 11.76, 70.02 7.57 C84.15 3.38, 110.62 1.3, 120.65 0.66 C130.68 0.02, 130.49 2.04, 130.21 3.73 M165.25 11.46 C177.77 15.13, 188.1 22.57, 196.96 31.37 C205.83 40.16, 214.13 53.18, 218.45 64.22 C222.77 75.27, 223.21 86.27, 222.89 97.63 C222.57 108.98, 221.41 121.67, 216.55 132.35 C211.68 143.03, 203.25 153.12, 193.72 161.72 C184.19 170.32, 171.42 179.16, 159.37 183.94 C147.32 188.72, 134.65 189.94, 121.44 190.39 C108.23 190.85, 93.06 189.82, 80.11 186.68 C67.17 183.53, 54.61 178.4, 43.78 171.54 C32.95 164.67, 22.22 155.21, 15.13 145.49 C8.05 135.78, 3.3 124.68, 1.28 113.26 C-0.75 101.85, -0.01 88.47, 2.99 76.99 C5.98 65.51, 12.07 54.08, 19.26 44.37 C26.44 34.66, 35.2 25.44, 46.08 18.73 C56.96 12.02, 71.36 6.97, 84.52 4.12 C97.68 1.26, 111.64 0.34, 125.03 1.6 C138.43 2.86, 158.67 9.64, 164.88 11.69 C171.09 13.73, 163.2 12.42, 162.29 13.88" stroke="#000000" stroke-width="1" fill="none"></path></g><g transform="translate(2307.2635985567013 407.59095538423344) rotate(0 107 18.5)"><text x="107" y="28" font-family="Helvetica, Segoe UI Emoji" font-size="36px" fill="#000000" text-anchor="middle" style="white-space: pre;" direction="ltr">GC</text></g><g stroke-linecap="round"><g transform="translate(2082.3160650218306 727.6959199889689) rotate(0 109.09439614591065 -0.2502353080137709)"><path d="M1.03 -1.01 C37.33 -1.16, 182.06 0.09, 218.07 0.23 M0.11 1.08 C36.24 1.08, 180.59 -1.61, 217.16 -1.58" stroke="#000000" stroke-width="1" fill="none"></path></g><g transform="translate(2082.3160650218306 727.6959199889689) rotate(0 109.09439614591065 -0.2502353080137709)"><path d="M187.39 9.06 C199.05 3.81, 207.48 1.16, 217.84 -3.09 M189.14 8.6 C197.85 5.46, 204.84 3.32, 217.94 -1.25" stroke="#000000" stroke-width="1" fill="none"></path></g><g transform="translate(2082.3160650218306 727.6959199889689) rotate(0 109.09439614591065 -0.2502353080137709)"><path d="M187.18 -11.46 C199.1 -10.07, 207.6 -6.09, 217.84 -3.09 M188.94 -11.92 C197.76 -9.06, 204.81 -5.21, 217.94 -1.25" stroke="#000000" stroke-width="1" fill="none"></path></g></g><g stroke-linecap="round" transform="translate(2308.262167653107 626.0432585977524) rotate(0 112 95.97710554248897)"><path d="M28.39 33.95 C28.39 33.95, 28.39 33.95, 28.39 33.95 M28.39 33.95 C28.39 33.95, 28.39 33.95, 28.39 33.95 M6.26 64.88 C14.38 55.51, 21.77 45.45, 45.67 22.86 M7.1 63.17 C17.59 54.38, 26.09 44.16, 45.14 21.99 M7.85 69.76 C20.37 55.66, 31.17 41.73, 57.8 12.09 M6.54 71.68 C24.73 48.79, 45.97 26.21, 58.61 10.35 M4.95 80.67 C21.29 57.79, 38.68 40.44, 65.97 8.46 M5.97 79.73 C28.8 51.21, 52.42 23.53, 66.23 9.98 M1.73 85.65 C20.92 66.49, 37.07 48.44, 71.1 6.83 M3.47 87.5 C22.91 66.45, 40.53 44.3, 72.46 8.6 M2.41 92.63 C24.47 70.18, 44.95 48.77, 80.1 7.21 M2.22 95.13 C31.91 61.15, 62.59 26.07, 78.1 6.7 M2.79 100.14 C23.07 74.51, 47.82 48.46, 84.63 5.53 M2.82 99.46 C24.78 74.36, 47.51 48.12, 85.88 4.62 M1.73 104.41 C31.6 73.92, 59.12 43.33, 90.43 1.57 M3.63 105.42 C28.56 76.07, 51.71 49.04, 92.59 2.51 M5.24 108.74 C32.58 78.58, 61.12 44.07, 100.93 2.04 M5.64 109.55 C34.52 74.56, 66.07 41.09, 99.52 1.75 M7.27 112.64 C32.26 88.17, 52.96 58.39, 103.98 4.02 M6.06 113.34 C42.05 74.53, 75.93 34.01, 101.98 4.48 M6.52 117.43 C26.52 94.52, 49.37 73.37, 105.81 4.96 M7.99 118.99 C42.79 77.79, 78.13 35.73, 108.1 3.81 M6.54 123.64 C44.3 84.17, 75.26 46.34, 110.8 3.94 M9.28 123.04 C37.14 89.5, 64.39 56.79, 113.36 3.3 M9.84 127.11 C48.18 87.42, 82.02 45.53, 119.37 3.73 M9.5 128.63 C45.12 88.19, 80.12 48.26, 117.37 5.17 M11.45 131.9 C45.21 93.8, 76.03 57.29, 123.51 5.92 M10.26 134.58 C46.34 93.05, 83.42 49.41, 122.16 5.61 M14.88 135.11 C43.74 102.77, 71.47 65.78, 127.62 4.05 M12.03 136.45 C52.52 90.77, 92.44 44.63, 127.81 4.15 M13.73 140.83 C55.51 93.41, 94.44 50.31, 132.52 5.48 M14.55 140.62 C50.48 97.18, 87.33 55.9, 133.37 5.67 M19.09 145.7 C46.55 108.24, 76.27 76.19, 137.68 3.01 M17.01 144.09 C61.98 92.79, 105.05 42.66, 139.78 4.23 M21.64 147.06 C61.03 98.28, 100.54 53.43, 144.04 7.32 M19.03 146.79 C59.39 104.16, 96.83 60.27, 143.59 5.67 M24.48 148.09 C69.42 97.55, 115.69 41.53, 146.61 5.96 M22.2 148.88 C55.25 115.47, 86.96 78.62, 148.35 6.84 M24.56 154.65 C69.4 102.18, 116.07 48.91, 152.14 9.86 M24.46 153.85 C63.06 107.02, 103.5 60.75, 151.06 8.22 M28.84 156.68 C57.3 122.67, 89.33 86.52, 155.12 10.12 M26.93 156.05 C69.94 108.12, 110.48 59.45, 155.03 8.98 M31.7 161.09 C55.82 129.23, 84.95 94.92, 160.65 9.93 M30.24 159.73 C79.21 103.29, 127.48 47.18, 159.53 11.05 M31.77 164.82 C64.13 129.83, 97.24 90.83, 161.15 13.16 M32.11 162.44 C69.79 122.16, 106.77 81.33, 163.34 13.88 M37.24 163.49 C75.48 122.2, 114.85 74.26, 166.62 12.71 M35.67 165.47 C74.42 122.87, 110.96 79.01, 167.67 14.76 M38.1 169.34 C76.53 123.9, 115.01 79.96, 170.46 17.55 M39.5 167.39 C90.12 107.92, 140.94 49.59, 171.31 15.44 M43.02 168.52 C87.79 115.37, 134.31 63.49, 174.71 16.03 M43.72 170.07 C79.28 129.99, 115.02 88.77, 175.85 17.97 M44.89 172.59 C85.23 124.84, 127.35 76.58, 179.62 20.48 M47.25 171.67 C90.23 121.53, 133.61 71.81, 179.01 19.28 M48.19 174.63 C84.47 136.46, 117.6 98.75, 179.76 21.75 M48.78 173.56 C85.99 131.03, 123.49 89.05, 181.99 23.42 M53.04 177.43 C95.67 125.31, 139.53 76.67, 184.61 24.96 M53.22 176.29 C100.33 121.99, 147.53 69.31, 183.91 25.32 M58.79 178.15 C94.45 133.37, 130.12 93.08, 187.75 28.17 M55.94 178.9 C100.37 126.91, 145.09 77.62, 187.62 27.31 M61.73 182.21 C110.95 124.89, 160.64 64.58, 192.13 31.06 M60.47 179.73 C102.09 132.03, 145.83 82.98, 189.52 30.33 M65.56 184.24 C97.05 142.01, 132.08 104.58, 195.42 33.18 M63.93 182.83 C112.55 126.71, 161.04 69.83, 193.69 33.7 M64.86 186.61 C93.41 155.33, 123.81 121.67, 197.92 35.77 M67.29 185.09 C102.26 140.31, 140.6 97.02, 197.2 35.15 M71.74 185.81 C115.61 135.82, 159.44 86.23, 198.64 39.66 M70.89 184.84 C100.14 152.76, 128.7 120.3, 198.95 38.88 M74.82 184.98 C127.4 126.03, 177.42 69.76, 203.46 39.12 M76.13 186.43 C110.87 146.33, 144.23 106.43, 202.64 41.68 M79.86 185.92 C116.57 145.6, 149.23 106.79, 205.26 43.75 M81.02 188.47 C122.99 136.75, 166.03 87.11, 205.68 42.94 M85.95 187.49 C130.06 136.67, 178.75 82.56, 208.03 44.36 M85.1 188.48 C121.98 146.66, 158.33 103.89, 208.15 46.74 M90.96 190.04 C133.36 136.28, 182.05 85.99, 209.67 48.31 M89.76 189.38 C134.18 137.55, 177.73 87.64, 210.43 49.39 M93 192.22 C123.84 155.39, 152.56 123.46, 210.74 52.17 M94.51 190.61 C141.11 139.06, 187.34 84.46, 212.69 54.27 M98.56 192.38 C130.04 153.43, 164.78 116.28, 216.01 59.09 M97.86 191.65 C141.92 143.17, 185.02 93.36, 215.32 57.37 M104.56 192.69 C147.01 141.7, 187.66 90.39, 215.81 62.66 M102.29 192.35 C140.42 147.72, 180.57 102.82, 215.08 61.37 M108.61 191.28 C130.7 167.62, 154.26 139, 220.24 67.05 M107.25 193.26 C144.2 149.91, 179.47 107.64, 218.07 65.93 M114.33 194.1 C156.49 145.25, 197.23 95.02, 221.26 71.13 M113.28 191.64 C152.68 148.82, 191 103.63, 220.73 70.05 M116.91 192.3 C153.03 155.38, 185.9 117.84, 220.82 73.84 M118.47 191.08 C149.64 155.14, 182.05 120.62, 222.68 73.56 M123.84 190.85 C160.55 150.4, 198.24 107.09, 224.3 79.08 M123.92 192.3 C146.81 165.71, 170.09 139.41, 223.04 78.23 M129.75 191.93 C163.13 152.09, 198.29 111.65, 224.03 82.31 M129.4 190.68 C153.99 163.96, 178.79 136.01, 224.73 82.61 M136.46 192.79 C156.11 169.25, 176.42 146.01, 223.31 87.95 M136.26 190.35 C164.76 158.17, 194.25 124.08, 225.33 89.51 M141.21 191.61 C161.52 167.92, 180.99 142.13, 224.61 95.73 M140.43 190.24 C159.94 167.63, 180.29 144.65, 224.07 94.63 M148.68 189.43 C177.73 158.09, 204.98 123.65, 227.05 101.09 M147.27 190.18 C165.21 170.07, 181.85 150.04, 226.1 101.09 M154.48 184.18 C168.09 168.01, 183.84 152.43, 226.44 105.04 M155.87 185.11 C182.84 155.47, 208.47 124.3, 225.43 105.53 M162.72 180.7 C179.65 162.28, 199.64 142.52, 226.83 112.8 M163.41 183.31 C181.63 164.61, 197.87 144.92, 225.19 112.87 M174.62 178.2 C185.98 165.53, 194.69 150.99, 221.31 123.44 M172.66 178.05 C186.85 161.09, 203.02 143.72, 219.29 124.21 M183.4 170.26 C190.99 163.67, 201.41 152.41, 213.92 135.91 M183.56 171.73 C191.91 163.03, 197.86 155.55, 215.16 136.97" stroke="#fa5252" stroke-width="0.5" fill="none"></path><path d="M139.25 3.31 C152.1 4.53, 165.12 11.01, 176.21 17.72 C187.3 24.43, 198.23 33.98, 205.79 43.59 C213.34 53.19, 218.64 64.16, 221.55 75.34 C224.45 86.52, 225.45 99.07, 223.23 110.65 C221.01 122.23, 214.96 134.72, 208.22 144.82 C201.47 154.92, 193.31 164.08, 182.76 171.25 C172.2 178.41, 157.82 184.49, 144.87 187.82 C131.93 191.16, 118.41 192.04, 105.09 191.28 C91.77 190.51, 77.22 188.09, 64.95 183.24 C52.67 178.39, 40.68 170.55, 31.43 162.17 C22.18 153.8, 14.62 143.6, 9.45 133 C4.28 122.4, 0.82 110.25, 0.41 98.56 C-0.01 86.87, 2.35 73.57, 6.97 62.86 C11.58 52.15, 19.53 42.97, 28.1 34.29 C36.66 25.61, 46.46 16.32, 58.36 10.78 C70.25 5.24, 84.91 2.28, 99.47 1.06 C114.04 -0.17, 137.18 2.18, 145.74 3.43 C154.3 4.67, 151.59 6.86, 150.83 8.51 M145.45 3.87 C158.4 5.9, 172.92 14.9, 183.27 22.37 C193.63 29.84, 201.19 38.73, 207.57 48.68 C213.95 58.63, 219.22 70.88, 221.56 82.07 C223.89 93.26, 224.15 104.73, 221.57 115.81 C218.99 126.9, 213.28 138.74, 206.08 148.58 C198.89 158.42, 189.4 167.9, 178.39 174.86 C167.38 181.82, 153.26 187.62, 140.03 190.32 C126.79 193.02, 112.36 192.5, 98.97 191.06 C85.57 189.63, 71.49 187.02, 59.67 181.69 C47.85 176.36, 36.75 167.86, 28.04 159.09 C19.34 150.32, 11.98 140.14, 7.44 129.07 C2.91 118, 0.39 104.27, 0.82 92.68 C1.25 81.08, 4.76 69.82, 10.04 59.49 C15.32 49.16, 23.5 39.07, 32.5 30.71 C41.5 22.36, 51.95 14.23, 64.02 9.35 C76.09 4.48, 91.36 2.1, 104.93 1.46 C118.51 0.82, 138.93 4.87, 145.47 5.52 C152.01 6.16, 144.45 3.81, 144.17 5.31" stroke="#000000" stroke-width="1" fill="none"></path></g><g transform="translate(2313.262167653107 703.5203641402404) rotate(0 107 18.5)"><text x="107" y="28" font-family="Helvetica, Segoe UI Emoji" font-size="36px" fill="#000000" text-anchor="middle" style="white-space: pre;" direction="ltr">GC</text></g><g stroke-linecap="round" transform="translate(149.80376466360053 794.7508084577839) rotate(0 88 79.9809212854077)"><path d="M8.02 44.07 C8.02 44.07, 8.02 44.07, 8.02 44.07 M8.02 44.07 C8.02 44.07, 8.02 44.07, 8.02 44.07 M7.56 51.66 C10.01 46.51, 16.58 40.91, 34.14 21.92 M6.14 53.38 C17.25 39.63, 28.33 27.77, 34.66 19.42 M4.42 61.46 C17.34 50.17, 28.02 35.3, 42.37 16.7 M2.9 61.28 C17.52 43.69, 33.26 27.08, 41.75 17.3 M1.03 70.77 C16.17 53.59, 31.93 35.87, 52.56 11.03 M0.06 70.49 C11.48 58.93, 21.99 45.03, 51.78 13.67 M-1.18 78.4 C16.04 57.92, 35.47 37.44, 57.67 8.75 M0.27 77.66 C18.29 55.37, 36.38 35.36, 60.23 9.15 M-0.31 83.68 C25.79 51.75, 53.32 24.32, 67.28 7.59 M2.25 81.81 C23.32 55.04, 46.19 30.34, 66.47 7.39 M1.2 85.04 C21.72 66.29, 38.95 45.47, 70.91 6.25 M2.19 87.73 C27.22 58.7, 51.45 30.73, 73.29 7.04 M3.79 90.66 C26.34 65.54, 52.67 36.86, 76.37 7.27 M3.12 93.45 C31.19 59.16, 61.43 26.98, 77.45 5.37 M5.9 97.07 C25.4 70.81, 50 45.34, 83.15 6.47 M4.29 97.65 C24.53 75.46, 41.96 53.58, 85.24 4.51 M5.99 101.78 C32.3 71.96, 60.36 40.55, 91.58 5.75 M5.27 103.1 C34.07 71.45, 61.7 40.17, 89.86 5.15 M6.99 108.43 C39.26 66.73, 71.26 30.07, 96.66 4.78 M6.66 106.64 C40.36 70.02, 73.84 29.58, 95.37 2.95 M6.18 110.9 C30.37 86.27, 49.59 62.88, 104.62 2.56 M8.16 112.05 C37.73 75.49, 68.37 39.89, 103.51 2.96 M11.76 114.91 C34.06 86.95, 54.98 63.84, 108.25 5.12 M9.3 114.53 C32.36 89.54, 53.02 66.46, 107.16 4.12 M12.71 118.19 C38.18 91.17, 62.94 63.46, 111.16 5.06 M11.5 117.64 C40.6 85.65, 71.18 52.46, 110.87 5.61 M14.02 121.08 C39.31 94.96, 61.83 66.26, 116.59 4.73 M15.47 120.73 C43.87 88.89, 72.43 56.19, 115.74 6.85 M17.86 123.41 C56.09 80.6, 93.5 39.45, 117.85 7.12 M16.61 124.62 C48.12 90.98, 78.4 56.5, 118.15 7.2 M22.13 127.86 C50.08 95.03, 78.29 60.31, 122.18 9.67 M19.69 127.77 C56.06 87.6, 90.27 48.11, 123.74 8.58 M23.71 131.11 C65.67 81.9, 105.55 35.11, 128.65 8.95 M22.34 130.27 C60.85 87.77, 98.97 43.21, 127.55 10.98 M24.29 135.45 C58.86 95.95, 89.99 62.65, 132.04 10.54 M25.03 134.24 C47.81 106.94, 70.69 82.59, 132.04 11.08 M25.57 135.92 C59.6 98.85, 94.58 60.25, 135.33 14.08 M26.5 137.77 C57.93 101.83, 87.88 67.63, 135.82 12.25 M29.17 138.14 C69.28 97.27, 107.99 53.08, 139.72 14.53 M31.79 139.6 C55.08 114.24, 77.02 88.85, 139.79 14.47 M34.52 142.99 C66.85 102.66, 97.44 68.23, 140.94 18.12 M34.37 140.59 C76.44 93.95, 118.37 44.89, 141.7 17.21 M36.69 142.24 C59.78 120.57, 78.88 93.8, 143.99 18.89 M38.16 144.12 C65.85 111.01, 94.72 79.45, 145.05 20.71 M42.27 144.85 C73.44 106.56, 107.76 69.39, 146.93 24.45 M41.59 145.33 C62.63 121.53, 83.56 96.93, 149.06 22.61 M45.94 146.17 C74.58 116.66, 100.96 82.83, 150.1 24.92 M44.31 146.97 C66.88 121.87, 88.59 97.66, 150.09 25.63 M48.32 148.54 C79.69 113.08, 111.81 73.64, 152.66 30.02 M49.3 148.92 C89.19 102.69, 127.85 57.34, 154.38 29.54 M52.52 150.39 C82.65 119.21, 110.08 83.89, 158.48 29.73 M51.58 152.11 C83.31 116.29, 111 83.16, 156.08 30.6 M57.36 155.17 C82.43 123.64, 106.83 99.21, 160.66 35.36 M55.57 154.15 C93.53 112.82, 130.08 70.94, 160.04 33.46 M59.23 155.43 C84.54 123.95, 111 96.69, 162.76 36.5 M59.23 154.36 C83.9 127.48, 109.87 98.04, 163.13 36.88 M62.62 156.19 C89.39 129.52, 113.61 102.75, 164.01 41.82 M64.7 155.88 C93.85 121.86, 124.67 88.32, 165.7 39.41 M68.69 156.6 C98.94 122.32, 128.58 89.53, 166.48 45.75 M69.1 156.14 C95.28 127.45, 121.08 98.01, 166.93 44.81 M72.49 158.82 C92.76 131.96, 113.65 109.89, 168.99 48.55 M73.89 158.57 C109.26 118.23, 142.45 77.88, 168.91 49.03 M76.76 159.58 C99.09 137.29, 119.51 113.27, 171.63 54.01 M78.94 158.97 C113.07 115.45, 150.12 73.54, 169.37 52.59 M84.58 160.38 C111.59 123.19, 144.7 88.96, 170.33 56.75 M83.27 158.53 C105.78 135.69, 127.08 109.63, 172.42 56.8 M86.47 161.57 C112.78 130.27, 139.35 101.9, 175.38 61.65 M88.41 160.7 C118.54 125.79, 148.13 90.85, 175.24 59.96 M93.02 160.49 C114.37 133.81, 134.39 107.81, 174.66 62.94 M91.2 160.18 C111.23 140.51, 127.64 118.55, 175.57 63.28 M97.37 162.35 C120.29 134.29, 146.2 106.21, 180.13 67.1 M96.42 162.54 C120.98 134.37, 144.43 107.11, 178.28 68.56 M105.07 160.31 C129.4 132.59, 151.1 103.95, 177.84 73.98 M102.91 159.23 C125.2 135.74, 145.66 111.67, 177.66 74.17 M108.76 159.96 C129.49 131.9, 151.02 109.75, 178.88 81.89 M110.34 158.74 C127.5 138.8, 142.12 119.75, 176.53 80.89 M117.23 155.1 C138.32 129.78, 163.01 103.15, 176.86 86.02 M116.56 157.28 C131.16 140.6, 145.68 123.45, 177.87 87.21 M125.32 155.86 C141.68 135.72, 154.27 118.35, 174.3 93.29 M123.63 155.72 C139.51 137, 153.95 119.96, 175.44 94.97 M132.51 152.65 C147.53 133.61, 162.06 117.5, 174.55 100.25 M130.59 152.27 C140.81 140.66, 152.18 128.68, 175.88 102.01" stroke="#fa5252" stroke-width="0.5" fill="none"></path><path d="M101.03 0.84 C112.52 1.01, 125.01 6.35, 135.1 12.07 C145.2 17.79, 154.89 26.3, 161.6 35.18 C168.31 44.06, 173.46 54.76, 175.35 65.35 C177.24 75.94, 176.01 88.2, 172.93 98.72 C169.86 109.23, 164.13 119.74, 156.9 128.45 C149.67 137.15, 140 145.7, 129.56 150.95 C119.12 156.19, 106.12 159.38, 94.28 159.92 C82.43 160.47, 69.8 158, 58.49 154.23 C47.19 150.46, 35.21 144.64, 26.45 137.31 C17.69 129.98, 10.49 120.39, 5.95 110.25 C1.41 100.11, -1.15 87.5, -0.8 76.46 C-0.44 65.42, 2.66 53.78, 8.07 44.02 C13.47 34.25, 22.26 24.53, 31.64 17.87 C41.02 11.21, 51 6.66, 64.36 4.08 C77.72 1.49, 102.2 1.73, 111.8 2.35 C121.41 2.96, 122.29 6.48, 121.98 7.77 M50.68 7.44 C60.46 2.06, 75.26 -0.17, 87.02 -0.37 C98.79 -0.57, 110.38 2.04, 121.28 6.26 C132.19 10.47, 144.37 17.01, 152.45 24.94 C160.54 32.86, 165.79 43.66, 169.82 53.81 C173.85 63.96, 177.36 75.07, 176.61 85.82 C175.87 96.56, 171.33 108.48, 165.37 118.28 C159.41 128.08, 150.17 138, 140.86 144.61 C131.55 151.23, 121.07 155.79, 109.52 157.98 C97.96 160.17, 83.68 159.63, 71.55 157.75 C59.41 155.87, 46.47 152.71, 36.7 146.7 C26.94 140.69, 18.86 130.97, 12.96 121.69 C7.05 112.41, 3 102.07, 1.29 91.02 C-0.41 79.98, -0.84 65.96, 2.74 55.44 C6.32 44.91, 15.03 35.75, 22.77 27.89 C30.51 20.03, 44.23 11.37, 49.2 8.27 C54.18 5.18, 51.89 8.01, 52.61 9.32" stroke="#000000" stroke-width="1" fill="none"></path></g><g transform="translate(154.80376466360053 856.2317297431919) rotate(0 83 18.5)"><text x="83" y="28" font-family="Helvetica, Segoe UI Emoji" font-size="36px" fill="#000000" text-anchor="middle" style="white-space: pre;" direction="ltr">GC</text></g><g stroke-linecap="round"><g transform="translate(231.78420898114337 590.7994591799948) rotate(0 0.6826090963207321 88.59924484883527)"><path d="M0.39 0.38 C0.96 29.67, 1.85 147.34, 2.23 176.76 M-0.87 -0.47 C-0.33 29.44, 0.89 147.98, 1.41 177.67" stroke="#000000" stroke-width="1" fill="none"></path></g><g transform="translate(231.78420898114337 590.7994591799948) rotate(0 0.6826090963207321 88.59924484883527)"><path d="M-8.61 150.01 C-8.86 156.32, -6.48 159.28, 1.16 177.12 M-9.68 148.7 C-5 160.65, -1 169.15, 0.7 178.07" stroke="#000000" stroke-width="1" fill="none"></path></g><g transform="translate(231.78420898114337 590.7994591799948) rotate(0 0.6826090963207321 88.59924484883527)"><path d="M11.91 149.74 C7.55 156.17, 5.82 159.18, 1.16 177.12 M10.84 148.42 C8.18 160.46, 4.84 169.06, 0.7 178.07" stroke="#000000" stroke-width="1" fill="none"></path></g></g><g transform="translate(257.7780083989006 650.7818113689973) rotate(0 230.49999999999994 18.5)"><text x="0" y="28" font-family="Helvetica, Segoe UI Emoji" font-size="36px" fill="#000000" text-anchor="start" style="white-space: pre;" direction="ltr">Only happen if RefCount is 0</text></g><g transform="translate(2082.8182113772223 345.8490638379358) rotate(0 102.5 37)"><text x="0" y="28" font-family="Helvetica, Segoe UI Emoji" font-size="36px" fill="#000000" text-anchor="start" style="white-space: pre;" direction="ltr">JsRepo</text><text x="0" y="65" font-family="Helvetica, Segoe UI Emoji" font-size="36px" fill="#000000" text-anchor="start" style="white-space: pre;" direction="ltr">RefCount - 1</text></g><g transform="translate(2086.817257441492 639.7789495618076) rotate(0 102.5 37)"><text x="0" y="28" font-family="Helvetica, Segoe UI Emoji" font-size="36px" fill="#000000" text-anchor="start" style="white-space: pre;" direction="ltr">JsRepo</text><text x="0" y="65" font-family="Helvetica, Segoe UI Emoji" font-size="36px" fill="#000000" text-anchor="start" style="white-space: pre;" direction="ltr">RefCount - 1</text></g></svg>