<svg width="624" height="292" viewBox="0 0 624 292" fill="none" xmlns="http://www.w3.org/2000/svg">
<rect x="-206" y="-18" width="828.023" height="309" rx="8.71519" fill="url(#paint0_linear_2021_1140)"/>
<rect x="-206.5" y="-18.5" width="829.023" height="310" rx="9.21519" stroke="#404040" stroke-opacity="0.5"/>
<rect x="-119" y="-2" width="654.914" height="276.367" rx="8.71519" fill="url(#paint1_linear_2021_1140)"/>
<rect x="-119.5" y="-2.5" width="655.914" height="277.367" rx="9.21519" stroke="#404040" stroke-opacity="0.5"/>
<rect x="-59" y="16" width="534.034" height="241.729" rx="8.71519" fill="url(#paint2_linear_2021_1140)"/>
<rect x="-59.5" y="15.5" width="535.034" height="242.729" rx="9.21519" stroke="#404040" stroke-opacity="0.5"/>
<rect x="-11" y="31" width="437.805" height="210.446" rx="8.71519" fill="url(#paint3_linear_2021_1140)"/>
<rect x="-11.5" y="30.5" width="438.805" height="211.446" rx="9.21519" stroke="#404040" stroke-opacity="0.5"/>
<rect x="25" y="53" width="365.73" height="167.777" rx="8.71519" fill="url(#paint4_linear_2021_1140)"/>
<rect x="24.5" y="52.5" width="366.73" height="168.777" rx="9.21519" stroke="#404040" stroke-opacity="0.5"/>
<g filter="url(#filter0_d_2021_1140)">
<path d="M45.8195 89.1755L51.7715 78.3995H52.6475L46.6835 89.1755H45.8195ZM52.7748 89.1755L58.7268 78.3995H59.6028L53.6388 89.1755H52.7748ZM68.5095 78.6395H69.4455L68.7495 82.7915H68.7855C69.0255 82.3035 69.3135 81.9155 69.6495 81.6275C69.9935 81.3315 70.4375 81.1835 70.9815 81.1835C71.6055 81.1835 72.0815 81.3835 72.4095 81.7835C72.7455 82.1835 72.9135 82.7835 72.9135 83.5835C72.9135 83.9995 72.8615 84.4475 72.7575 84.9275C72.6615 85.3995 72.4975 85.8395 72.2655 86.2475C72.0415 86.6555 71.7415 86.9955 71.3655 87.2675C70.9895 87.5315 70.5295 87.6635 69.9855 87.6635C69.5295 87.6635 69.1455 87.5635 68.8335 87.3635C68.5295 87.1555 68.3095 86.8475 68.1735 86.4395H68.1375L67.9575 87.5195H67.0215L68.5095 78.6395ZM69.6975 86.8355C70.2975 86.8355 70.7695 86.6555 71.1135 86.2955C71.4575 85.9355 71.6775 85.4675 71.7735 84.8915L71.9175 84.0275C71.9335 83.9155 71.9455 83.8195 71.9535 83.7395C71.9615 83.6515 71.9655 83.5675 71.9655 83.4875C71.9655 83.0235 71.8535 82.6635 71.6295 82.4075C71.4135 82.1435 71.0895 82.0115 70.6575 82.0115C70.4015 82.0115 70.1495 82.0675 69.9015 82.1795C69.6535 82.2835 69.4215 82.4555 69.2055 82.6955C69.0455 82.8715 68.9015 83.0795 68.7735 83.3195C68.6535 83.5595 68.5695 83.8235 68.5215 84.1115L68.2935 85.4795C68.2215 85.9115 68.3215 86.2475 68.5935 86.4875C68.8655 86.7195 69.2335 86.8355 69.6975 86.8355ZM78.1288 86.0555H78.0808C77.8488 86.5515 77.5728 86.9435 77.2528 87.2315C76.9328 87.5195 76.5208 87.6635 76.0168 87.6635C75.4968 87.6635 75.0848 87.5075 74.7808 87.1955C74.4848 86.8835 74.3368 86.4435 74.3368 85.8755C74.3368 85.6195 74.3608 85.3515 74.4088 85.0715L75.0328 81.3275H75.9688L75.3568 84.9875C75.3328 85.1315 75.3168 85.2635 75.3088 85.3835C75.3008 85.4955 75.2968 85.5835 75.2968 85.6475C75.2968 86.0155 75.3808 86.3075 75.5488 86.5235C75.7168 86.7315 75.9768 86.8355 76.3288 86.8355C76.6008 86.8355 76.8408 86.7755 77.0488 86.6555C77.2648 86.5355 77.4608 86.3715 77.6368 86.1635C77.6688 86.1235 77.7168 86.0635 77.7808 85.9835C77.8528 85.8955 77.9248 85.7915 77.9968 85.6715C78.0688 85.5435 78.1368 85.4035 78.2008 85.2515C78.2648 85.0915 78.3128 84.9235 78.3448 84.7475L78.9208 81.3275H79.8568L78.8248 87.5195H77.8888L78.1288 86.0555ZM84.3761 79.9475C84.1201 79.9475 83.9401 79.8995 83.8361 79.8035C83.7321 79.7075 83.6801 79.5955 83.6801 79.4675C83.6801 79.4195 83.6841 79.3675 83.6921 79.3115C83.7001 79.2555 83.7121 79.1915 83.7281 79.1195C83.7601 78.9355 83.8401 78.7955 83.9681 78.6995C84.0961 78.5955 84.2801 78.5435 84.5201 78.5435C84.7761 78.5435 84.9561 78.5915 85.0601 78.6875C85.1641 78.7835 85.2161 78.8955 85.2161 79.0235C85.2161 79.0715 85.2121 79.1235 85.2041 79.1795C85.1961 79.2355 85.1841 79.2995 85.1681 79.3715C85.1361 79.5555 85.0561 79.6995 84.9281 79.8035C84.8001 79.8995 84.6161 79.9475 84.3761 79.9475ZM83.5601 87.6635C83.2561 87.6635 83.0241 87.5875 82.8641 87.4355C82.7121 87.2755 82.6361 87.0755 82.6361 86.8355C82.6361 86.7555 82.6401 86.6755 82.6481 86.5955C82.6641 86.5075 82.6801 86.4275 82.6961 86.3555L83.5121 82.1315H81.2801L81.4121 81.3275H84.6041L83.5601 86.7275L83.8361 86.8355L86.2001 84.7955L86.7641 85.3235L85.6721 86.3315C85.3921 86.5955 85.1481 86.8115 84.9401 86.9795C84.7401 87.1475 84.5601 87.2835 84.4001 87.3875C84.2401 87.4915 84.0921 87.5635 83.9561 87.6035C83.8281 87.6435 83.6961 87.6635 83.5601 87.6635ZM90.2394 87.6635C89.9114 87.6635 89.6794 87.5835 89.5434 87.4235C89.4074 87.2635 89.3394 87.0595 89.3394 86.8115C89.3394 86.7555 89.3394 86.6915 89.3394 86.6195C89.3474 86.5475 89.3594 86.4835 89.3754 86.4275L90.7194 79.4435H88.5354L88.6674 78.6395H91.8234L90.2634 86.7395L90.5634 86.8355L93.0234 84.7475L93.5634 85.2755L92.3154 86.4035C92.0274 86.6675 91.7794 86.8835 91.5714 87.0515C91.3634 87.2115 91.1794 87.3395 91.0194 87.4355C90.8674 87.5235 90.7274 87.5835 90.5994 87.6155C90.4794 87.6475 90.3594 87.6635 90.2394 87.6635ZM99.0427 86.0555H99.0067C98.7667 86.5435 98.4747 86.9355 98.1307 87.2315C97.7947 87.5195 97.3547 87.6635 96.8107 87.6635C96.1867 87.6635 95.7067 87.4635 95.3707 87.0635C95.0427 86.6635 94.8787 86.0635 94.8787 85.2635C94.8787 84.8475 94.9267 84.4035 95.0227 83.9315C95.1267 83.4515 95.2907 83.0075 95.5147 82.5995C95.7467 82.1915 96.0507 81.8555 96.4267 81.5915C96.8027 81.3195 97.2627 81.1835 97.8067 81.1835C98.2627 81.1835 98.6427 81.2875 98.9467 81.4955C99.2587 81.6955 99.4827 81.9995 99.6187 82.4075H99.6547L100.291 78.6395H101.227L99.7387 87.5195H98.8027L99.0427 86.0555ZM97.1347 86.8355C97.3907 86.8355 97.6427 86.7835 97.8907 86.6795C98.1387 86.5675 98.3707 86.3915 98.5867 86.1515C98.7467 85.9755 98.8867 85.7675 99.0067 85.5275C99.1347 85.2875 99.2227 85.0235 99.2707 84.7355L99.4987 83.3675C99.5707 82.9355 99.4667 82.6035 99.1867 82.3715C98.9147 82.1315 98.5467 82.0115 98.0827 82.0115C97.4827 82.0115 97.0107 82.1915 96.6667 82.5515C96.3307 82.9115 96.1147 83.3795 96.0187 83.9555L95.8747 84.8195C95.8587 84.9315 95.8467 85.0315 95.8387 85.1195C95.8307 85.1995 95.8267 85.2795 95.8267 85.3595C95.8267 85.8235 95.9347 86.1875 96.1507 86.4515C96.3747 86.7075 96.7027 86.8355 97.1347 86.8355ZM104.246 87.6275C103.966 87.6275 103.766 87.5755 103.646 87.4715C103.526 87.3675 103.466 87.2395 103.466 87.0875C103.466 87.0395 103.47 86.9835 103.478 86.9195C103.486 86.8475 103.498 86.7755 103.514 86.7035C103.554 86.4875 103.65 86.3155 103.802 86.1875C103.954 86.0595 104.182 85.9955 104.486 85.9955C104.766 85.9955 104.966 86.0475 105.086 86.1515C105.206 86.2555 105.266 86.3835 105.266 86.5355C105.266 86.5835 105.262 86.6435 105.254 86.7155C105.246 86.7795 105.234 86.8475 105.218 86.9195C105.178 87.1355 105.082 87.3075 104.93 87.4355C104.778 87.5635 104.55 87.6275 104.246 87.6275ZM110.253 87.5195L111.153 82.1315H109.413L109.545 81.3275H112.221L111.945 82.9835H112.005C112.109 82.7355 112.229 82.5115 112.365 82.3115C112.501 82.1035 112.657 81.9275 112.833 81.7835C113.017 81.6395 113.225 81.5275 113.457 81.4475C113.689 81.3675 113.953 81.3275 114.249 81.3275H115.185L115.029 82.2635H113.973C113.613 82.2635 113.313 82.3155 113.073 82.4195C112.833 82.5155 112.621 82.6715 112.437 82.8875C112.397 82.9355 112.341 83.0035 112.269 83.0915C112.205 83.1715 112.137 83.2715 112.065 83.3915C111.993 83.5115 111.925 83.6475 111.861 83.7995C111.805 83.9515 111.761 84.1155 111.729 84.2915L111.189 87.5195H110.253ZM118.289 87.6635C117.689 87.6635 117.165 87.5635 116.717 87.3635C116.277 87.1635 115.921 86.8755 115.649 86.4995L116.345 85.9475C116.585 86.2515 116.865 86.4835 117.185 86.6435C117.505 86.7955 117.901 86.8715 118.373 86.8715C118.925 86.8715 119.357 86.7675 119.669 86.5595C119.981 86.3515 120.137 86.0595 120.137 85.6835C120.137 85.3955 120.049 85.1995 119.873 85.0955C119.705 84.9835 119.493 84.9075 119.237 84.8675L118.337 84.7355C118.113 84.7035 117.889 84.6595 117.665 84.6035C117.449 84.5395 117.253 84.4475 117.077 84.3275C116.909 84.2075 116.769 84.0555 116.657 83.8715C116.553 83.6795 116.501 83.4395 116.501 83.1515C116.501 82.8235 116.569 82.5395 116.705 82.2995C116.849 82.0515 117.041 81.8475 117.281 81.6875C117.521 81.5195 117.801 81.3955 118.121 81.3155C118.441 81.2275 118.785 81.1835 119.153 81.1835C119.697 81.1835 120.161 81.2675 120.545 81.4355C120.929 81.6035 121.237 81.8355 121.469 82.1315L120.809 82.7075C120.753 82.6275 120.677 82.5435 120.581 82.4555C120.493 82.3675 120.377 82.2875 120.233 82.2155C120.097 82.1435 119.929 82.0875 119.729 82.0475C119.537 81.9995 119.309 81.9755 119.045 81.9755C118.509 81.9755 118.101 82.0755 117.821 82.2755C117.549 82.4755 117.413 82.7435 117.413 83.0795C117.413 83.2315 117.437 83.3555 117.485 83.4515C117.541 83.5475 117.613 83.6275 117.701 83.6915C117.789 83.7475 117.889 83.7915 118.001 83.8235C118.121 83.8475 118.245 83.8715 118.373 83.8955L119.249 84.0395C119.449 84.0715 119.653 84.1155 119.861 84.1715C120.077 84.2195 120.273 84.2995 120.449 84.4115C120.625 84.5155 120.769 84.6635 120.881 84.8555C121.001 85.0395 121.061 85.2835 121.061 85.5875C121.061 85.9075 120.993 86.1955 120.857 86.4515C120.729 86.7075 120.541 86.9275 120.293 87.1115C120.053 87.2875 119.761 87.4235 119.417 87.5195C119.081 87.6155 118.705 87.6635 118.289 87.6635Z" fill="#949494"/>
<path d="M48.8435 105.664C48.0595 105.664 47.4555 105.448 47.0315 105.016C46.6075 104.576 46.3955 103.908 46.3955 103.012C46.3955 102.452 46.4795 101.94 46.6475 101.476C46.8155 101.004 47.0475 100.6 47.3435 100.264C47.6475 99.9195 48.0075 99.6555 48.4235 99.4715C48.8475 99.2795 49.3075 99.1835 49.8035 99.1835C50.1075 99.1835 50.3875 99.2195 50.6435 99.2915C50.8995 99.3635 51.1195 99.4715 51.3035 99.6155C51.4955 99.7515 51.6435 99.9235 51.7475 100.132C51.8515 100.34 51.9035 100.58 51.9035 100.852C51.9035 101.068 51.8515 101.292 51.7475 101.524C51.6515 101.756 51.4435 101.972 51.1235 102.172C50.8115 102.372 50.3555 102.54 49.7555 102.676C49.1635 102.812 48.3755 102.892 47.3915 102.916C47.3835 102.98 47.3795 103.04 47.3795 103.096C47.3795 103.144 47.3795 103.176 47.3795 103.192C47.3795 103.408 47.3995 103.616 47.4395 103.816C47.4795 104.016 47.5555 104.196 47.6675 104.356C47.7795 104.508 47.9355 104.632 48.1355 104.728C48.3355 104.816 48.5995 104.86 48.9275 104.86C49.1515 104.86 49.3515 104.836 49.5275 104.788C49.7115 104.732 49.8835 104.652 50.0435 104.548C50.2115 104.436 50.3715 104.296 50.5235 104.128C50.6835 103.952 50.8515 103.74 51.0275 103.492L51.6875 103.9C51.3355 104.476 50.9355 104.916 50.4875 105.22C50.0475 105.516 49.4995 105.664 48.8435 105.664ZM49.7195 99.9635C49.0955 99.9635 48.5875 100.152 48.1955 100.528C47.8035 100.904 47.5635 101.444 47.4755 102.148L47.4635 102.268C48.2155 102.244 48.8195 102.188 49.2755 102.1C49.7395 102.004 50.0915 101.892 50.3315 101.764C50.5795 101.636 50.7435 101.496 50.8235 101.344C50.9035 101.192 50.9435 101.04 50.9435 100.888C50.9435 100.76 50.9195 100.64 50.8715 100.528C50.8315 100.416 50.7635 100.32 50.6675 100.24C50.5715 100.152 50.4435 100.084 50.2835 100.036C50.1315 99.9875 49.9435 99.9635 49.7195 99.9635ZM53.7468 105.664C52.9548 105.664 52.5588 105.188 52.5588 104.236C52.5588 104.164 52.5588 104.068 52.5588 103.948C52.5668 103.82 52.5868 103.648 52.6188 103.432L53.4948 103.36C53.4788 103.496 53.4668 103.624 53.4588 103.744C53.4508 103.856 53.4468 103.956 53.4468 104.044C53.4468 104.348 53.4868 104.572 53.5668 104.716C53.6468 104.852 53.7828 104.92 53.9748 104.92C54.2468 104.92 54.4868 104.8 54.6948 104.56C54.9028 104.32 55.0748 104.024 55.2108 103.672C55.3548 103.32 55.4588 102.948 55.5228 102.556C55.5948 102.156 55.6308 101.796 55.6308 101.476C55.6308 101.396 55.6268 101.292 55.6188 101.164C55.6188 101.028 55.6108 100.892 55.5948 100.756C55.5788 100.612 55.5588 100.476 55.5348 100.348C55.5108 100.212 55.4788 100.1 55.4388 100.012L55.2588 99.9275L53.3628 101.092L52.9908 100.528L53.7828 99.9395C54.0868 99.7155 54.3748 99.5355 54.6468 99.3995C54.9188 99.2555 55.1788 99.1835 55.4268 99.1835C55.6588 99.1835 55.8388 99.2475 55.9668 99.3755C56.0948 99.5035 56.1868 99.6715 56.2428 99.8795C56.3068 100.08 56.3428 100.308 56.3508 100.564C56.3668 100.812 56.3748 101.06 56.3748 101.308L56.4588 101.32C56.6188 100.56 56.8628 100.016 57.1908 99.6875C57.5188 99.3515 57.9228 99.1835 58.4028 99.1835C59.1948 99.1835 59.5908 99.6595 59.5908 100.612C59.5908 100.684 59.5868 100.784 59.5788 100.912C59.5788 101.04 59.5628 101.208 59.5308 101.416L58.6548 101.488C58.6708 101.352 58.6828 101.228 58.6908 101.116C58.6988 100.996 58.7028 100.892 58.7028 100.804C58.7028 100.5 58.6628 100.28 58.5828 100.144C58.5028 99.9995 58.3668 99.9275 58.1748 99.9275C57.8948 99.9275 57.6508 100.048 57.4428 100.288C57.2428 100.528 57.0708 100.824 56.9268 101.176C56.7908 101.528 56.6868 101.904 56.6148 102.304C56.5508 102.696 56.5188 103.052 56.5188 103.372C56.5188 103.46 56.5188 103.568 56.5188 103.696C56.5268 103.824 56.5388 103.96 56.5548 104.104C56.5708 104.24 56.5908 104.376 56.6148 104.512C56.6468 104.64 56.6868 104.748 56.7348 104.836L56.9148 104.92L58.6908 103.672L59.0868 104.224L58.4868 104.74C58.0468 105.116 57.6908 105.364 57.4188 105.484C57.1548 105.604 56.9308 105.664 56.7468 105.664C56.5068 105.664 56.3188 105.604 56.1828 105.484C56.0548 105.356 55.9588 105.192 55.8948 104.992C55.8388 104.792 55.8028 104.564 55.7868 104.308C55.7788 104.052 55.7748 103.796 55.7748 103.54L55.6908 103.528C55.5308 104.288 55.2868 104.836 54.9588 105.172C54.6308 105.5 54.2268 105.664 53.7468 105.664ZM62.2982 105.664C62.0182 105.664 61.7982 105.588 61.6382 105.436C61.4862 105.284 61.4102 105.064 61.4102 104.776C61.4102 104.72 61.4102 104.644 61.4102 104.548C61.4182 104.452 61.4302 104.372 61.4462 104.308L62.1662 100.132H60.3782L60.5102 99.3275H61.7702C61.9782 99.3275 62.1302 99.2875 62.2262 99.2075C62.3302 99.1195 62.4022 98.9715 62.4422 98.7635L62.7182 97.1435H63.6062L63.2342 99.3275H65.7902L65.6582 100.132H63.1022L62.3342 104.716L62.5742 104.86L65.2742 103.06L65.7422 103.66L64.3862 104.62C64.1062 104.82 63.8622 104.988 63.6542 105.124C63.4542 105.252 63.2702 105.356 63.1022 105.436C62.9422 105.516 62.7982 105.572 62.6702 105.604C62.5422 105.644 62.4182 105.664 62.2982 105.664ZM69.7095 105.664C68.9255 105.664 68.3215 105.448 67.8975 105.016C67.4735 104.576 67.2615 103.908 67.2615 103.012C67.2615 102.452 67.3455 101.94 67.5135 101.476C67.6815 101.004 67.9135 100.6 68.2095 100.264C68.5135 99.9195 68.8735 99.6555 69.2895 99.4715C69.7135 99.2795 70.1735 99.1835 70.6695 99.1835C70.9735 99.1835 71.2535 99.2195 71.5095 99.2915C71.7655 99.3635 71.9855 99.4715 72.1695 99.6155C72.3615 99.7515 72.5095 99.9235 72.6135 100.132C72.7175 100.34 72.7695 100.58 72.7695 100.852C72.7695 101.068 72.7175 101.292 72.6135 101.524C72.5175 101.756 72.3095 101.972 71.9895 102.172C71.6775 102.372 71.2215 102.54 70.6215 102.676C70.0295 102.812 69.2415 102.892 68.2575 102.916C68.2495 102.98 68.2455 103.04 68.2455 103.096C68.2455 103.144 68.2455 103.176 68.2455 103.192C68.2455 103.408 68.2655 103.616 68.3055 103.816C68.3455 104.016 68.4215 104.196 68.5335 104.356C68.6455 104.508 68.8015 104.632 69.0015 104.728C69.2015 104.816 69.4655 104.86 69.7935 104.86C70.0175 104.86 70.2175 104.836 70.3935 104.788C70.5775 104.732 70.7495 104.652 70.9095 104.548C71.0775 104.436 71.2375 104.296 71.3895 104.128C71.5495 103.952 71.7175 103.74 71.8935 103.492L72.5535 103.9C72.2015 104.476 71.8015 104.916 71.3535 105.22C70.9135 105.516 70.3655 105.664 69.7095 105.664ZM70.5855 99.9635C69.9615 99.9635 69.4535 100.152 69.0615 100.528C68.6695 100.904 68.4295 101.444 68.3415 102.148L68.3295 102.268C69.0815 102.244 69.6855 102.188 70.1415 102.1C70.6055 102.004 70.9575 101.892 71.1975 101.764C71.4455 101.636 71.6095 101.496 71.6895 101.344C71.7695 101.192 71.8095 101.04 71.8095 100.888C71.8095 100.76 71.7855 100.64 71.7375 100.528C71.6975 100.416 71.6295 100.32 71.5335 100.24C71.4375 100.152 71.3095 100.084 71.1495 100.036C70.9975 99.9875 70.8095 99.9635 70.5855 99.9635ZM75.4768 105.52L76.3768 100.132H74.6368L74.7688 99.3275H77.4448L77.1688 100.984H77.2288C77.3328 100.736 77.4528 100.512 77.5888 100.312C77.7248 100.104 77.8808 99.9275 78.0568 99.7835C78.2408 99.6395 78.4488 99.5275 78.6808 99.4475C78.9128 99.3675 79.1768 99.3275 79.4728 99.3275H80.4088L80.2528 100.264H79.1968C78.8368 100.264 78.5368 100.316 78.2968 100.42C78.0568 100.516 77.8448 100.672 77.6608 100.888C77.6208 100.936 77.5648 101.004 77.4928 101.092C77.4288 101.172 77.3608 101.272 77.2888 101.392C77.2168 101.512 77.1488 101.648 77.0848 101.8C77.0288 101.952 76.9848 102.116 76.9528 102.292L76.4128 105.52H75.4768ZM81.0041 105.52L82.0361 99.3275H82.9721L82.7321 100.792H82.7801C83.0121 100.296 83.2881 99.9035 83.6081 99.6155C83.9281 99.3275 84.3401 99.1835 84.8441 99.1835C85.3641 99.1835 85.7721 99.3395 86.0681 99.6515C86.3721 99.9635 86.5241 100.404 86.5241 100.972C86.5241 101.092 86.5161 101.224 86.5001 101.368C86.4921 101.504 86.4761 101.64 86.4521 101.776L85.8281 105.52H84.8921L85.5041 101.86C85.5281 101.716 85.5441 101.588 85.5521 101.476C85.5601 101.356 85.5641 101.264 85.5641 101.2C85.5641 100.832 85.4801 100.544 85.3121 100.336C85.1441 100.12 84.8841 100.012 84.5321 100.012C84.2601 100.012 84.0161 100.072 83.8001 100.192C83.5921 100.312 83.4001 100.476 83.2241 100.684C83.1921 100.724 83.1401 100.788 83.0681 100.876C83.0041 100.956 82.9361 101.06 82.8641 101.188C82.7921 101.308 82.7241 101.448 82.6601 101.608C82.5961 101.76 82.5481 101.924 82.5161 102.1L81.9401 105.52H81.0041ZM97.4467 105.664C97.0627 105.664 96.7227 105.6 96.4267 105.472C96.1387 105.344 95.8947 105.168 95.6947 104.944C95.5027 104.712 95.3547 104.436 95.2507 104.116C95.1547 103.788 95.1067 103.432 95.1067 103.048C95.1067 102.456 95.1907 101.924 95.3587 101.452C95.5267 100.972 95.7547 100.564 96.0427 100.228C96.3307 99.8915 96.6667 99.6355 97.0507 99.4595C97.4427 99.2755 97.8587 99.1835 98.2987 99.1835C98.6267 99.1835 98.9107 99.2235 99.1507 99.3035C99.3987 99.3835 99.6107 99.4915 99.7867 99.6275C99.9627 99.7555 100.103 99.9115 100.207 100.096C100.319 100.28 100.403 100.472 100.459 100.672L99.6547 100.984C99.5347 100.6 99.3547 100.34 99.1147 100.204C98.8827 100.068 98.5747 99.9995 98.1907 99.9995C97.6627 99.9995 97.2307 100.172 96.8947 100.516C96.5667 100.86 96.3467 101.356 96.2347 102.004L96.1147 102.724C96.0907 102.868 96.0747 102.98 96.0667 103.06C96.0587 103.14 96.0547 103.22 96.0547 103.3C96.0547 103.828 96.1907 104.22 96.4627 104.476C96.7427 104.724 97.1107 104.848 97.5667 104.848C97.7027 104.848 97.8387 104.832 97.9747 104.8C98.1187 104.768 98.2707 104.7 98.4307 104.596C98.5987 104.492 98.7787 104.34 98.9707 104.14C99.1627 103.94 99.3827 103.672 99.6307 103.336L100.303 103.732C100.111 104.044 99.9147 104.324 99.7147 104.572C99.5147 104.812 99.2987 105.012 99.0667 105.172C98.8427 105.332 98.5947 105.452 98.3227 105.532C98.0587 105.62 97.7667 105.664 97.4467 105.664ZM103.298 105.52L104.198 100.132H102.458L102.59 99.3275H105.266L104.99 100.984H105.05C105.154 100.736 105.274 100.512 105.41 100.312C105.546 100.104 105.702 99.9275 105.878 99.7835C106.062 99.6395 106.27 99.5275 106.502 99.4475C106.734 99.3675 106.998 99.3275 107.294 99.3275H108.23L108.074 100.264H107.018C106.658 100.264 106.358 100.316 106.118 100.42C105.878 100.516 105.666 100.672 105.482 100.888C105.442 100.936 105.386 101.004 105.314 101.092C105.25 101.172 105.182 101.272 105.11 101.392C105.038 101.512 104.97 101.648 104.906 101.8C104.85 101.952 104.806 102.116 104.774 102.292L104.234 105.52H103.298ZM110.673 105.664C110.065 105.664 109.597 105.464 109.269 105.064C108.949 104.664 108.789 104.064 108.789 103.264C108.789 102.848 108.837 102.404 108.933 101.932C109.037 101.452 109.201 101.008 109.425 100.6C109.649 100.192 109.945 99.8555 110.313 99.5915C110.681 99.3195 111.133 99.1835 111.669 99.1835C112.117 99.1835 112.489 99.2875 112.785 99.4955C113.081 99.6955 113.297 99.9995 113.433 100.408H113.469L113.649 99.3275H114.585L113.697 104.68H114.549L114.405 105.52H113.709C113.325 105.52 113.061 105.42 112.917 105.22C112.781 105.02 112.737 104.78 112.785 104.5L112.857 104.056H112.821C112.581 104.544 112.297 104.936 111.969 105.232C111.641 105.52 111.209 105.664 110.673 105.664ZM110.997 104.836C111.253 104.836 111.501 104.784 111.741 104.68C111.989 104.568 112.217 104.392 112.425 104.152C112.585 103.968 112.721 103.756 112.833 103.516C112.953 103.276 113.037 103.016 113.085 102.736L113.313 101.368C113.385 100.936 113.285 100.604 113.013 100.372C112.749 100.132 112.389 100.012 111.933 100.012C111.357 100.012 110.901 100.192 110.565 100.552C110.237 100.912 110.025 101.38 109.929 101.956L109.785 102.82C109.769 102.932 109.757 103.032 109.749 103.12C109.741 103.2 109.737 103.28 109.737 103.36C109.737 103.824 109.841 104.188 110.049 104.452C110.265 104.708 110.581 104.836 110.997 104.836ZM117.941 105.664C117.661 105.664 117.441 105.588 117.281 105.436C117.129 105.284 117.053 105.064 117.053 104.776C117.053 104.72 117.053 104.644 117.053 104.548C117.061 104.452 117.073 104.372 117.089 104.308L117.809 100.132H116.021L116.153 99.3275H117.413C117.621 99.3275 117.773 99.2875 117.869 99.2075C117.973 99.1195 118.045 98.9715 118.085 98.7635L118.361 97.1435H119.249L118.877 99.3275H121.433L121.301 100.132H118.745L117.977 104.716L118.217 104.86L120.917 103.06L121.385 103.66L120.029 104.62C119.749 104.82 119.505 104.988 119.297 105.124C119.097 105.252 118.913 105.356 118.745 105.436C118.585 105.516 118.441 105.572 118.313 105.604C118.185 105.644 118.061 105.664 117.941 105.664ZM125.352 105.664C124.568 105.664 123.964 105.448 123.54 105.016C123.116 104.576 122.904 103.908 122.904 103.012C122.904 102.452 122.988 101.94 123.156 101.476C123.324 101.004 123.556 100.6 123.852 100.264C124.156 99.9195 124.516 99.6555 124.932 99.4715C125.356 99.2795 125.816 99.1835 126.312 99.1835C126.616 99.1835 126.896 99.2195 127.152 99.2915C127.408 99.3635 127.628 99.4715 127.812 99.6155C128.004 99.7515 128.152 99.9235 128.256 100.132C128.36 100.34 128.412 100.58 128.412 100.852C128.412 101.068 128.36 101.292 128.256 101.524C128.16 101.756 127.952 101.972 127.632 102.172C127.32 102.372 126.864 102.54 126.264 102.676C125.672 102.812 124.884 102.892 123.9 102.916C123.892 102.98 123.888 103.04 123.888 103.096C123.888 103.144 123.888 103.176 123.888 103.192C123.888 103.408 123.908 103.616 123.948 103.816C123.988 104.016 124.064 104.196 124.176 104.356C124.288 104.508 124.444 104.632 124.644 104.728C124.844 104.816 125.108 104.86 125.436 104.86C125.66 104.86 125.86 104.836 126.036 104.788C126.22 104.732 126.392 104.652 126.552 104.548C126.72 104.436 126.88 104.296 127.032 104.128C127.192 103.952 127.36 103.74 127.536 103.492L128.196 103.9C127.844 104.476 127.444 104.916 126.996 105.22C126.556 105.516 126.008 105.664 125.352 105.664ZM126.228 99.9635C125.604 99.9635 125.096 100.152 124.704 100.528C124.312 100.904 124.072 101.444 123.984 102.148L123.972 102.268C124.724 102.244 125.328 102.188 125.784 102.1C126.248 102.004 126.6 101.892 126.84 101.764C127.088 101.636 127.252 101.496 127.332 101.344C127.412 101.192 127.452 101.04 127.452 100.888C127.452 100.76 127.428 100.64 127.38 100.528C127.34 100.416 127.272 100.32 127.176 100.24C127.08 100.152 126.952 100.084 126.792 100.036C126.64 99.9875 126.452 99.9635 126.228 99.9635ZM47.8715 144.064C47.7435 144.064 47.6235 144.036 47.5115 143.98C47.3995 143.932 47.2755 143.852 47.1395 143.74C47.0035 143.628 46.8475 143.48 46.6715 143.296C46.5035 143.12 46.2995 142.9 46.0595 142.636L45.3275 141.832L45.9635 141.256L47.8115 143.224L48.0275 143.176L49.2035 136.132H46.9955L47.1275 135.328H49.3355L49.5515 134.044C49.6155 133.636 49.7795 133.3 50.0435 133.036C50.3075 132.772 50.6715 132.64 51.1355 132.64H53.2115L53.0795 133.444H50.5835L50.2715 135.328H52.7795L52.6475 136.132H50.1395L49.0235 142.804C48.9995 142.972 48.9595 143.132 48.9035 143.284C48.8475 143.436 48.7715 143.568 48.6755 143.68C48.5875 143.8 48.4755 143.892 48.3395 143.956C48.2035 144.028 48.0475 144.064 47.8715 144.064ZM53.1828 141.52L54.2148 135.328H55.1508L54.9108 136.792H54.9588C55.1908 136.296 55.4668 135.904 55.7868 135.616C56.1068 135.328 56.5188 135.184 57.0228 135.184C57.5428 135.184 57.9508 135.34 58.2468 135.652C58.5508 135.964 58.7028 136.404 58.7028 136.972C58.7028 137.092 58.6948 137.224 58.6788 137.368C58.6708 137.504 58.6548 137.64 58.6308 137.776L58.0068 141.52H57.0708L57.6828 137.86C57.7068 137.716 57.7228 137.588 57.7308 137.476C57.7388 137.356 57.7428 137.264 57.7428 137.2C57.7428 136.832 57.6588 136.544 57.4908 136.336C57.3228 136.12 57.0628 136.012 56.7108 136.012C56.4388 136.012 56.1948 136.072 55.9788 136.192C55.7708 136.312 55.5788 136.476 55.4028 136.684C55.3708 136.724 55.3188 136.788 55.2468 136.876C55.1828 136.956 55.1148 137.06 55.0428 137.188C54.9708 137.308 54.9028 137.448 54.8388 137.608C54.7748 137.76 54.7268 137.924 54.6948 138.1L54.1188 141.52H53.1828Z" fill="#F08C7A"/>
<path d="M136.647 105.52L137.679 99.3275H138.615L138.375 100.792H138.423C138.655 100.296 138.931 99.9035 139.251 99.6155C139.571 99.3275 139.983 99.1835 140.487 99.1835C141.007 99.1835 141.415 99.3395 141.711 99.6515C142.015 99.9635 142.167 100.404 142.167 100.972C142.167 101.092 142.159 101.224 142.143 101.368C142.135 101.504 142.119 101.64 142.095 101.776L141.471 105.52H140.535L141.147 101.86C141.171 101.716 141.187 101.588 141.195 101.476C141.203 101.356 141.207 101.264 141.207 101.2C141.207 100.832 141.123 100.544 140.955 100.336C140.787 100.12 140.527 100.012 140.175 100.012C139.903 100.012 139.659 100.072 139.443 100.192C139.235 100.312 139.043 100.476 138.867 100.684C138.835 100.724 138.783 100.788 138.711 100.876C138.647 100.956 138.579 101.06 138.507 101.188C138.435 101.308 138.367 101.448 138.303 101.608C138.239 101.76 138.191 101.924 138.159 102.1L137.583 105.52H136.647ZM145.45 105.664C144.842 105.664 144.374 105.464 144.046 105.064C143.726 104.664 143.566 104.064 143.566 103.264C143.566 102.848 143.614 102.404 143.71 101.932C143.814 101.452 143.978 101.008 144.202 100.6C144.426 100.192 144.722 99.8555 145.09 99.5915C145.458 99.3195 145.91 99.1835 146.446 99.1835C146.894 99.1835 147.266 99.2875 147.562 99.4955C147.858 99.6955 148.074 99.9995 148.21 100.408H148.246L148.426 99.3275H149.362L148.474 104.68H149.326L149.182 105.52H148.486C148.102 105.52 147.838 105.42 147.694 105.22C147.558 105.02 147.514 104.78 147.562 104.5L147.634 104.056H147.598C147.358 104.544 147.074 104.936 146.746 105.232C146.418 105.52 145.986 105.664 145.45 105.664ZM145.774 104.836C146.03 104.836 146.278 104.784 146.518 104.68C146.766 104.568 146.994 104.392 147.202 104.152C147.362 103.968 147.498 103.756 147.61 103.516C147.73 103.276 147.814 103.016 147.862 102.736L148.09 101.368C148.162 100.936 148.062 100.604 147.79 100.372C147.526 100.132 147.166 100.012 146.71 100.012C146.134 100.012 145.678 100.192 145.342 100.552C145.014 100.912 144.802 101.38 144.706 101.956L144.562 102.82C144.546 102.932 144.534 103.032 144.526 103.12C144.518 103.2 144.514 103.28 144.514 103.36C144.514 103.824 144.618 104.188 144.826 104.452C145.042 104.708 145.358 104.836 145.774 104.836ZM151.517 99.3275H152.453L152.213 100.792H152.249C152.489 100.304 152.777 99.9155 153.113 99.6275C153.457 99.3315 153.901 99.1835 154.445 99.1835C155.069 99.1835 155.545 99.3835 155.873 99.7835C156.209 100.184 156.377 100.784 156.377 101.584C156.377 102 156.325 102.448 156.221 102.928C156.125 103.4 155.961 103.84 155.729 104.248C155.505 104.656 155.205 104.996 154.829 105.268C154.453 105.532 153.993 105.664 153.449 105.664C152.993 105.664 152.609 105.564 152.297 105.364C151.993 105.156 151.773 104.848 151.637 104.44H151.601L151.013 107.92H150.077L151.517 99.3275ZM153.173 104.836C153.773 104.836 154.241 104.656 154.577 104.296C154.921 103.936 155.141 103.468 155.237 102.892L155.381 102.028C155.397 101.916 155.409 101.82 155.417 101.74C155.425 101.652 155.429 101.568 155.429 101.488C155.429 101.024 155.317 100.664 155.093 100.408C154.877 100.144 154.553 100.012 154.121 100.012C153.865 100.012 153.613 100.068 153.365 100.18C153.117 100.284 152.885 100.456 152.669 100.696C152.509 100.872 152.365 101.08 152.237 101.32C152.117 101.56 152.033 101.824 151.985 102.112L151.757 103.48C151.685 103.912 151.785 104.248 152.057 104.488C152.337 104.72 152.709 104.836 153.173 104.836ZM160.885 97.9475C160.629 97.9475 160.449 97.8995 160.345 97.8035C160.241 97.7075 160.189 97.5955 160.189 97.4675C160.189 97.4195 160.193 97.3675 160.201 97.3115C160.209 97.2555 160.221 97.1915 160.237 97.1195C160.269 96.9355 160.349 96.7955 160.477 96.6995C160.605 96.5955 160.789 96.5435 161.029 96.5435C161.285 96.5435 161.465 96.5915 161.569 96.6875C161.673 96.7835 161.725 96.8955 161.725 97.0235C161.725 97.0715 161.721 97.1235 161.713 97.1795C161.705 97.2355 161.693 97.2995 161.677 97.3715C161.645 97.5555 161.565 97.6995 161.437 97.8035C161.309 97.8995 161.125 97.9475 160.885 97.9475ZM160.069 105.664C159.765 105.664 159.533 105.588 159.373 105.436C159.221 105.276 159.145 105.076 159.145 104.836C159.145 104.756 159.149 104.676 159.157 104.596C159.173 104.508 159.189 104.428 159.205 104.356L160.021 100.132H157.789L157.921 99.3275H161.113L160.069 104.728L160.345 104.836L162.709 102.796L163.273 103.324L162.181 104.332C161.901 104.596 161.657 104.812 161.449 104.98C161.249 105.148 161.069 105.284 160.909 105.388C160.749 105.492 160.601 105.564 160.465 105.604C160.337 105.644 160.205 105.664 160.069 105.664ZM163.784 107.524L163.928 106.66H169.628L169.484 107.524H163.784ZM172.839 96.6395H173.775L173.079 100.792H173.115C173.355 100.304 173.643 99.9155 173.979 99.6275C174.323 99.3315 174.767 99.1835 175.311 99.1835C175.935 99.1835 176.411 99.3835 176.739 99.7835C177.075 100.184 177.243 100.784 177.243 101.584C177.243 102 177.191 102.448 177.087 102.928C176.991 103.4 176.827 103.84 176.595 104.248C176.371 104.656 176.071 104.996 175.695 105.268C175.319 105.532 174.859 105.664 174.315 105.664C173.859 105.664 173.475 105.564 173.163 105.364C172.859 105.156 172.639 104.848 172.503 104.44H172.467L172.287 105.52H171.351L172.839 96.6395ZM174.027 104.836C174.627 104.836 175.099 104.656 175.443 104.296C175.787 103.936 176.007 103.468 176.103 102.892L176.247 102.028C176.263 101.916 176.275 101.82 176.283 101.74C176.291 101.652 176.295 101.568 176.295 101.488C176.295 101.024 176.183 100.664 175.959 100.408C175.743 100.144 175.419 100.012 174.987 100.012C174.731 100.012 174.479 100.068 174.231 100.18C173.983 100.284 173.751 100.456 173.535 100.696C173.375 100.872 173.231 101.08 173.103 101.32C172.983 101.56 172.899 101.824 172.851 102.112L172.623 103.48C172.551 103.912 172.651 104.248 172.923 104.488C173.195 104.72 173.563 104.836 174.027 104.836ZM182.458 104.056H182.41C182.178 104.552 181.902 104.944 181.582 105.232C181.262 105.52 180.85 105.664 180.346 105.664C179.826 105.664 179.414 105.508 179.11 105.196C178.814 104.884 178.666 104.444 178.666 103.876C178.666 103.62 178.69 103.352 178.738 103.072L179.362 99.3275H180.298L179.686 102.988C179.662 103.132 179.646 103.264 179.638 103.384C179.63 103.496 179.626 103.584 179.626 103.648C179.626 104.016 179.71 104.308 179.878 104.524C180.046 104.732 180.306 104.836 180.658 104.836C180.93 104.836 181.17 104.776 181.378 104.656C181.594 104.536 181.79 104.372 181.966 104.164C181.998 104.124 182.046 104.064 182.11 103.984C182.182 103.896 182.254 103.792 182.326 103.672C182.398 103.544 182.466 103.404 182.53 103.252C182.594 103.092 182.642 102.924 182.674 102.748L183.25 99.3275H184.186L183.154 105.52H182.218L182.458 104.056ZM188.706 97.9475C188.45 97.9475 188.27 97.8995 188.166 97.8035C188.062 97.7075 188.01 97.5955 188.01 97.4675C188.01 97.4195 188.014 97.3675 188.022 97.3115C188.03 97.2555 188.042 97.1915 188.058 97.1195C188.09 96.9355 188.17 96.7955 188.298 96.6995C188.426 96.5955 188.61 96.5435 188.85 96.5435C189.106 96.5435 189.286 96.5915 189.39 96.6875C189.494 96.7835 189.546 96.8955 189.546 97.0235C189.546 97.0715 189.542 97.1235 189.534 97.1795C189.526 97.2355 189.514 97.2995 189.498 97.3715C189.466 97.5555 189.386 97.6995 189.258 97.8035C189.13 97.8995 188.946 97.9475 188.706 97.9475ZM187.89 105.664C187.586 105.664 187.354 105.588 187.194 105.436C187.042 105.276 186.966 105.076 186.966 104.836C186.966 104.756 186.97 104.676 186.978 104.596C186.994 104.508 187.01 104.428 187.026 104.356L187.842 100.132H185.61L185.742 99.3275H188.934L187.89 104.728L188.166 104.836L190.53 102.796L191.094 103.324L190.002 104.332C189.722 104.596 189.478 104.812 189.27 104.98C189.07 105.148 188.89 105.284 188.73 105.388C188.57 105.492 188.422 105.564 188.286 105.604C188.158 105.644 188.026 105.664 187.89 105.664ZM194.569 105.664C194.241 105.664 194.009 105.584 193.873 105.424C193.737 105.264 193.669 105.06 193.669 104.812C193.669 104.756 193.669 104.692 193.669 104.62C193.677 104.548 193.689 104.484 193.705 104.428L195.049 97.4435H192.865L192.997 96.6395H196.153L194.593 104.74L194.893 104.836L197.353 102.748L197.893 103.276L196.645 104.404C196.357 104.668 196.109 104.884 195.901 105.052C195.693 105.212 195.509 105.34 195.349 105.436C195.197 105.524 195.057 105.584 194.929 105.616C194.809 105.648 194.689 105.664 194.569 105.664ZM203.372 104.056H203.336C203.096 104.544 202.804 104.936 202.46 105.232C202.124 105.52 201.684 105.664 201.14 105.664C200.516 105.664 200.036 105.464 199.7 105.064C199.372 104.664 199.208 104.064 199.208 103.264C199.208 102.848 199.256 102.404 199.352 101.932C199.456 101.452 199.62 101.008 199.844 100.6C200.076 100.192 200.38 99.8555 200.756 99.5915C201.132 99.3195 201.592 99.1835 202.136 99.1835C202.592 99.1835 202.972 99.2875 203.276 99.4955C203.588 99.6955 203.812 99.9995 203.948 100.408H203.984L204.62 96.6395H205.556L204.068 105.52H203.132L203.372 104.056ZM201.464 104.836C201.72 104.836 201.972 104.784 202.22 104.68C202.468 104.568 202.7 104.392 202.916 104.152C203.076 103.976 203.216 103.768 203.336 103.528C203.464 103.288 203.552 103.024 203.6 102.736L203.828 101.368C203.9 100.936 203.796 100.604 203.516 100.372C203.244 100.132 202.876 100.012 202.412 100.012C201.812 100.012 201.34 100.192 200.996 100.552C200.66 100.912 200.444 101.38 200.348 101.956L200.204 102.82C200.188 102.932 200.176 103.032 200.168 103.12C200.16 103.2 200.156 103.28 200.156 103.36C200.156 103.824 200.264 104.188 200.48 104.452C200.704 104.708 201.032 104.836 201.464 104.836ZM208.336 103.9H209.86L207.952 107.212H207.16L208.336 103.9ZM209.368 100.852C209.088 100.852 208.888 100.8 208.768 100.696C208.648 100.592 208.588 100.464 208.588 100.312C208.588 100.264 208.592 100.208 208.6 100.144C208.608 100.072 208.62 99.9995 208.636 99.9275C208.676 99.7115 208.772 99.5395 208.924 99.4115C209.076 99.2835 209.304 99.2195 209.608 99.2195C209.888 99.2195 210.088 99.2715 210.208 99.3755C210.328 99.4795 210.388 99.6075 210.388 99.7595C210.388 99.8075 210.384 99.8675 210.376 99.9395C210.368 100.004 210.356 100.072 210.34 100.144C210.3 100.36 210.204 100.532 210.052 100.66C209.9 100.788 209.672 100.852 209.368 100.852ZM118.109 143.176C117.821 143.176 117.609 143.1 117.473 142.948C117.337 142.804 117.269 142.624 117.269 142.408C117.269 142.384 117.269 142.356 117.269 142.324C117.277 142.3 117.285 142.252 117.293 142.18C117.301 142.116 117.313 142.024 117.329 141.904C117.345 141.792 117.369 141.636 117.401 141.436C117.433 141.22 117.481 141.032 117.545 140.872C117.617 140.712 117.697 140.568 117.785 140.44C117.873 140.312 117.965 140.2 118.061 140.104C118.157 140 118.249 139.904 118.337 139.816C118.545 139.608 118.681 139.444 118.745 139.324C118.809 139.196 118.841 139.068 118.841 138.94C118.841 138.412 118.417 138.148 117.569 138.148H116.405L116.525 137.428H117.689C118.201 137.428 118.589 137.348 118.853 137.188C119.125 137.02 119.261 136.772 119.261 136.444C119.261 136.236 119.181 136.008 119.021 135.76C118.925 135.6 118.829 135.436 118.733 135.268C118.637 135.092 118.589 134.852 118.589 134.548C118.589 134.516 118.589 134.48 118.589 134.44C118.597 134.4 118.605 134.34 118.613 134.26C118.621 134.172 118.633 134.06 118.649 133.924C118.673 133.788 118.705 133.604 118.745 133.372C118.785 133.092 118.905 132.86 119.105 132.676C119.313 132.492 119.577 132.4 119.897 132.4H121.997L121.877 133.132H119.597C119.549 133.396 119.513 133.608 119.489 133.768C119.465 133.928 119.445 134.056 119.429 134.152C119.421 134.24 119.413 134.304 119.405 134.344C119.405 134.384 119.405 134.416 119.405 134.44C119.405 134.648 119.433 134.816 119.489 134.944C119.553 135.072 119.625 135.204 119.705 135.34C119.793 135.492 119.877 135.656 119.957 135.832C120.037 136 120.077 136.196 120.077 136.42C120.077 136.78 119.953 137.08 119.705 137.32C119.457 137.552 119.081 137.708 118.577 137.788V137.836C118.937 137.876 119.209 137.988 119.393 138.172C119.577 138.348 119.669 138.576 119.669 138.856C119.669 139.128 119.593 139.368 119.441 139.576C119.289 139.784 119.105 140.004 118.889 140.236C118.729 140.404 118.589 140.576 118.469 140.752C118.349 140.928 118.261 141.18 118.205 141.508L118.049 142.444H120.317L120.197 143.176H118.109ZM60.1382 159.52L61.1702 153.328H62.1062L61.8662 154.792H61.9142C62.1462 154.296 62.4222 153.904 62.7422 153.616C63.0622 153.328 63.4742 153.184 63.9782 153.184C64.4982 153.184 64.9062 153.34 65.2022 153.652C65.5062 153.964 65.6582 154.404 65.6582 154.972C65.6582 155.092 65.6502 155.224 65.6342 155.368C65.6262 155.504 65.6102 155.64 65.5862 155.776L64.9622 159.52H64.0262L64.6382 155.86C64.6622 155.716 64.6782 155.588 64.6862 155.476C64.6942 155.356 64.6982 155.264 64.6982 155.2C64.6982 154.832 64.6142 154.544 64.4462 154.336C64.2782 154.12 64.0182 154.012 63.6662 154.012C63.3942 154.012 63.1502 154.072 62.9342 154.192C62.7262 154.312 62.5342 154.476 62.3582 154.684C62.3262 154.724 62.2742 154.788 62.2022 154.876C62.1382 154.956 62.0702 155.06 61.9982 155.188C61.9262 155.308 61.8582 155.448 61.7942 155.608C61.7302 155.76 61.6822 155.924 61.6502 156.1L61.0742 159.52H60.1382ZM68.9415 159.664C68.3335 159.664 67.8655 159.464 67.5375 159.064C67.2175 158.664 67.0575 158.064 67.0575 157.264C67.0575 156.848 67.1055 156.404 67.2015 155.932C67.3055 155.452 67.4695 155.008 67.6935 154.6C67.9175 154.192 68.2135 153.856 68.5815 153.592C68.9495 153.32 69.4015 153.184 69.9375 153.184C70.3855 153.184 70.7575 153.288 71.0535 153.496C71.3495 153.696 71.5655 154 71.7015 154.408H71.7375L71.9175 153.328H72.8535L71.9655 158.68H72.8175L72.6735 159.52H71.9775C71.5935 159.52 71.3295 159.42 71.1855 159.22C71.0495 159.02 71.0055 158.78 71.0535 158.5L71.1255 158.056H71.0895C70.8495 158.544 70.5655 158.936 70.2375 159.232C69.9095 159.52 69.4775 159.664 68.9415 159.664ZM69.2655 158.836C69.5215 158.836 69.7695 158.784 70.0095 158.68C70.2575 158.568 70.4855 158.392 70.6935 158.152C70.8535 157.968 70.9895 157.756 71.1015 157.516C71.2215 157.276 71.3055 157.016 71.3535 156.736L71.5815 155.368C71.6535 154.936 71.5535 154.604 71.2815 154.372C71.0175 154.132 70.6575 154.012 70.2015 154.012C69.6255 154.012 69.1695 154.192 68.8335 154.552C68.5055 154.912 68.2935 155.38 68.1975 155.956L68.0535 156.82C68.0375 156.932 68.0255 157.032 68.0175 157.12C68.0095 157.2 68.0055 157.28 68.0055 157.36C68.0055 157.824 68.1095 158.188 68.3175 158.452C68.5335 158.708 68.8495 158.836 69.2655 158.836ZM75.0088 153.328H75.9448L75.7048 154.792H75.7408C75.9808 154.304 76.2688 153.916 76.6048 153.628C76.9488 153.332 77.3928 153.184 77.9368 153.184C78.5608 153.184 79.0368 153.384 79.3648 153.784C79.7008 154.184 79.8688 154.784 79.8688 155.584C79.8688 156 79.8168 156.448 79.7128 156.928C79.6168 157.4 79.4528 157.84 79.2208 158.248C78.9968 158.656 78.6968 158.996 78.3208 159.268C77.9448 159.532 77.4848 159.664 76.9408 159.664C76.4848 159.664 76.1008 159.564 75.7888 159.364C75.4848 159.156 75.2648 158.848 75.1288 158.44H75.0928L74.5048 161.92H73.5688L75.0088 153.328ZM76.6648 158.836C77.2648 158.836 77.7328 158.656 78.0688 158.296C78.4128 157.936 78.6328 157.468 78.7288 156.892L78.8728 156.028C78.8888 155.916 78.9008 155.82 78.9088 155.74C78.9168 155.652 78.9208 155.568 78.9208 155.488C78.9208 155.024 78.8088 154.664 78.5848 154.408C78.3688 154.144 78.0448 154.012 77.6128 154.012C77.3568 154.012 77.1048 154.068 76.8568 154.18C76.6088 154.284 76.3768 154.456 76.1608 154.696C76.0008 154.872 75.8568 155.08 75.7288 155.32C75.6088 155.56 75.5248 155.824 75.4768 156.112L75.2488 157.48C75.1768 157.912 75.2768 158.248 75.5488 158.488C75.8288 158.72 76.2008 158.836 76.6648 158.836ZM84.3761 151.948C84.1201 151.948 83.9401 151.9 83.8361 151.804C83.7321 151.708 83.6801 151.596 83.6801 151.468C83.6801 151.42 83.6841 151.368 83.6921 151.312C83.7001 151.256 83.7121 151.192 83.7281 151.12C83.7601 150.936 83.8401 150.796 83.9681 150.7C84.0961 150.596 84.2801 150.544 84.5201 150.544C84.7761 150.544 84.9561 150.592 85.0601 150.688C85.1641 150.784 85.2161 150.896 85.2161 151.024C85.2161 151.072 85.2121 151.124 85.2041 151.18C85.1961 151.236 85.1841 151.3 85.1681 151.372C85.1361 151.556 85.0561 151.7 84.9281 151.804C84.8001 151.9 84.6161 151.948 84.3761 151.948ZM83.5601 159.664C83.2561 159.664 83.0241 159.588 82.8641 159.436C82.7121 159.276 82.6361 159.076 82.6361 158.836C82.6361 158.756 82.6401 158.676 82.6481 158.596C82.6641 158.508 82.6801 158.428 82.6961 158.356L83.5121 154.132H81.2801L81.4121 153.328H84.6041L83.5601 158.728L83.8361 158.836L86.2001 156.796L86.7641 157.324L85.6721 158.332C85.3921 158.596 85.1481 158.812 84.9401 158.98C84.7401 159.148 84.5601 159.284 84.4001 159.388C84.2401 159.492 84.0921 159.564 83.9561 159.604C83.8281 159.644 83.6961 159.664 83.5601 159.664ZM87.2754 161.524L87.4194 160.66H93.1194L92.9754 161.524H87.2754ZM96.3307 150.64H97.2667L96.5707 154.792H96.6067C96.8467 154.304 97.1347 153.916 97.4707 153.628C97.8147 153.332 98.2587 153.184 98.8027 153.184C99.4267 153.184 99.9027 153.384 100.231 153.784C100.567 154.184 100.735 154.784 100.735 155.584C100.735 156 100.683 156.448 100.579 156.928C100.483 157.4 100.319 157.84 100.087 158.248C99.8627 158.656 99.5627 158.996 99.1867 159.268C98.8107 159.532 98.3507 159.664 97.8067 159.664C97.3507 159.664 96.9667 159.564 96.6547 159.364C96.3507 159.156 96.1307 158.848 95.9947 158.44H95.9587L95.7787 159.52H94.8427L96.3307 150.64ZM97.5187 158.836C98.1187 158.836 98.5907 158.656 98.9347 158.296C99.2787 157.936 99.4987 157.468 99.5947 156.892L99.7387 156.028C99.7547 155.916 99.7667 155.82 99.7747 155.74C99.7827 155.652 99.7867 155.568 99.7867 155.488C99.7867 155.024 99.6747 154.664 99.4507 154.408C99.2347 154.144 98.9107 154.012 98.4787 154.012C98.2227 154.012 97.9707 154.068 97.7227 154.18C97.4747 154.284 97.2427 154.456 97.0267 154.696C96.8667 154.872 96.7227 155.08 96.5947 155.32C96.4747 155.56 96.3907 155.824 96.3427 156.112L96.1147 157.48C96.0427 157.912 96.1427 158.248 96.4147 158.488C96.6867 158.72 97.0547 158.836 97.5187 158.836ZM105.95 158.056H105.902C105.67 158.552 105.394 158.944 105.074 159.232C104.754 159.52 104.342 159.664 103.838 159.664C103.318 159.664 102.906 159.508 102.602 159.196C102.306 158.884 102.158 158.444 102.158 157.876C102.158 157.62 102.182 157.352 102.23 157.072L102.854 153.328H103.79L103.178 156.988C103.154 157.132 103.138 157.264 103.13 157.384C103.122 157.496 103.118 157.584 103.118 157.648C103.118 158.016 103.202 158.308 103.37 158.524C103.538 158.732 103.798 158.836 104.15 158.836C104.422 158.836 104.662 158.776 104.87 158.656C105.086 158.536 105.282 158.372 105.458 158.164C105.49 158.124 105.538 158.064 105.602 157.984C105.674 157.896 105.746 157.792 105.818 157.672C105.89 157.544 105.958 157.404 106.022 157.252C106.086 157.092 106.134 156.924 106.166 156.748L106.742 153.328H107.678L106.646 159.52H105.71L105.95 158.056ZM112.197 151.948C111.941 151.948 111.761 151.9 111.657 151.804C111.553 151.708 111.501 151.596 111.501 151.468C111.501 151.42 111.505 151.368 111.513 151.312C111.521 151.256 111.533 151.192 111.549 151.12C111.581 150.936 111.661 150.796 111.789 150.7C111.917 150.596 112.101 150.544 112.341 150.544C112.597 150.544 112.777 150.592 112.881 150.688C112.985 150.784 113.037 150.896 113.037 151.024C113.037 151.072 113.033 151.124 113.025 151.18C113.017 151.236 113.005 151.3 112.989 151.372C112.957 151.556 112.877 151.7 112.749 151.804C112.621 151.9 112.437 151.948 112.197 151.948ZM111.381 159.664C111.077 159.664 110.845 159.588 110.685 159.436C110.533 159.276 110.457 159.076 110.457 158.836C110.457 158.756 110.461 158.676 110.469 158.596C110.485 158.508 110.501 158.428 110.517 158.356L111.333 154.132H109.101L109.233 153.328H112.425L111.381 158.728L111.657 158.836L114.021 156.796L114.585 157.324L113.493 158.332C113.213 158.596 112.969 158.812 112.761 158.98C112.561 159.148 112.381 159.284 112.221 159.388C112.061 159.492 111.913 159.564 111.777 159.604C111.649 159.644 111.517 159.664 111.381 159.664ZM118.061 159.664C117.733 159.664 117.501 159.584 117.365 159.424C117.229 159.264 117.161 159.06 117.161 158.812C117.161 158.756 117.161 158.692 117.161 158.62C117.169 158.548 117.181 158.484 117.197 158.428L118.541 151.444H116.357L116.489 150.64H119.645L118.085 158.74L118.385 158.836L120.845 156.748L121.385 157.276L120.137 158.404C119.849 158.668 119.601 158.884 119.393 159.052C119.185 159.212 119.001 159.34 118.841 159.436C118.689 159.524 118.549 159.584 118.421 159.616C118.301 159.648 118.181 159.664 118.061 159.664ZM126.864 158.056H126.828C126.588 158.544 126.296 158.936 125.952 159.232C125.616 159.52 125.176 159.664 124.632 159.664C124.008 159.664 123.528 159.464 123.192 159.064C122.864 158.664 122.7 158.064 122.7 157.264C122.7 156.848 122.748 156.404 122.844 155.932C122.948 155.452 123.112 155.008 123.336 154.6C123.568 154.192 123.872 153.856 124.248 153.592C124.624 153.32 125.084 153.184 125.628 153.184C126.084 153.184 126.464 153.288 126.768 153.496C127.08 153.696 127.304 154 127.44 154.408H127.476L128.112 150.64H129.048L127.56 159.52H126.624L126.864 158.056ZM124.956 158.836C125.212 158.836 125.464 158.784 125.712 158.68C125.96 158.568 126.192 158.392 126.408 158.152C126.568 157.976 126.708 157.768 126.828 157.528C126.956 157.288 127.044 157.024 127.092 156.736L127.32 155.368C127.392 154.936 127.288 154.604 127.008 154.372C126.736 154.132 126.368 154.012 125.904 154.012C125.304 154.012 124.832 154.192 124.488 154.552C124.152 154.912 123.936 155.38 123.84 155.956L123.696 156.82C123.68 156.932 123.668 157.032 123.66 157.12C123.652 157.2 123.648 157.28 123.648 157.36C123.648 157.824 123.756 158.188 123.972 158.452C124.196 158.708 124.524 158.836 124.956 158.836ZM132.067 159.628C131.787 159.628 131.587 159.576 131.467 159.472C131.347 159.368 131.287 159.24 131.287 159.088C131.287 159.04 131.291 158.984 131.299 158.92C131.307 158.848 131.319 158.776 131.335 158.704C131.375 158.488 131.471 158.316 131.623 158.188C131.775 158.06 132.003 157.996 132.307 157.996C132.587 157.996 132.787 158.048 132.907 158.152C133.027 158.256 133.087 158.384 133.087 158.536C133.087 158.584 133.083 158.644 133.075 158.716C133.067 158.78 133.055 158.848 133.039 158.92C132.999 159.136 132.903 159.308 132.751 159.436C132.599 159.564 132.371 159.628 132.067 159.628ZM132.859 154.852C132.579 154.852 132.379 154.8 132.259 154.696C132.139 154.592 132.079 154.464 132.079 154.312C132.079 154.264 132.083 154.208 132.091 154.144C132.099 154.072 132.111 154 132.127 153.928C132.167 153.712 132.263 153.54 132.415 153.412C132.567 153.284 132.795 153.22 133.099 153.22C133.379 153.22 133.579 153.272 133.699 153.376C133.819 153.48 133.879 153.608 133.879 153.76C133.879 153.808 133.875 153.868 133.867 153.94C133.859 154.004 133.847 154.072 133.831 154.144C133.791 154.36 133.695 154.532 133.543 154.66C133.391 154.788 133.163 154.852 132.859 154.852ZM139.023 159.628C138.743 159.628 138.543 159.576 138.423 159.472C138.303 159.368 138.243 159.24 138.243 159.088C138.243 159.04 138.247 158.984 138.255 158.92C138.263 158.848 138.275 158.776 138.291 158.704C138.331 158.488 138.427 158.316 138.579 158.188C138.731 158.06 138.959 157.996 139.263 157.996C139.543 157.996 139.743 158.048 139.863 158.152C139.983 158.256 140.043 158.384 140.043 158.536C140.043 158.584 140.039 158.644 140.031 158.716C140.023 158.78 140.011 158.848 139.995 158.92C139.955 159.136 139.859 159.308 139.707 159.436C139.555 159.564 139.327 159.628 139.023 159.628ZM139.815 154.852C139.535 154.852 139.335 154.8 139.215 154.696C139.095 154.592 139.035 154.464 139.035 154.312C139.035 154.264 139.039 154.208 139.047 154.144C139.055 154.072 139.067 154 139.083 153.928C139.123 153.712 139.219 153.54 139.371 153.412C139.523 153.284 139.751 153.22 140.055 153.22C140.335 153.22 140.535 153.272 140.655 153.376C140.775 153.48 140.835 153.608 140.835 153.76C140.835 153.808 140.831 153.868 140.823 153.94C140.815 154.004 140.803 154.072 140.787 154.144C140.747 154.36 140.651 154.532 140.499 154.66C140.347 154.788 140.119 154.852 139.815 154.852ZM180.142 156.928C180.142 156.232 180.238 155.556 180.43 154.9C180.63 154.244 180.89 153.632 181.21 153.064C181.53 152.496 181.894 151.984 182.302 151.528C182.718 151.064 183.146 150.688 183.586 150.4H184.606C184.206 150.672 183.818 150.984 183.442 151.336C183.074 151.688 182.738 152.072 182.434 152.488C182.13 152.904 181.87 153.348 181.654 153.82C181.438 154.284 181.29 154.768 181.21 155.272L181.042 156.292C180.994 156.58 180.97 156.876 180.97 157.18C180.97 157.604 181.018 158.008 181.114 158.392C181.21 158.776 181.338 159.14 181.498 159.484C181.666 159.82 181.862 160.128 182.086 160.408C182.31 160.696 182.554 160.952 182.818 161.176H181.894C181.646 160.968 181.414 160.716 181.198 160.42C180.99 160.124 180.806 159.796 180.646 159.436C180.494 159.076 180.37 158.684 180.274 158.26C180.186 157.836 180.142 157.392 180.142 156.928ZM189.582 154.648C189.582 155.344 189.482 156.02 189.282 156.676C189.09 157.332 188.834 157.948 188.514 158.524C188.194 159.092 187.826 159.604 187.41 160.06C187.002 160.516 186.578 160.888 186.138 161.176H185.118C185.518 160.904 185.902 160.592 186.27 160.24C186.646 159.888 186.986 159.504 187.29 159.088C187.594 158.672 187.85 158.232 188.058 157.768C188.274 157.296 188.426 156.808 188.514 156.304L188.682 155.284C188.73 154.996 188.754 154.7 188.754 154.396C188.754 153.98 188.706 153.58 188.61 153.196C188.514 152.804 188.382 152.44 188.214 152.104C188.054 151.76 187.862 151.448 187.638 151.168C187.414 150.88 187.17 150.624 186.906 150.4H187.83C188.078 150.608 188.306 150.86 188.514 151.156C188.73 151.452 188.914 151.78 189.066 152.14C189.226 152.5 189.35 152.892 189.438 153.316C189.534 153.74 189.582 154.184 189.582 154.648ZM194.425 157.9H195.949L194.041 161.212H193.249L194.425 157.9ZM195.457 154.852C195.177 154.852 194.977 154.8 194.857 154.696C194.737 154.592 194.677 154.464 194.677 154.312C194.677 154.264 194.681 154.208 194.689 154.144C194.697 154.072 194.709 154 194.725 153.928C194.765 153.712 194.861 153.54 195.013 153.412C195.165 153.284 195.393 153.22 195.697 153.22C195.977 153.22 196.177 153.272 196.297 153.376C196.417 153.48 196.477 153.608 196.477 153.76C196.477 153.808 196.473 153.868 196.465 153.94C196.457 154.004 196.445 154.072 196.429 154.144C196.389 154.36 196.293 154.532 196.141 154.66C195.989 154.788 195.761 154.852 195.457 154.852ZM49.9235 168.4C50.2115 168.4 50.4235 168.476 50.5595 168.628C50.6955 168.772 50.7635 168.952 50.7635 169.168C50.7635 169.192 50.7595 169.22 50.7515 169.252C50.7515 169.284 50.7475 169.332 50.7395 169.396C50.7315 169.46 50.7195 169.552 50.7035 169.672C50.6875 169.784 50.6635 169.94 50.6315 170.14C50.5995 170.356 50.5475 170.548 50.4755 170.716C50.4115 170.876 50.3355 171.02 50.2475 171.148C50.1595 171.268 50.0675 171.38 49.9715 171.484C49.8755 171.58 49.7835 171.672 49.6955 171.76C49.4875 171.968 49.3515 172.136 49.2875 172.264C49.2235 172.384 49.1915 172.508 49.1915 172.636C49.1915 173.164 49.6155 173.428 50.4635 173.428H51.6275L51.5075 174.148H50.3435C49.8315 174.148 49.4395 174.232 49.1675 174.4C48.9035 174.56 48.7715 174.804 48.7715 175.132C48.7715 175.34 48.8515 175.568 49.0115 175.816C49.1075 175.976 49.2035 176.144 49.2995 176.32C49.3955 176.488 49.4435 176.724 49.4435 177.028C49.4435 177.06 49.4395 177.096 49.4315 177.136C49.4315 177.176 49.4275 177.24 49.4195 177.328C49.4115 177.408 49.3955 177.516 49.3715 177.652C49.3475 177.796 49.3195 177.98 49.2875 178.204C49.2475 178.484 49.1235 178.716 48.9155 178.9C48.7155 179.084 48.4555 179.176 48.1355 179.176H46.0355L46.1555 178.444H48.4355C48.4835 178.18 48.5195 177.968 48.5435 177.808C48.5675 177.648 48.5835 177.524 48.5915 177.436C48.6075 177.34 48.6155 177.272 48.6155 177.232C48.6235 177.192 48.6275 177.16 48.6275 177.136C48.6275 176.928 48.5955 176.76 48.5315 176.632C48.4675 176.504 48.3995 176.372 48.3275 176.236C48.2395 176.084 48.1555 175.924 48.0755 175.756C47.9955 175.58 47.9555 175.38 47.9555 175.156C47.9555 174.796 48.0795 174.5 48.3275 174.268C48.5755 174.028 48.9515 173.868 49.4555 173.788V173.74C49.0955 173.7 48.8235 173.592 48.6395 173.416C48.4555 173.232 48.3635 173 48.3635 172.72C48.3635 172.448 48.4395 172.208 48.5915 172C48.7435 171.792 48.9275 171.572 49.1435 171.34C49.2235 171.26 49.2955 171.18 49.3595 171.1C49.4315 171.012 49.4955 170.92 49.5515 170.824C49.6155 170.728 49.6715 170.62 49.7195 170.5C49.7675 170.38 49.8035 170.236 49.8275 170.068L49.9835 169.132H47.7155L47.8355 168.4H49.9235Z" fill="#94E2FB"/>
<path d="M66.5295 141.52L67.5615 135.328H68.4255L68.2695 136.3H68.3175C68.4615 135.988 68.6335 135.724 68.8335 135.508C69.0415 135.292 69.3175 135.184 69.6615 135.184C70.0135 135.184 70.2655 135.296 70.4175 135.52C70.5695 135.744 70.6335 136.024 70.6095 136.36H70.6455C70.8055 136 71.0055 135.716 71.2455 135.508C71.4855 135.292 71.7855 135.184 72.1455 135.184C72.4895 135.184 72.7495 135.288 72.9255 135.496C73.1095 135.696 73.2015 135.988 73.2015 136.372C73.2015 136.484 73.1935 136.616 73.1775 136.768C73.1615 136.92 73.1415 137.068 73.1175 137.212L72.3975 141.52H71.5335L72.2295 137.368C72.2535 137.224 72.2735 137.088 72.2895 136.96C72.3055 136.824 72.3135 136.712 72.3135 136.624C72.3135 136.176 72.1375 135.952 71.7855 135.952C71.6175 135.952 71.4695 136 71.3415 136.096C71.2215 136.184 71.1095 136.296 71.0055 136.432C70.8935 136.592 70.8015 136.768 70.7295 136.96C70.6575 137.144 70.6055 137.328 70.5735 137.512L69.9015 141.52H69.0375L69.7335 137.368C69.7815 137.08 69.8055 136.844 69.8055 136.66C69.8055 136.404 69.7615 136.224 69.6735 136.12C69.5935 136.008 69.4695 135.952 69.3015 135.952C69.1335 135.952 68.9815 136 68.8455 136.096C68.7095 136.184 68.5935 136.296 68.4975 136.432C68.3855 136.592 68.2935 136.768 68.2215 136.96C68.1495 137.144 68.0975 137.328 68.0655 137.512L67.3935 141.52H66.5295ZM75.8968 141.664C75.2888 141.664 74.8208 141.464 74.4928 141.064C74.1728 140.664 74.0128 140.064 74.0128 139.264C74.0128 138.848 74.0608 138.404 74.1568 137.932C74.2608 137.452 74.4248 137.008 74.6488 136.6C74.8728 136.192 75.1688 135.856 75.5368 135.592C75.9048 135.32 76.3568 135.184 76.8928 135.184C77.3408 135.184 77.7128 135.288 78.0088 135.496C78.3048 135.696 78.5208 136 78.6568 136.408H78.6928L78.8728 135.328H79.8088L78.9208 140.68H79.7728L79.6288 141.52H78.9328C78.5488 141.52 78.2848 141.42 78.1408 141.22C78.0048 141.02 77.9608 140.78 78.0088 140.5L78.0808 140.056H78.0448C77.8048 140.544 77.5208 140.936 77.1928 141.232C76.8648 141.52 76.4328 141.664 75.8968 141.664ZM76.2208 140.836C76.4768 140.836 76.7248 140.784 76.9648 140.68C77.2128 140.568 77.4408 140.392 77.6488 140.152C77.8088 139.968 77.9448 139.756 78.0568 139.516C78.1768 139.276 78.2608 139.016 78.3088 138.736L78.5368 137.368C78.6088 136.936 78.5088 136.604 78.2368 136.372C77.9728 136.132 77.6128 136.012 77.1568 136.012C76.5808 136.012 76.1248 136.192 75.7888 136.552C75.4608 136.912 75.2488 137.38 75.1528 137.956L75.0088 138.82C74.9928 138.932 74.9808 139.032 74.9728 139.12C74.9648 139.2 74.9608 139.28 74.9608 139.36C74.9608 139.824 75.0648 140.188 75.2728 140.452C75.4888 140.708 75.8048 140.836 76.2208 140.836ZM84.3761 133.948C84.1201 133.948 83.9401 133.9 83.8361 133.804C83.7321 133.708 83.6801 133.596 83.6801 133.468C83.6801 133.42 83.6841 133.368 83.6921 133.312C83.7001 133.256 83.7121 133.192 83.7281 133.12C83.7601 132.936 83.8401 132.796 83.9681 132.7C84.0961 132.596 84.2801 132.544 84.5201 132.544C84.7761 132.544 84.9561 132.592 85.0601 132.688C85.1641 132.784 85.2161 132.896 85.2161 133.024C85.2161 133.072 85.2121 133.124 85.2041 133.18C85.1961 133.236 85.1841 133.3 85.1681 133.372C85.1361 133.556 85.0561 133.7 84.9281 133.804C84.8001 133.9 84.6161 133.948 84.3761 133.948ZM83.5601 141.664C83.2561 141.664 83.0241 141.588 82.8641 141.436C82.7121 141.276 82.6361 141.076 82.6361 140.836C82.6361 140.756 82.6401 140.676 82.6481 140.596C82.6641 140.508 82.6801 140.428 82.6961 140.356L83.5121 136.132H81.2801L81.4121 135.328H84.6041L83.5601 140.728L83.8361 140.836L86.2001 138.796L86.7641 139.324L85.6721 140.332C85.3921 140.596 85.1481 140.812 84.9401 140.98C84.7401 141.148 84.5601 141.284 84.4001 141.388C84.2401 141.492 84.0921 141.564 83.9561 141.604C83.8281 141.644 83.6961 141.664 83.5601 141.664ZM87.9594 141.52L88.9914 135.328H89.9274L89.6874 136.792H89.7354C89.9674 136.296 90.2434 135.904 90.5634 135.616C90.8834 135.328 91.2954 135.184 91.7994 135.184C92.3194 135.184 92.7274 135.34 93.0234 135.652C93.3274 135.964 93.4794 136.404 93.4794 136.972C93.4794 137.092 93.4714 137.224 93.4554 137.368C93.4474 137.504 93.4314 137.64 93.4074 137.776L92.7834 141.52H91.8474L92.4594 137.86C92.4834 137.716 92.4994 137.588 92.5074 137.476C92.5154 137.356 92.5194 137.264 92.5194 137.2C92.5194 136.832 92.4354 136.544 92.2674 136.336C92.0994 136.12 91.8394 136.012 91.4874 136.012C91.2154 136.012 90.9714 136.072 90.7554 136.192C90.5474 136.312 90.3554 136.476 90.1794 136.684C90.1474 136.724 90.0954 136.788 90.0234 136.876C89.9594 136.956 89.8914 137.06 89.8194 137.188C89.7474 137.308 89.6794 137.448 89.6154 137.608C89.5514 137.76 89.5034 137.924 89.4714 138.1L88.8954 141.52H87.9594ZM96.6787 138.928C96.6787 138.232 96.7747 137.556 96.9667 136.9C97.1667 136.244 97.4267 135.632 97.7467 135.064C98.0667 134.496 98.4307 133.984 98.8387 133.528C99.2547 133.064 99.6827 132.688 100.123 132.4H101.143C100.743 132.672 100.355 132.984 99.9787 133.336C99.6107 133.688 99.2747 134.072 98.9707 134.488C98.6667 134.904 98.4067 135.348 98.1907 135.82C97.9747 136.284 97.8267 136.768 97.7467 137.272L97.5787 138.292C97.5307 138.58 97.5067 138.876 97.5067 139.18C97.5067 139.604 97.5547 140.008 97.6507 140.392C97.7467 140.776 97.8747 141.14 98.0347 141.484C98.2027 141.82 98.3987 142.128 98.6227 142.408C98.8467 142.696 99.0907 142.952 99.3547 143.176H98.4307C98.1827 142.968 97.9507 142.716 97.7347 142.42C97.5267 142.124 97.3427 141.796 97.1827 141.436C97.0307 141.076 96.9067 140.684 96.8107 140.26C96.7227 139.836 96.6787 139.392 96.6787 138.928ZM106.118 136.648C106.118 137.344 106.018 138.02 105.818 138.676C105.626 139.332 105.37 139.948 105.05 140.524C104.73 141.092 104.362 141.604 103.946 142.06C103.538 142.516 103.114 142.888 102.674 143.176H101.654C102.054 142.904 102.438 142.592 102.806 142.24C103.182 141.888 103.522 141.504 103.826 141.088C104.13 140.672 104.386 140.232 104.594 139.768C104.81 139.296 104.962 138.808 105.05 138.304L105.218 137.284C105.266 136.996 105.29 136.7 105.29 136.396C105.29 135.98 105.242 135.58 105.146 135.196C105.05 134.804 104.918 134.44 104.75 134.104C104.59 133.76 104.398 133.448 104.174 133.168C103.95 132.88 103.706 132.624 103.442 132.4H104.366C104.614 132.608 104.842 132.86 105.05 133.156C105.266 133.452 105.45 133.78 105.602 134.14C105.762 134.5 105.886 134.892 105.974 135.316C106.07 135.74 106.118 136.184 106.118 136.648ZM146.11 159.664C145.51 159.664 144.986 159.564 144.538 159.364C144.098 159.164 143.742 158.876 143.47 158.5L144.166 157.948C144.406 158.252 144.686 158.484 145.006 158.644C145.326 158.796 145.722 158.872 146.194 158.872C146.746 158.872 147.178 158.768 147.49 158.56C147.802 158.352 147.958 158.06 147.958 157.684C147.958 157.396 147.87 157.2 147.694 157.096C147.526 156.984 147.314 156.908 147.058 156.868L146.158 156.736C145.934 156.704 145.71 156.66 145.486 156.604C145.27 156.54 145.074 156.448 144.898 156.328C144.73 156.208 144.59 156.056 144.478 155.872C144.374 155.68 144.322 155.44 144.322 155.152C144.322 154.824 144.39 154.54 144.526 154.3C144.67 154.052 144.862 153.848 145.102 153.688C145.342 153.52 145.622 153.396 145.942 153.316C146.262 153.228 146.606 153.184 146.974 153.184C147.518 153.184 147.982 153.268 148.366 153.436C148.75 153.604 149.058 153.836 149.29 154.132L148.63 154.708C148.574 154.628 148.498 154.544 148.402 154.456C148.314 154.368 148.198 154.288 148.054 154.216C147.918 154.144 147.75 154.088 147.55 154.048C147.358 154 147.13 153.976 146.866 153.976C146.33 153.976 145.922 154.076 145.642 154.276C145.37 154.476 145.234 154.744 145.234 155.08C145.234 155.232 145.258 155.356 145.306 155.452C145.362 155.548 145.434 155.628 145.522 155.692C145.61 155.748 145.71 155.792 145.822 155.824C145.942 155.848 146.066 155.872 146.194 155.896L147.07 156.04C147.27 156.072 147.474 156.116 147.682 156.172C147.898 156.22 148.094 156.3 148.27 156.412C148.446 156.516 148.59 156.664 148.702 156.856C148.822 157.04 148.882 157.284 148.882 157.588C148.882 157.908 148.814 158.196 148.678 158.452C148.55 158.708 148.362 158.928 148.114 159.112C147.874 159.288 147.582 159.424 147.238 159.52C146.902 159.616 146.526 159.664 146.11 159.664ZM153.173 159.664C152.389 159.664 151.785 159.448 151.361 159.016C150.937 158.576 150.725 157.908 150.725 157.012C150.725 156.452 150.809 155.94 150.977 155.476C151.145 155.004 151.377 154.6 151.673 154.264C151.977 153.92 152.337 153.656 152.753 153.472C153.177 153.28 153.637 153.184 154.133 153.184C154.437 153.184 154.717 153.22 154.973 153.292C155.229 153.364 155.449 153.472 155.633 153.616C155.825 153.752 155.973 153.924 156.077 154.132C156.181 154.34 156.233 154.58 156.233 154.852C156.233 155.068 156.181 155.292 156.077 155.524C155.981 155.756 155.773 155.972 155.453 156.172C155.141 156.372 154.685 156.54 154.085 156.676C153.493 156.812 152.705 156.892 151.721 156.916C151.713 156.98 151.709 157.04 151.709 157.096C151.709 157.144 151.709 157.176 151.709 157.192C151.709 157.408 151.729 157.616 151.769 157.816C151.809 158.016 151.885 158.196 151.997 158.356C152.109 158.508 152.265 158.632 152.465 158.728C152.665 158.816 152.929 158.86 153.257 158.86C153.481 158.86 153.681 158.836 153.857 158.788C154.041 158.732 154.213 158.652 154.373 158.548C154.541 158.436 154.701 158.296 154.853 158.128C155.013 157.952 155.181 157.74 155.357 157.492L156.017 157.9C155.665 158.476 155.265 158.916 154.817 159.22C154.377 159.516 153.829 159.664 153.173 159.664ZM154.049 153.964C153.425 153.964 152.917 154.152 152.525 154.528C152.133 154.904 151.893 155.444 151.805 156.148L151.793 156.268C152.545 156.244 153.149 156.188 153.605 156.1C154.069 156.004 154.421 155.892 154.661 155.764C154.909 155.636 155.073 155.496 155.153 155.344C155.233 155.192 155.273 155.04 155.273 154.888C155.273 154.76 155.249 154.64 155.201 154.528C155.161 154.416 155.093 154.32 154.997 154.24C154.901 154.152 154.773 154.084 154.613 154.036C154.461 153.988 154.273 153.964 154.049 153.964ZM159.673 159.664C159.393 159.664 159.173 159.588 159.013 159.436C158.861 159.284 158.785 159.064 158.785 158.776C158.785 158.72 158.785 158.644 158.785 158.548C158.793 158.452 158.805 158.372 158.821 158.308L159.541 154.132H157.753L157.885 153.328H159.145C159.353 153.328 159.505 153.288 159.601 153.208C159.705 153.12 159.777 152.972 159.817 152.764L160.093 151.144H160.981L160.609 153.328H163.165L163.033 154.132H160.477L159.709 158.716L159.949 158.86L162.649 157.06L163.117 157.66L161.761 158.62C161.481 158.82 161.237 158.988 161.029 159.124C160.829 159.252 160.645 159.356 160.477 159.436C160.317 159.516 160.173 159.572 160.045 159.604C159.917 159.644 159.793 159.664 159.673 159.664ZM168.548 158.056H168.5C168.268 158.552 167.992 158.944 167.672 159.232C167.352 159.52 166.94 159.664 166.436 159.664C165.916 159.664 165.504 159.508 165.2 159.196C164.904 158.884 164.756 158.444 164.756 157.876C164.756 157.62 164.78 157.352 164.828 157.072L165.452 153.328H166.388L165.776 156.988C165.752 157.132 165.736 157.264 165.728 157.384C165.72 157.496 165.716 157.584 165.716 157.648C165.716 158.016 165.8 158.308 165.968 158.524C166.136 158.732 166.396 158.836 166.748 158.836C167.02 158.836 167.26 158.776 167.468 158.656C167.684 158.536 167.88 158.372 168.056 158.164C168.088 158.124 168.136 158.064 168.2 157.984C168.272 157.896 168.344 157.792 168.416 157.672C168.488 157.544 168.556 157.404 168.62 157.252C168.684 157.092 168.732 156.924 168.764 156.748L169.34 153.328H170.276L169.244 159.52H168.308L168.548 158.056ZM172.383 153.328H173.319L173.079 154.792H173.115C173.355 154.304 173.643 153.916 173.979 153.628C174.323 153.332 174.767 153.184 175.311 153.184C175.935 153.184 176.411 153.384 176.739 153.784C177.075 154.184 177.243 154.784 177.243 155.584C177.243 156 177.191 156.448 177.087 156.928C176.991 157.4 176.827 157.84 176.595 158.248C176.371 158.656 176.071 158.996 175.695 159.268C175.319 159.532 174.859 159.664 174.315 159.664C173.859 159.664 173.475 159.564 173.163 159.364C172.859 159.156 172.639 158.848 172.503 158.44H172.467L171.879 161.92H170.943L172.383 153.328ZM174.039 158.836C174.639 158.836 175.107 158.656 175.443 158.296C175.787 157.936 176.007 157.468 176.103 156.892L176.247 156.028C176.263 155.916 176.275 155.82 176.283 155.74C176.291 155.652 176.295 155.568 176.295 155.488C176.295 155.024 176.183 154.664 175.959 154.408C175.743 154.144 175.419 154.012 174.987 154.012C174.731 154.012 174.479 154.068 174.231 154.18C173.983 154.284 173.751 154.456 173.535 154.696C173.375 154.872 173.231 155.08 173.103 155.32C172.983 155.56 172.899 155.824 172.851 156.112L172.623 157.48C172.551 157.912 172.651 158.248 172.923 158.488C173.203 158.72 173.575 158.836 174.039 158.836Z" fill="#CD57FF"/>
</g>
<defs>
<filter id="filter0_d_2021_1140" x="41.3276" y="78.3995" width="173.06" height="108.776" filterUnits="userSpaceOnUse" color-interpolation-filters="sRGB">
<feFlood flood-opacity="0" result="BackgroundImageFix"/>
<feColorMatrix in="SourceAlpha" type="matrix" values="0 0 0 0 0 0 0 0 0 0 0 0 0 0 0 0 0 0 127 0" result="hardAlpha"/>
<feOffset dy="4"/>
<feGaussianBlur stdDeviation="2"/>
<feComposite in2="hardAlpha" operator="out"/>
<feColorMatrix type="matrix" values="0 0 0 0 0 0 0 0 0 0 0 0 0 0 0 0 0 0 0.25 0"/>
<feBlend mode="normal" in2="BackgroundImageFix" result="effect1_dropShadow_2021_1140"/>
<feBlend mode="normal" in="SourceGraphic" in2="effect1_dropShadow_2021_1140" result="shape"/>
</filter>
<linearGradient id="paint0_linear_2021_1140" x1="208.012" y1="-18" x2="208.012" y2="291" gradientUnits="userSpaceOnUse">
<stop stop-color="#171717" stop-opacity="0.35"/>
<stop offset="1" stop-color="#171717"/>
</linearGradient>
<linearGradient id="paint1_linear_2021_1140" x1="208.457" y1="-2" x2="208.457" y2="274.367" gradientUnits="userSpaceOnUse">
<stop stop-color="#171717" stop-opacity="0.35"/>
<stop offset="1" stop-color="#171717"/>
</linearGradient>
<linearGradient id="paint2_linear_2021_1140" x1="208.017" y1="16" x2="208.017" y2="257.729" gradientUnits="userSpaceOnUse">
<stop stop-color="#171717" stop-opacity="0.35"/>
<stop offset="1" stop-color="#171717"/>
</linearGradient>
<linearGradient id="paint3_linear_2021_1140" x1="207.902" y1="31" x2="207.902" y2="241.446" gradientUnits="userSpaceOnUse">
<stop stop-color="#171717" stop-opacity="0.35"/>
<stop offset="1" stop-color="#171717"/>
</linearGradient>
<linearGradient id="paint4_linear_2021_1140" x1="207.865" y1="53" x2="207.865" y2="220.777" gradientUnits="userSpaceOnUse">
<stop stop-color="#171717" stop-opacity="0.35"/>
<stop offset="1" stop-color="#171717"/>
</linearGradient>
</defs>
</svg>
