<svg width="624" height="292" viewBox="0 0 624 292" fill="none" xmlns="http://www.w3.org/2000/svg">
<rect x="-206" y="-18" width="828.023" height="309" rx="8.71519" fill="url(#paint0_linear_2021_1140)"/>
<rect x="-206.5" y="-18.5" width="829.023" height="310" rx="9.21519" stroke="#404040" stroke-opacity="0.5"/>
<rect x="-119" y="-2" width="654.914" height="276.367" rx="8.71519" fill="url(#paint1_linear_2021_1140)"/>
<rect x="-119.5" y="-2.5" width="655.914" height="277.367" rx="9.21519" stroke="#404040" stroke-opacity="0.5"/>
<rect x="-59" y="16" width="534.034" height="241.729" rx="8.71519" fill="url(#paint2_linear_2021_1140)"/>
<rect x="-59.5" y="15.5" width="535.034" height="242.729" rx="9.21519" stroke="#404040" stroke-opacity="0.5"/>
<rect x="-11" y="31" width="437.805" height="210.446" rx="8.71519" fill="url(#paint3_linear_2021_1140)"/>
<rect x="-11.5" y="30.5" width="438.805" height="211.446" rx="9.21519" stroke="#404040" stroke-opacity="0.5"/>
<rect x="27" y="53" width="365.73" height="167.777" rx="8.71519" fill="url(#paint4_linear_2021_1140)"/>
<rect x="26.5" y="52.5" width="366.73" height="168.777" rx="9.21519" stroke="#404040" stroke-opacity="0.5"/>
<g filter="url(#filter0_d_2021_1140)">
<path d="M47.8195 101.176L53.7715 90.3995H54.6475L48.6835 101.176H47.8195ZM54.7748 101.176L60.7268 90.3995H61.6028L55.6388 101.176H54.7748ZM70.5095 90.6395H71.4455L70.7495 94.7915H70.7855C71.0255 94.3035 71.3135 93.9155 71.6495 93.6275C71.9935 93.3315 72.4375 93.1835 72.9815 93.1835C73.6055 93.1835 74.0815 93.3835 74.4095 93.7835C74.7455 94.1835 74.9135 94.7835 74.9135 95.5835C74.9135 95.9995 74.8615 96.4475 74.7575 96.9275C74.6615 97.3995 74.4975 97.8395 74.2655 98.2475C74.0415 98.6555 73.7415 98.9955 73.3655 99.2675C72.9895 99.5315 72.5295 99.6635 71.9855 99.6635C71.5295 99.6635 71.1455 99.5635 70.8335 99.3635C70.5295 99.1555 70.3095 98.8475 70.1735 98.4395H70.1375L69.9575 99.5195H69.0215L70.5095 90.6395ZM71.6975 98.8355C72.2975 98.8355 72.7695 98.6555 73.1135 98.2955C73.4575 97.9355 73.6775 97.4675 73.7735 96.8915L73.9175 96.0275C73.9335 95.9155 73.9455 95.8195 73.9535 95.7395C73.9615 95.6515 73.9655 95.5675 73.9655 95.4875C73.9655 95.0235 73.8535 94.6635 73.6295 94.4075C73.4135 94.1435 73.0895 94.0115 72.6575 94.0115C72.4015 94.0115 72.1495 94.0675 71.9015 94.1795C71.6535 94.2835 71.4215 94.4555 71.2055 94.6955C71.0455 94.8715 70.9015 95.0795 70.7735 95.3195C70.6535 95.5595 70.5695 95.8235 70.5215 96.1115L70.2935 97.4795C70.2215 97.9115 70.3215 98.2475 70.5935 98.4875C70.8655 98.7195 71.2335 98.8355 71.6975 98.8355ZM80.1288 98.0555H80.0808C79.8488 98.5515 79.5728 98.9435 79.2528 99.2315C78.9328 99.5195 78.5208 99.6635 78.0168 99.6635C77.4968 99.6635 77.0848 99.5075 76.7808 99.1955C76.4848 98.8835 76.3368 98.4435 76.3368 97.8755C76.3368 97.6195 76.3608 97.3515 76.4088 97.0715L77.0328 93.3275H77.9688L77.3568 96.9875C77.3328 97.1315 77.3168 97.2635 77.3088 97.3835C77.3008 97.4955 77.2968 97.5835 77.2968 97.6475C77.2968 98.0155 77.3808 98.3075 77.5488 98.5235C77.7168 98.7315 77.9768 98.8355 78.3288 98.8355C78.6008 98.8355 78.8408 98.7755 79.0488 98.6555C79.2648 98.5355 79.4608 98.3715 79.6368 98.1635C79.6688 98.1235 79.7168 98.0635 79.7808 97.9835C79.8528 97.8955 79.9248 97.7915 79.9968 97.6715C80.0688 97.5435 80.1368 97.4035 80.2008 97.2515C80.2648 97.0915 80.3128 96.9235 80.3448 96.7475L80.9208 93.3275H81.8568L80.8248 99.5195H79.8888L80.1288 98.0555ZM86.3761 91.9475C86.1201 91.9475 85.9401 91.8995 85.8361 91.8035C85.7321 91.7075 85.6801 91.5955 85.6801 91.4675C85.6801 91.4195 85.6841 91.3675 85.6921 91.3115C85.7001 91.2555 85.7121 91.1915 85.7281 91.1195C85.7601 90.9355 85.8401 90.7955 85.9681 90.6995C86.0961 90.5955 86.2801 90.5435 86.5201 90.5435C86.7761 90.5435 86.9561 90.5915 87.0601 90.6875C87.1641 90.7835 87.2161 90.8955 87.2161 91.0235C87.2161 91.0715 87.2121 91.1235 87.2041 91.1795C87.1961 91.2355 87.1841 91.2995 87.1681 91.3715C87.1361 91.5555 87.0561 91.6995 86.9281 91.8035C86.8001 91.8995 86.6161 91.9475 86.3761 91.9475ZM85.5601 99.6635C85.2561 99.6635 85.0241 99.5875 84.8641 99.4355C84.7121 99.2755 84.6361 99.0755 84.6361 98.8355C84.6361 98.7555 84.6401 98.6755 84.6481 98.5955C84.6641 98.5075 84.6801 98.4275 84.6961 98.3555L85.5121 94.1315H83.2801L83.4121 93.3275H86.6041L85.5601 98.7275L85.8361 98.8355L88.2001 96.7955L88.7641 97.3235L87.6721 98.3315C87.3921 98.5955 87.1481 98.8115 86.9401 98.9795C86.7401 99.1475 86.5601 99.2835 86.4001 99.3875C86.2401 99.4915 86.0921 99.5635 85.9561 99.6035C85.8281 99.6435 85.6961 99.6635 85.5601 99.6635ZM92.2394 99.6635C91.9114 99.6635 91.6794 99.5835 91.5434 99.4235C91.4074 99.2635 91.3394 99.0595 91.3394 98.8115C91.3394 98.7555 91.3394 98.6915 91.3394 98.6195C91.3474 98.5475 91.3594 98.4835 91.3754 98.4275L92.7194 91.4435H90.5354L90.6674 90.6395H93.8234L92.2634 98.7395L92.5634 98.8355L95.0234 96.7475L95.5634 97.2755L94.3154 98.4035C94.0274 98.6675 93.7794 98.8835 93.5714 99.0515C93.3634 99.2115 93.1794 99.3395 93.0194 99.4355C92.8674 99.5235 92.7274 99.5835 92.5994 99.6155C92.4794 99.6475 92.3594 99.6635 92.2394 99.6635ZM101.043 98.0555H101.007C100.767 98.5435 100.475 98.9355 100.131 99.2315C99.7947 99.5195 99.3547 99.6635 98.8107 99.6635C98.1867 99.6635 97.7067 99.4635 97.3707 99.0635C97.0427 98.6635 96.8787 98.0635 96.8787 97.2635C96.8787 96.8475 96.9267 96.4035 97.0227 95.9315C97.1267 95.4515 97.2907 95.0075 97.5147 94.5995C97.7467 94.1915 98.0507 93.8555 98.4267 93.5915C98.8027 93.3195 99.2627 93.1835 99.8067 93.1835C100.263 93.1835 100.643 93.2875 100.947 93.4955C101.259 93.6955 101.483 93.9995 101.619 94.4075H101.655L102.291 90.6395H103.227L101.739 99.5195H100.803L101.043 98.0555ZM99.1347 98.8355C99.3907 98.8355 99.6427 98.7835 99.8907 98.6795C100.139 98.5675 100.371 98.3915 100.587 98.1515C100.747 97.9755 100.887 97.7675 101.007 97.5275C101.135 97.2875 101.223 97.0235 101.271 96.7355L101.499 95.3675C101.571 94.9355 101.467 94.6035 101.187 94.3715C100.915 94.1315 100.547 94.0115 100.083 94.0115C99.4827 94.0115 99.0107 94.1915 98.6667 94.5515C98.3307 94.9115 98.1147 95.3795 98.0187 95.9555L97.8747 96.8195C97.8587 96.9315 97.8467 97.0315 97.8387 97.1195C97.8307 97.1995 97.8267 97.2795 97.8267 97.3595C97.8267 97.8235 97.9347 98.1875 98.1507 98.4515C98.3747 98.7075 98.7027 98.8355 99.1347 98.8355ZM106.246 99.6275C105.966 99.6275 105.766 99.5755 105.646 99.4715C105.526 99.3675 105.466 99.2395 105.466 99.0875C105.466 99.0395 105.47 98.9835 105.478 98.9195C105.486 98.8475 105.498 98.7755 105.514 98.7035C105.554 98.4875 105.65 98.3155 105.802 98.1875C105.954 98.0595 106.182 97.9955 106.486 97.9955C106.766 97.9955 106.966 98.0475 107.086 98.1515C107.206 98.2555 107.266 98.3835 107.266 98.5355C107.266 98.5835 107.262 98.6435 107.254 98.7155C107.246 98.7795 107.234 98.8475 107.218 98.9195C107.178 99.1355 107.082 99.3075 106.93 99.4355C106.778 99.5635 106.55 99.6275 106.246 99.6275ZM112.253 99.5195L113.153 94.1315H111.413L111.545 93.3275H114.221L113.945 94.9835H114.005C114.109 94.7355 114.229 94.5115 114.365 94.3115C114.501 94.1035 114.657 93.9275 114.833 93.7835C115.017 93.6395 115.225 93.5275 115.457 93.4475C115.689 93.3675 115.953 93.3275 116.249 93.3275H117.185L117.029 94.2635H115.973C115.613 94.2635 115.313 94.3155 115.073 94.4195C114.833 94.5155 114.621 94.6715 114.437 94.8875C114.397 94.9355 114.341 95.0035 114.269 95.0915C114.205 95.1715 114.137 95.2715 114.065 95.3915C113.993 95.5115 113.925 95.6475 113.861 95.7995C113.805 95.9515 113.761 96.1155 113.729 96.2915L113.189 99.5195H112.253ZM120.289 99.6635C119.689 99.6635 119.165 99.5635 118.717 99.3635C118.277 99.1635 117.921 98.8755 117.649 98.4995L118.345 97.9475C118.585 98.2515 118.865 98.4835 119.185 98.6435C119.505 98.7955 119.901 98.8715 120.373 98.8715C120.925 98.8715 121.357 98.7675 121.669 98.5595C121.981 98.3515 122.137 98.0595 122.137 97.6835C122.137 97.3955 122.049 97.1995 121.873 97.0955C121.705 96.9835 121.493 96.9075 121.237 96.8675L120.337 96.7355C120.113 96.7035 119.889 96.6595 119.665 96.6035C119.449 96.5395 119.253 96.4475 119.077 96.3275C118.909 96.2075 118.769 96.0555 118.657 95.8715C118.553 95.6795 118.501 95.4395 118.501 95.1515C118.501 94.8235 118.569 94.5395 118.705 94.2995C118.849 94.0515 119.041 93.8475 119.281 93.6875C119.521 93.5195 119.801 93.3955 120.121 93.3155C120.441 93.2275 120.785 93.1835 121.153 93.1835C121.697 93.1835 122.161 93.2675 122.545 93.4355C122.929 93.6035 123.237 93.8355 123.469 94.1315L122.809 94.7075C122.753 94.6275 122.677 94.5435 122.581 94.4555C122.493 94.3675 122.377 94.2875 122.233 94.2155C122.097 94.1435 121.929 94.0875 121.729 94.0475C121.537 93.9995 121.309 93.9755 121.045 93.9755C120.509 93.9755 120.101 94.0755 119.821 94.2755C119.549 94.4755 119.413 94.7435 119.413 95.0795C119.413 95.2315 119.437 95.3555 119.485 95.4515C119.541 95.5475 119.613 95.6275 119.701 95.6915C119.789 95.7475 119.889 95.7915 120.001 95.8235C120.121 95.8475 120.245 95.8715 120.373 95.8955L121.249 96.0395C121.449 96.0715 121.653 96.1155 121.861 96.1715C122.077 96.2195 122.273 96.2995 122.449 96.4115C122.625 96.5155 122.769 96.6635 122.881 96.8555C123.001 97.0395 123.061 97.2835 123.061 97.5875C123.061 97.9075 122.993 98.1955 122.857 98.4515C122.729 98.7075 122.541 98.9275 122.293 99.1115C122.053 99.2875 121.761 99.4235 121.417 99.5195C121.081 99.6155 120.705 99.6635 120.289 99.6635Z" fill="#949494"/>
<path d="M49.8715 138.064C49.7435 138.064 49.6235 138.036 49.5115 137.98C49.3995 137.932 49.2755 137.852 49.1395 137.74C49.0035 137.628 48.8475 137.48 48.6715 137.296C48.5035 137.12 48.2995 136.9 48.0595 136.636L47.3275 135.832L47.9635 135.256L49.8115 137.224L50.0275 137.176L51.2035 130.132H48.9955L49.1275 129.328H51.3355L51.5515 128.044C51.6155 127.636 51.7795 127.3 52.0435 127.036C52.3075 126.772 52.6715 126.64 53.1355 126.64H55.2115L55.0795 127.444H52.5835L52.2715 129.328H54.7795L54.6475 130.132H52.1395L51.0235 136.804C50.9995 136.972 50.9595 137.132 50.9035 137.284C50.8475 137.436 50.7715 137.568 50.6755 137.68C50.5875 137.8 50.4755 137.892 50.3395 137.956C50.2035 138.028 50.0475 138.064 49.8715 138.064ZM55.1828 135.52L56.2148 129.328H57.1508L56.9108 130.792H56.9588C57.1908 130.296 57.4668 129.904 57.7868 129.616C58.1068 129.328 58.5188 129.184 59.0228 129.184C59.5428 129.184 59.9508 129.34 60.2468 129.652C60.5508 129.964 60.7028 130.404 60.7028 130.972C60.7028 131.092 60.6948 131.224 60.6788 131.368C60.6708 131.504 60.6548 131.64 60.6308 131.776L60.0068 135.52H59.0708L59.6828 131.86C59.7068 131.716 59.7228 131.588 59.7308 131.476C59.7388 131.356 59.7428 131.264 59.7428 131.2C59.7428 130.832 59.6588 130.544 59.4908 130.336C59.3228 130.12 59.0628 130.012 58.7108 130.012C58.4388 130.012 58.1948 130.072 57.9788 130.192C57.7708 130.312 57.5788 130.476 57.4028 130.684C57.3708 130.724 57.3188 130.788 57.2468 130.876C57.1828 130.956 57.1148 131.06 57.0428 131.188C56.9708 131.308 56.9028 131.448 56.8388 131.608C56.7748 131.76 56.7268 131.924 56.6948 132.1L56.1188 135.52H55.1828Z" fill="#F08C7A"/>
<path d="M120.109 137.176C119.821 137.176 119.609 137.1 119.473 136.948C119.337 136.804 119.269 136.624 119.269 136.408C119.269 136.384 119.269 136.356 119.269 136.324C119.277 136.3 119.285 136.252 119.293 136.18C119.301 136.116 119.313 136.024 119.329 135.904C119.345 135.792 119.369 135.636 119.401 135.436C119.433 135.22 119.481 135.032 119.545 134.872C119.617 134.712 119.697 134.568 119.785 134.44C119.873 134.312 119.965 134.2 120.061 134.104C120.157 134 120.249 133.904 120.337 133.816C120.545 133.608 120.681 133.444 120.745 133.324C120.809 133.196 120.841 133.068 120.841 132.94C120.841 132.412 120.417 132.148 119.569 132.148H118.405L118.525 131.428H119.689C120.201 131.428 120.589 131.348 120.853 131.188C121.125 131.02 121.261 130.772 121.261 130.444C121.261 130.236 121.181 130.008 121.021 129.76C120.925 129.6 120.829 129.436 120.733 129.268C120.637 129.092 120.589 128.852 120.589 128.548C120.589 128.516 120.589 128.48 120.589 128.44C120.597 128.4 120.605 128.34 120.613 128.26C120.621 128.172 120.633 128.06 120.649 127.924C120.673 127.788 120.705 127.604 120.745 127.372C120.785 127.092 120.905 126.86 121.105 126.676C121.313 126.492 121.577 126.4 121.897 126.4H123.997L123.877 127.132H121.597C121.549 127.396 121.513 127.608 121.489 127.768C121.465 127.928 121.445 128.056 121.429 128.152C121.421 128.24 121.413 128.304 121.405 128.344C121.405 128.384 121.405 128.416 121.405 128.44C121.405 128.648 121.433 128.816 121.489 128.944C121.553 129.072 121.625 129.204 121.705 129.34C121.793 129.492 121.877 129.656 121.957 129.832C122.037 130 122.077 130.196 122.077 130.42C122.077 130.78 121.953 131.08 121.705 131.32C121.457 131.552 121.081 131.708 120.577 131.788V131.836C120.937 131.876 121.209 131.988 121.393 132.172C121.577 132.348 121.669 132.576 121.669 132.856C121.669 133.128 121.593 133.368 121.441 133.576C121.289 133.784 121.105 134.004 120.889 134.236C120.729 134.404 120.589 134.576 120.469 134.752C120.349 134.928 120.261 135.18 120.205 135.508L120.049 136.444H122.317L122.197 137.176H120.109ZM62.1382 153.52L63.1702 147.328H64.1062L63.8662 148.792H63.9142C64.1462 148.296 64.4222 147.904 64.7422 147.616C65.0622 147.328 65.4742 147.184 65.9782 147.184C66.4982 147.184 66.9062 147.34 67.2022 147.652C67.5062 147.964 67.6582 148.404 67.6582 148.972C67.6582 149.092 67.6502 149.224 67.6342 149.368C67.6262 149.504 67.6102 149.64 67.5862 149.776L66.9622 153.52H66.0262L66.6382 149.86C66.6622 149.716 66.6782 149.588 66.6862 149.476C66.6942 149.356 66.6982 149.264 66.6982 149.2C66.6982 148.832 66.6142 148.544 66.4462 148.336C66.2782 148.12 66.0182 148.012 65.6662 148.012C65.3942 148.012 65.1502 148.072 64.9342 148.192C64.7262 148.312 64.5342 148.476 64.3582 148.684C64.3262 148.724 64.2742 148.788 64.2022 148.876C64.1382 148.956 64.0702 149.06 63.9982 149.188C63.9262 149.308 63.8582 149.448 63.7942 149.608C63.7302 149.76 63.6822 149.924 63.6502 150.1L63.0742 153.52H62.1382ZM70.9415 153.664C70.3335 153.664 69.8655 153.464 69.5375 153.064C69.2175 152.664 69.0575 152.064 69.0575 151.264C69.0575 150.848 69.1055 150.404 69.2015 149.932C69.3055 149.452 69.4695 149.008 69.6935 148.6C69.9175 148.192 70.2135 147.856 70.5815 147.592C70.9495 147.32 71.4015 147.184 71.9375 147.184C72.3855 147.184 72.7575 147.288 73.0535 147.496C73.3495 147.696 73.5655 148 73.7015 148.408H73.7375L73.9175 147.328H74.8535L73.9655 152.68H74.8175L74.6735 153.52H73.9775C73.5935 153.52 73.3295 153.42 73.1855 153.22C73.0495 153.02 73.0055 152.78 73.0535 152.5L73.1255 152.056H73.0895C72.8495 152.544 72.5655 152.936 72.2375 153.232C71.9095 153.52 71.4775 153.664 70.9415 153.664ZM71.2655 152.836C71.5215 152.836 71.7695 152.784 72.0095 152.68C72.2575 152.568 72.4855 152.392 72.6935 152.152C72.8535 151.968 72.9895 151.756 73.1015 151.516C73.2215 151.276 73.3055 151.016 73.3535 150.736L73.5815 149.368C73.6535 148.936 73.5535 148.604 73.2815 148.372C73.0175 148.132 72.6575 148.012 72.2015 148.012C71.6255 148.012 71.1695 148.192 70.8335 148.552C70.5055 148.912 70.2935 149.38 70.1975 149.956L70.0535 150.82C70.0375 150.932 70.0255 151.032 70.0175 151.12C70.0095 151.2 70.0055 151.28 70.0055 151.36C70.0055 151.824 70.1095 152.188 70.3175 152.452C70.5335 152.708 70.8495 152.836 71.2655 152.836ZM77.0088 147.328H77.9448L77.7048 148.792H77.7408C77.9808 148.304 78.2688 147.916 78.6048 147.628C78.9488 147.332 79.3928 147.184 79.9368 147.184C80.5608 147.184 81.0368 147.384 81.3648 147.784C81.7008 148.184 81.8688 148.784 81.8688 149.584C81.8688 150 81.8168 150.448 81.7128 150.928C81.6168 151.4 81.4528 151.84 81.2208 152.248C80.9968 152.656 80.6968 152.996 80.3208 153.268C79.9448 153.532 79.4848 153.664 78.9408 153.664C78.4848 153.664 78.1008 153.564 77.7888 153.364C77.4848 153.156 77.2648 152.848 77.1288 152.44H77.0928L76.5048 155.92H75.5688L77.0088 147.328ZM78.6648 152.836C79.2648 152.836 79.7328 152.656 80.0688 152.296C80.4128 151.936 80.6328 151.468 80.7288 150.892L80.8728 150.028C80.8888 149.916 80.9008 149.82 80.9088 149.74C80.9168 149.652 80.9208 149.568 80.9208 149.488C80.9208 149.024 80.8088 148.664 80.5848 148.408C80.3688 148.144 80.0448 148.012 79.6128 148.012C79.3568 148.012 79.1048 148.068 78.8568 148.18C78.6088 148.284 78.3768 148.456 78.1608 148.696C78.0008 148.872 77.8568 149.08 77.7288 149.32C77.6088 149.56 77.5248 149.824 77.4768 150.112L77.2488 151.48C77.1768 151.912 77.2768 152.248 77.5488 152.488C77.8288 152.72 78.2008 152.836 78.6648 152.836ZM86.3761 145.948C86.1201 145.948 85.9401 145.9 85.8361 145.804C85.7321 145.708 85.6801 145.596 85.6801 145.468C85.6801 145.42 85.6841 145.368 85.6921 145.312C85.7001 145.256 85.7121 145.192 85.7281 145.12C85.7601 144.936 85.8401 144.796 85.9681 144.7C86.0961 144.596 86.2801 144.544 86.5201 144.544C86.7761 144.544 86.9561 144.592 87.0601 144.688C87.1641 144.784 87.2161 144.896 87.2161 145.024C87.2161 145.072 87.2121 145.124 87.2041 145.18C87.1961 145.236 87.1841 145.3 87.1681 145.372C87.1361 145.556 87.0561 145.7 86.9281 145.804C86.8001 145.9 86.6161 145.948 86.3761 145.948ZM85.5601 153.664C85.2561 153.664 85.0241 153.588 84.8641 153.436C84.7121 153.276 84.6361 153.076 84.6361 152.836C84.6361 152.756 84.6401 152.676 84.6481 152.596C84.6641 152.508 84.6801 152.428 84.6961 152.356L85.5121 148.132H83.2801L83.4121 147.328H86.6041L85.5601 152.728L85.8361 152.836L88.2001 150.796L88.7641 151.324L87.6721 152.332C87.3921 152.596 87.1481 152.812 86.9401 152.98C86.7401 153.148 86.5601 153.284 86.4001 153.388C86.2401 153.492 86.0921 153.564 85.9561 153.604C85.8281 153.644 85.6961 153.664 85.5601 153.664ZM89.2754 155.524L89.4194 154.66H95.1194L94.9754 155.524H89.2754ZM98.3307 144.64H99.2667L98.5707 148.792H98.6067C98.8467 148.304 99.1347 147.916 99.4707 147.628C99.8147 147.332 100.259 147.184 100.803 147.184C101.427 147.184 101.903 147.384 102.231 147.784C102.567 148.184 102.735 148.784 102.735 149.584C102.735 150 102.683 150.448 102.579 150.928C102.483 151.4 102.319 151.84 102.087 152.248C101.863 152.656 101.563 152.996 101.187 153.268C100.811 153.532 100.351 153.664 99.8067 153.664C99.3507 153.664 98.9667 153.564 98.6547 153.364C98.3507 153.156 98.1307 152.848 97.9947 152.44H97.9587L97.7787 153.52H96.8427L98.3307 144.64ZM99.5187 152.836C100.119 152.836 100.591 152.656 100.935 152.296C101.279 151.936 101.499 151.468 101.595 150.892L101.739 150.028C101.755 149.916 101.767 149.82 101.775 149.74C101.783 149.652 101.787 149.568 101.787 149.488C101.787 149.024 101.675 148.664 101.451 148.408C101.235 148.144 100.911 148.012 100.479 148.012C100.223 148.012 99.9707 148.068 99.7227 148.18C99.4747 148.284 99.2427 148.456 99.0267 148.696C98.8667 148.872 98.7227 149.08 98.5947 149.32C98.4747 149.56 98.3907 149.824 98.3427 150.112L98.1147 151.48C98.0427 151.912 98.1427 152.248 98.4147 152.488C98.6867 152.72 99.0547 152.836 99.5187 152.836ZM107.95 152.056H107.902C107.67 152.552 107.394 152.944 107.074 153.232C106.754 153.52 106.342 153.664 105.838 153.664C105.318 153.664 104.906 153.508 104.602 153.196C104.306 152.884 104.158 152.444 104.158 151.876C104.158 151.62 104.182 151.352 104.23 151.072L104.854 147.328H105.79L105.178 150.988C105.154 151.132 105.138 151.264 105.13 151.384C105.122 151.496 105.118 151.584 105.118 151.648C105.118 152.016 105.202 152.308 105.37 152.524C105.538 152.732 105.798 152.836 106.15 152.836C106.422 152.836 106.662 152.776 106.87 152.656C107.086 152.536 107.282 152.372 107.458 152.164C107.49 152.124 107.538 152.064 107.602 151.984C107.674 151.896 107.746 151.792 107.818 151.672C107.89 151.544 107.958 151.404 108.022 151.252C108.086 151.092 108.134 150.924 108.166 150.748L108.742 147.328H109.678L108.646 153.52H107.71L107.95 152.056ZM114.197 145.948C113.941 145.948 113.761 145.9 113.657 145.804C113.553 145.708 113.501 145.596 113.501 145.468C113.501 145.42 113.505 145.368 113.513 145.312C113.521 145.256 113.533 145.192 113.549 145.12C113.581 144.936 113.661 144.796 113.789 144.7C113.917 144.596 114.101 144.544 114.341 144.544C114.597 144.544 114.777 144.592 114.881 144.688C114.985 144.784 115.037 144.896 115.037 145.024C115.037 145.072 115.033 145.124 115.025 145.18C115.017 145.236 115.005 145.3 114.989 145.372C114.957 145.556 114.877 145.7 114.749 145.804C114.621 145.9 114.437 145.948 114.197 145.948ZM113.381 153.664C113.077 153.664 112.845 153.588 112.685 153.436C112.533 153.276 112.457 153.076 112.457 152.836C112.457 152.756 112.461 152.676 112.469 152.596C112.485 152.508 112.501 152.428 112.517 152.356L113.333 148.132H111.101L111.233 147.328H114.425L113.381 152.728L113.657 152.836L116.021 150.796L116.585 151.324L115.493 152.332C115.213 152.596 114.969 152.812 114.761 152.98C114.561 153.148 114.381 153.284 114.221 153.388C114.061 153.492 113.913 153.564 113.777 153.604C113.649 153.644 113.517 153.664 113.381 153.664ZM120.061 153.664C119.733 153.664 119.501 153.584 119.365 153.424C119.229 153.264 119.161 153.06 119.161 152.812C119.161 152.756 119.161 152.692 119.161 152.62C119.169 152.548 119.181 152.484 119.197 152.428L120.541 145.444H118.357L118.489 144.64H121.645L120.085 152.74L120.385 152.836L122.845 150.748L123.385 151.276L122.137 152.404C121.849 152.668 121.601 152.884 121.393 153.052C121.185 153.212 121.001 153.34 120.841 153.436C120.689 153.524 120.549 153.584 120.421 153.616C120.301 153.648 120.181 153.664 120.061 153.664ZM128.864 152.056H128.828C128.588 152.544 128.296 152.936 127.952 153.232C127.616 153.52 127.176 153.664 126.632 153.664C126.008 153.664 125.528 153.464 125.192 153.064C124.864 152.664 124.7 152.064 124.7 151.264C124.7 150.848 124.748 150.404 124.844 149.932C124.948 149.452 125.112 149.008 125.336 148.6C125.568 148.192 125.872 147.856 126.248 147.592C126.624 147.32 127.084 147.184 127.628 147.184C128.084 147.184 128.464 147.288 128.768 147.496C129.08 147.696 129.304 148 129.44 148.408H129.476L130.112 144.64H131.048L129.56 153.52H128.624L128.864 152.056ZM126.956 152.836C127.212 152.836 127.464 152.784 127.712 152.68C127.96 152.568 128.192 152.392 128.408 152.152C128.568 151.976 128.708 151.768 128.828 151.528C128.956 151.288 129.044 151.024 129.092 150.736L129.32 149.368C129.392 148.936 129.288 148.604 129.008 148.372C128.736 148.132 128.368 148.012 127.904 148.012C127.304 148.012 126.832 148.192 126.488 148.552C126.152 148.912 125.936 149.38 125.84 149.956L125.696 150.82C125.68 150.932 125.668 151.032 125.66 151.12C125.652 151.2 125.648 151.28 125.648 151.36C125.648 151.824 125.756 152.188 125.972 152.452C126.196 152.708 126.524 152.836 126.956 152.836ZM134.067 153.628C133.787 153.628 133.587 153.576 133.467 153.472C133.347 153.368 133.287 153.24 133.287 153.088C133.287 153.04 133.291 152.984 133.299 152.92C133.307 152.848 133.319 152.776 133.335 152.704C133.375 152.488 133.471 152.316 133.623 152.188C133.775 152.06 134.003 151.996 134.307 151.996C134.587 151.996 134.787 152.048 134.907 152.152C135.027 152.256 135.087 152.384 135.087 152.536C135.087 152.584 135.083 152.644 135.075 152.716C135.067 152.78 135.055 152.848 135.039 152.92C134.999 153.136 134.903 153.308 134.751 153.436C134.599 153.564 134.371 153.628 134.067 153.628ZM134.859 148.852C134.579 148.852 134.379 148.8 134.259 148.696C134.139 148.592 134.079 148.464 134.079 148.312C134.079 148.264 134.083 148.208 134.091 148.144C134.099 148.072 134.111 148 134.127 147.928C134.167 147.712 134.263 147.54 134.415 147.412C134.567 147.284 134.795 147.22 135.099 147.22C135.379 147.22 135.579 147.272 135.699 147.376C135.819 147.48 135.879 147.608 135.879 147.76C135.879 147.808 135.875 147.868 135.867 147.94C135.859 148.004 135.847 148.072 135.831 148.144C135.791 148.36 135.695 148.532 135.543 148.66C135.391 148.788 135.163 148.852 134.859 148.852ZM141.023 153.628C140.743 153.628 140.543 153.576 140.423 153.472C140.303 153.368 140.243 153.24 140.243 153.088C140.243 153.04 140.247 152.984 140.255 152.92C140.263 152.848 140.275 152.776 140.291 152.704C140.331 152.488 140.427 152.316 140.579 152.188C140.731 152.06 140.959 151.996 141.263 151.996C141.543 151.996 141.743 152.048 141.863 152.152C141.983 152.256 142.043 152.384 142.043 152.536C142.043 152.584 142.039 152.644 142.031 152.716C142.023 152.78 142.011 152.848 141.995 152.92C141.955 153.136 141.859 153.308 141.707 153.436C141.555 153.564 141.327 153.628 141.023 153.628ZM141.815 148.852C141.535 148.852 141.335 148.8 141.215 148.696C141.095 148.592 141.035 148.464 141.035 148.312C141.035 148.264 141.039 148.208 141.047 148.144C141.055 148.072 141.067 148 141.083 147.928C141.123 147.712 141.219 147.54 141.371 147.412C141.523 147.284 141.751 147.22 142.055 147.22C142.335 147.22 142.535 147.272 142.655 147.376C142.775 147.48 142.835 147.608 142.835 147.76C142.835 147.808 142.831 147.868 142.823 147.94C142.815 148.004 142.803 148.072 142.787 148.144C142.747 148.36 142.651 148.532 142.499 148.66C142.347 148.788 142.119 148.852 141.815 148.852ZM182.142 150.928C182.142 150.232 182.238 149.556 182.43 148.9C182.63 148.244 182.89 147.632 183.21 147.064C183.53 146.496 183.894 145.984 184.302 145.528C184.718 145.064 185.146 144.688 185.586 144.4H186.606C186.206 144.672 185.818 144.984 185.442 145.336C185.074 145.688 184.738 146.072 184.434 146.488C184.13 146.904 183.87 147.348 183.654 147.82C183.438 148.284 183.29 148.768 183.21 149.272L183.042 150.292C182.994 150.58 182.97 150.876 182.97 151.18C182.97 151.604 183.018 152.008 183.114 152.392C183.21 152.776 183.338 153.14 183.498 153.484C183.666 153.82 183.862 154.128 184.086 154.408C184.31 154.696 184.554 154.952 184.818 155.176H183.894C183.646 154.968 183.414 154.716 183.198 154.42C182.99 154.124 182.806 153.796 182.646 153.436C182.494 153.076 182.37 152.684 182.274 152.26C182.186 151.836 182.142 151.392 182.142 150.928ZM191.582 148.648C191.582 149.344 191.482 150.02 191.282 150.676C191.09 151.332 190.834 151.948 190.514 152.524C190.194 153.092 189.826 153.604 189.41 154.06C189.002 154.516 188.578 154.888 188.138 155.176H187.118C187.518 154.904 187.902 154.592 188.27 154.24C188.646 153.888 188.986 153.504 189.29 153.088C189.594 152.672 189.85 152.232 190.058 151.768C190.274 151.296 190.426 150.808 190.514 150.304L190.682 149.284C190.73 148.996 190.754 148.7 190.754 148.396C190.754 147.98 190.706 147.58 190.61 147.196C190.514 146.804 190.382 146.44 190.214 146.104C190.054 145.76 189.862 145.448 189.638 145.168C189.414 144.88 189.17 144.624 188.906 144.4H189.83C190.078 144.608 190.306 144.86 190.514 145.156C190.73 145.452 190.914 145.78 191.066 146.14C191.226 146.5 191.35 146.892 191.438 147.316C191.534 147.74 191.582 148.184 191.582 148.648ZM196.425 151.9H197.949L196.041 155.212H195.249L196.425 151.9ZM197.457 148.852C197.177 148.852 196.977 148.8 196.857 148.696C196.737 148.592 196.677 148.464 196.677 148.312C196.677 148.264 196.681 148.208 196.689 148.144C196.697 148.072 196.709 148 196.725 147.928C196.765 147.712 196.861 147.54 197.013 147.412C197.165 147.284 197.393 147.22 197.697 147.22C197.977 147.22 198.177 147.272 198.297 147.376C198.417 147.48 198.477 147.608 198.477 147.76C198.477 147.808 198.473 147.868 198.465 147.94C198.457 148.004 198.445 148.072 198.429 148.144C198.389 148.36 198.293 148.532 198.141 148.66C197.989 148.788 197.761 148.852 197.457 148.852ZM51.9235 162.4C52.2115 162.4 52.4235 162.476 52.5595 162.628C52.6955 162.772 52.7635 162.952 52.7635 163.168C52.7635 163.192 52.7595 163.22 52.7515 163.252C52.7515 163.284 52.7475 163.332 52.7395 163.396C52.7315 163.46 52.7195 163.552 52.7035 163.672C52.6875 163.784 52.6635 163.94 52.6315 164.14C52.5995 164.356 52.5475 164.548 52.4755 164.716C52.4115 164.876 52.3355 165.02 52.2475 165.148C52.1595 165.268 52.0675 165.38 51.9715 165.484C51.8755 165.58 51.7835 165.672 51.6955 165.76C51.4875 165.968 51.3515 166.136 51.2875 166.264C51.2235 166.384 51.1915 166.508 51.1915 166.636C51.1915 167.164 51.6155 167.428 52.4635 167.428H53.6275L53.5075 168.148H52.3435C51.8315 168.148 51.4395 168.232 51.1675 168.4C50.9035 168.56 50.7715 168.804 50.7715 169.132C50.7715 169.34 50.8515 169.568 51.0115 169.816C51.1075 169.976 51.2035 170.144 51.2995 170.32C51.3955 170.488 51.4435 170.724 51.4435 171.028C51.4435 171.06 51.4395 171.096 51.4315 171.136C51.4315 171.176 51.4275 171.24 51.4195 171.328C51.4115 171.408 51.3955 171.516 51.3715 171.652C51.3475 171.796 51.3195 171.98 51.2875 172.204C51.2475 172.484 51.1235 172.716 50.9155 172.9C50.7155 173.084 50.4555 173.176 50.1355 173.176H48.0355L48.1555 172.444H50.4355C50.4835 172.18 50.5195 171.968 50.5435 171.808C50.5675 171.648 50.5835 171.524 50.5915 171.436C50.6075 171.34 50.6155 171.272 50.6155 171.232C50.6235 171.192 50.6275 171.16 50.6275 171.136C50.6275 170.928 50.5955 170.76 50.5315 170.632C50.4675 170.504 50.3995 170.372 50.3275 170.236C50.2395 170.084 50.1555 169.924 50.0755 169.756C49.9955 169.58 49.9555 169.38 49.9555 169.156C49.9555 168.796 50.0795 168.5 50.3275 168.268C50.5755 168.028 50.9515 167.868 51.4555 167.788V167.74C51.0955 167.7 50.8235 167.592 50.6395 167.416C50.4555 167.232 50.3635 167 50.3635 166.72C50.3635 166.448 50.4395 166.208 50.5915 166C50.7435 165.792 50.9275 165.572 51.1435 165.34C51.2235 165.26 51.2955 165.18 51.3595 165.1C51.4315 165.012 51.4955 164.92 51.5515 164.824C51.6155 164.728 51.6715 164.62 51.7195 164.5C51.7675 164.38 51.8035 164.236 51.8275 164.068L51.9835 163.132H49.7155L49.8355 162.4H51.9235Z" fill="#94E2FB"/>
<path d="M68.5295 135.52L69.5615 129.328H70.4255L70.2695 130.3H70.3175C70.4615 129.988 70.6335 129.724 70.8335 129.508C71.0415 129.292 71.3175 129.184 71.6615 129.184C72.0135 129.184 72.2655 129.296 72.4175 129.52C72.5695 129.744 72.6335 130.024 72.6095 130.36H72.6455C72.8055 130 73.0055 129.716 73.2455 129.508C73.4855 129.292 73.7855 129.184 74.1455 129.184C74.4895 129.184 74.7495 129.288 74.9255 129.496C75.1095 129.696 75.2015 129.988 75.2015 130.372C75.2015 130.484 75.1935 130.616 75.1775 130.768C75.1615 130.92 75.1415 131.068 75.1175 131.212L74.3975 135.52H73.5335L74.2295 131.368C74.2535 131.224 74.2735 131.088 74.2895 130.96C74.3055 130.824 74.3135 130.712 74.3135 130.624C74.3135 130.176 74.1375 129.952 73.7855 129.952C73.6175 129.952 73.4695 130 73.3415 130.096C73.2215 130.184 73.1095 130.296 73.0055 130.432C72.8935 130.592 72.8015 130.768 72.7295 130.96C72.6575 131.144 72.6055 131.328 72.5735 131.512L71.9015 135.52H71.0375L71.7335 131.368C71.7815 131.08 71.8055 130.844 71.8055 130.66C71.8055 130.404 71.7615 130.224 71.6735 130.12C71.5935 130.008 71.4695 129.952 71.3015 129.952C71.1335 129.952 70.9815 130 70.8455 130.096C70.7095 130.184 70.5935 130.296 70.4975 130.432C70.3855 130.592 70.2935 130.768 70.2215 130.96C70.1495 131.144 70.0975 131.328 70.0655 131.512L69.3935 135.52H68.5295ZM77.8968 135.664C77.2888 135.664 76.8208 135.464 76.4928 135.064C76.1728 134.664 76.0128 134.064 76.0128 133.264C76.0128 132.848 76.0608 132.404 76.1568 131.932C76.2608 131.452 76.4248 131.008 76.6488 130.6C76.8728 130.192 77.1688 129.856 77.5368 129.592C77.9048 129.32 78.3568 129.184 78.8928 129.184C79.3408 129.184 79.7128 129.288 80.0088 129.496C80.3048 129.696 80.5208 130 80.6568 130.408H80.6928L80.8728 129.328H81.8088L80.9208 134.68H81.7728L81.6288 135.52H80.9328C80.5488 135.52 80.2848 135.42 80.1408 135.22C80.0048 135.02 79.9608 134.78 80.0088 134.5L80.0808 134.056H80.0448C79.8048 134.544 79.5208 134.936 79.1928 135.232C78.8648 135.52 78.4328 135.664 77.8968 135.664ZM78.2208 134.836C78.4768 134.836 78.7248 134.784 78.9648 134.68C79.2128 134.568 79.4408 134.392 79.6488 134.152C79.8088 133.968 79.9448 133.756 80.0568 133.516C80.1768 133.276 80.2608 133.016 80.3088 132.736L80.5368 131.368C80.6088 130.936 80.5088 130.604 80.2368 130.372C79.9728 130.132 79.6128 130.012 79.1568 130.012C78.5808 130.012 78.1248 130.192 77.7888 130.552C77.4608 130.912 77.2488 131.38 77.1528 131.956L77.0088 132.82C76.9928 132.932 76.9808 133.032 76.9728 133.12C76.9648 133.2 76.9608 133.28 76.9608 133.36C76.9608 133.824 77.0648 134.188 77.2728 134.452C77.4888 134.708 77.8048 134.836 78.2208 134.836ZM86.3761 127.948C86.1201 127.948 85.9401 127.9 85.8361 127.804C85.7321 127.708 85.6801 127.596 85.6801 127.468C85.6801 127.42 85.6841 127.368 85.6921 127.312C85.7001 127.256 85.7121 127.192 85.7281 127.12C85.7601 126.936 85.8401 126.796 85.9681 126.7C86.0961 126.596 86.2801 126.544 86.5201 126.544C86.7761 126.544 86.9561 126.592 87.0601 126.688C87.1641 126.784 87.2161 126.896 87.2161 127.024C87.2161 127.072 87.2121 127.124 87.2041 127.18C87.1961 127.236 87.1841 127.3 87.1681 127.372C87.1361 127.556 87.0561 127.7 86.9281 127.804C86.8001 127.9 86.6161 127.948 86.3761 127.948ZM85.5601 135.664C85.2561 135.664 85.0241 135.588 84.8641 135.436C84.7121 135.276 84.6361 135.076 84.6361 134.836C84.6361 134.756 84.6401 134.676 84.6481 134.596C84.6641 134.508 84.6801 134.428 84.6961 134.356L85.5121 130.132H83.2801L83.4121 129.328H86.6041L85.5601 134.728L85.8361 134.836L88.2001 132.796L88.7641 133.324L87.6721 134.332C87.3921 134.596 87.1481 134.812 86.9401 134.98C86.7401 135.148 86.5601 135.284 86.4001 135.388C86.2401 135.492 86.0921 135.564 85.9561 135.604C85.8281 135.644 85.6961 135.664 85.5601 135.664ZM89.9594 135.52L90.9914 129.328H91.9274L91.6874 130.792H91.7354C91.9674 130.296 92.2434 129.904 92.5634 129.616C92.8834 129.328 93.2954 129.184 93.7994 129.184C94.3194 129.184 94.7274 129.34 95.0234 129.652C95.3274 129.964 95.4794 130.404 95.4794 130.972C95.4794 131.092 95.4714 131.224 95.4554 131.368C95.4474 131.504 95.4314 131.64 95.4074 131.776L94.7834 135.52H93.8474L94.4594 131.86C94.4834 131.716 94.4994 131.588 94.5074 131.476C94.5154 131.356 94.5194 131.264 94.5194 131.2C94.5194 130.832 94.4354 130.544 94.2674 130.336C94.0994 130.12 93.8394 130.012 93.4874 130.012C93.2154 130.012 92.9714 130.072 92.7554 130.192C92.5474 130.312 92.3554 130.476 92.1794 130.684C92.1474 130.724 92.0954 130.788 92.0234 130.876C91.9594 130.956 91.8914 131.06 91.8194 131.188C91.7474 131.308 91.6794 131.448 91.6154 131.608C91.5514 131.76 91.5034 131.924 91.4714 132.1L90.8954 135.52H89.9594ZM98.6787 132.928C98.6787 132.232 98.7747 131.556 98.9667 130.9C99.1667 130.244 99.4267 129.632 99.7467 129.064C100.067 128.496 100.431 127.984 100.839 127.528C101.255 127.064 101.683 126.688 102.123 126.4H103.143C102.743 126.672 102.355 126.984 101.979 127.336C101.611 127.688 101.275 128.072 100.971 128.488C100.667 128.904 100.407 129.348 100.191 129.82C99.9747 130.284 99.8267 130.768 99.7467 131.272L99.5787 132.292C99.5307 132.58 99.5067 132.876 99.5067 133.18C99.5067 133.604 99.5547 134.008 99.6507 134.392C99.7467 134.776 99.8747 135.14 100.035 135.484C100.203 135.82 100.399 136.128 100.623 136.408C100.847 136.696 101.091 136.952 101.355 137.176H100.431C100.183 136.968 99.9507 136.716 99.7347 136.42C99.5267 136.124 99.3427 135.796 99.1827 135.436C99.0307 135.076 98.9067 134.684 98.8107 134.26C98.7227 133.836 98.6787 133.392 98.6787 132.928ZM108.118 130.648C108.118 131.344 108.018 132.02 107.818 132.676C107.626 133.332 107.37 133.948 107.05 134.524C106.73 135.092 106.362 135.604 105.946 136.06C105.538 136.516 105.114 136.888 104.674 137.176H103.654C104.054 136.904 104.438 136.592 104.806 136.24C105.182 135.888 105.522 135.504 105.826 135.088C106.13 134.672 106.386 134.232 106.594 133.768C106.81 133.296 106.962 132.808 107.05 132.304L107.218 131.284C107.266 130.996 107.29 130.7 107.29 130.396C107.29 129.98 107.242 129.58 107.146 129.196C107.05 128.804 106.918 128.44 106.75 128.104C106.59 127.76 106.398 127.448 106.174 127.168C105.95 126.88 105.706 126.624 105.442 126.4H106.366C106.614 126.608 106.842 126.86 107.05 127.156C107.266 127.452 107.45 127.78 107.602 128.14C107.762 128.5 107.886 128.892 107.974 129.316C108.07 129.74 108.118 130.184 108.118 130.648ZM148.11 153.664C147.51 153.664 146.986 153.564 146.538 153.364C146.098 153.164 145.742 152.876 145.47 152.5L146.166 151.948C146.406 152.252 146.686 152.484 147.006 152.644C147.326 152.796 147.722 152.872 148.194 152.872C148.746 152.872 149.178 152.768 149.49 152.56C149.802 152.352 149.958 152.06 149.958 151.684C149.958 151.396 149.87 151.2 149.694 151.096C149.526 150.984 149.314 150.908 149.058 150.868L148.158 150.736C147.934 150.704 147.71 150.66 147.486 150.604C147.27 150.54 147.074 150.448 146.898 150.328C146.73 150.208 146.59 150.056 146.478 149.872C146.374 149.68 146.322 149.44 146.322 149.152C146.322 148.824 146.39 148.54 146.526 148.3C146.67 148.052 146.862 147.848 147.102 147.688C147.342 147.52 147.622 147.396 147.942 147.316C148.262 147.228 148.606 147.184 148.974 147.184C149.518 147.184 149.982 147.268 150.366 147.436C150.75 147.604 151.058 147.836 151.29 148.132L150.63 148.708C150.574 148.628 150.498 148.544 150.402 148.456C150.314 148.368 150.198 148.288 150.054 148.216C149.918 148.144 149.75 148.088 149.55 148.048C149.358 148 149.13 147.976 148.866 147.976C148.33 147.976 147.922 148.076 147.642 148.276C147.37 148.476 147.234 148.744 147.234 149.08C147.234 149.232 147.258 149.356 147.306 149.452C147.362 149.548 147.434 149.628 147.522 149.692C147.61 149.748 147.71 149.792 147.822 149.824C147.942 149.848 148.066 149.872 148.194 149.896L149.07 150.04C149.27 150.072 149.474 150.116 149.682 150.172C149.898 150.22 150.094 150.3 150.27 150.412C150.446 150.516 150.59 150.664 150.702 150.856C150.822 151.04 150.882 151.284 150.882 151.588C150.882 151.908 150.814 152.196 150.678 152.452C150.55 152.708 150.362 152.928 150.114 153.112C149.874 153.288 149.582 153.424 149.238 153.52C148.902 153.616 148.526 153.664 148.11 153.664ZM155.173 153.664C154.389 153.664 153.785 153.448 153.361 153.016C152.937 152.576 152.725 151.908 152.725 151.012C152.725 150.452 152.809 149.94 152.977 149.476C153.145 149.004 153.377 148.6 153.673 148.264C153.977 147.92 154.337 147.656 154.753 147.472C155.177 147.28 155.637 147.184 156.133 147.184C156.437 147.184 156.717 147.22 156.973 147.292C157.229 147.364 157.449 147.472 157.633 147.616C157.825 147.752 157.973 147.924 158.077 148.132C158.181 148.34 158.233 148.58 158.233 148.852C158.233 149.068 158.181 149.292 158.077 149.524C157.981 149.756 157.773 149.972 157.453 150.172C157.141 150.372 156.685 150.54 156.085 150.676C155.493 150.812 154.705 150.892 153.721 150.916C153.713 150.98 153.709 151.04 153.709 151.096C153.709 151.144 153.709 151.176 153.709 151.192C153.709 151.408 153.729 151.616 153.769 151.816C153.809 152.016 153.885 152.196 153.997 152.356C154.109 152.508 154.265 152.632 154.465 152.728C154.665 152.816 154.929 152.86 155.257 152.86C155.481 152.86 155.681 152.836 155.857 152.788C156.041 152.732 156.213 152.652 156.373 152.548C156.541 152.436 156.701 152.296 156.853 152.128C157.013 151.952 157.181 151.74 157.357 151.492L158.017 151.9C157.665 152.476 157.265 152.916 156.817 153.22C156.377 153.516 155.829 153.664 155.173 153.664ZM156.049 147.964C155.425 147.964 154.917 148.152 154.525 148.528C154.133 148.904 153.893 149.444 153.805 150.148L153.793 150.268C154.545 150.244 155.149 150.188 155.605 150.1C156.069 150.004 156.421 149.892 156.661 149.764C156.909 149.636 157.073 149.496 157.153 149.344C157.233 149.192 157.273 149.04 157.273 148.888C157.273 148.76 157.249 148.64 157.201 148.528C157.161 148.416 157.093 148.32 156.997 148.24C156.901 148.152 156.773 148.084 156.613 148.036C156.461 147.988 156.273 147.964 156.049 147.964ZM161.673 153.664C161.393 153.664 161.173 153.588 161.013 153.436C160.861 153.284 160.785 153.064 160.785 152.776C160.785 152.72 160.785 152.644 160.785 152.548C160.793 152.452 160.805 152.372 160.821 152.308L161.541 148.132H159.753L159.885 147.328H161.145C161.353 147.328 161.505 147.288 161.601 147.208C161.705 147.12 161.777 146.972 161.817 146.764L162.093 145.144H162.981L162.609 147.328H165.165L165.033 148.132H162.477L161.709 152.716L161.949 152.86L164.649 151.06L165.117 151.66L163.761 152.62C163.481 152.82 163.237 152.988 163.029 153.124C162.829 153.252 162.645 153.356 162.477 153.436C162.317 153.516 162.173 153.572 162.045 153.604C161.917 153.644 161.793 153.664 161.673 153.664ZM170.548 152.056H170.5C170.268 152.552 169.992 152.944 169.672 153.232C169.352 153.52 168.94 153.664 168.436 153.664C167.916 153.664 167.504 153.508 167.2 153.196C166.904 152.884 166.756 152.444 166.756 151.876C166.756 151.62 166.78 151.352 166.828 151.072L167.452 147.328H168.388L167.776 150.988C167.752 151.132 167.736 151.264 167.728 151.384C167.72 151.496 167.716 151.584 167.716 151.648C167.716 152.016 167.8 152.308 167.968 152.524C168.136 152.732 168.396 152.836 168.748 152.836C169.02 152.836 169.26 152.776 169.468 152.656C169.684 152.536 169.88 152.372 170.056 152.164C170.088 152.124 170.136 152.064 170.2 151.984C170.272 151.896 170.344 151.792 170.416 151.672C170.488 151.544 170.556 151.404 170.62 151.252C170.684 151.092 170.732 150.924 170.764 150.748L171.34 147.328H172.276L171.244 153.52H170.308L170.548 152.056ZM174.383 147.328H175.319L175.079 148.792H175.115C175.355 148.304 175.643 147.916 175.979 147.628C176.323 147.332 176.767 147.184 177.311 147.184C177.935 147.184 178.411 147.384 178.739 147.784C179.075 148.184 179.243 148.784 179.243 149.584C179.243 150 179.191 150.448 179.087 150.928C178.991 151.4 178.827 151.84 178.595 152.248C178.371 152.656 178.071 152.996 177.695 153.268C177.319 153.532 176.859 153.664 176.315 153.664C175.859 153.664 175.475 153.564 175.163 153.364C174.859 153.156 174.639 152.848 174.503 152.44H174.467L173.879 155.92H172.943L174.383 147.328ZM176.039 152.836C176.639 152.836 177.107 152.656 177.443 152.296C177.787 151.936 178.007 151.468 178.103 150.892L178.247 150.028C178.263 149.916 178.275 149.82 178.283 149.74C178.291 149.652 178.295 149.568 178.295 149.488C178.295 149.024 178.183 148.664 177.959 148.408C177.743 148.144 177.419 148.012 176.987 148.012C176.731 148.012 176.479 148.068 176.231 148.18C175.983 148.284 175.751 148.456 175.535 148.696C175.375 148.872 175.231 149.08 175.103 149.32C174.983 149.56 174.899 149.824 174.851 150.112L174.623 151.48C174.551 151.912 174.651 152.248 174.923 152.488C175.203 152.72 175.575 152.836 176.039 152.836Z" fill="#CD57FF"/>
</g>
<defs>
<filter id="filter0_d_2021_1140" x="43.3276" y="90.3995" width="159.149" height="90.776" filterUnits="userSpaceOnUse" color-interpolation-filters="sRGB">
<feFlood flood-opacity="0" result="BackgroundImageFix"/>
<feColorMatrix in="SourceAlpha" type="matrix" values="0 0 0 0 0 0 0 0 0 0 0 0 0 0 0 0 0 0 127 0" result="hardAlpha"/>
<feOffset dy="4"/>
<feGaussianBlur stdDeviation="2"/>
<feComposite in2="hardAlpha" operator="out"/>
<feColorMatrix type="matrix" values="0 0 0 0 0 0 0 0 0 0 0 0 0 0 0 0 0 0 0.25 0"/>
<feBlend mode="normal" in2="BackgroundImageFix" result="effect1_dropShadow_2021_1140"/>
<feBlend mode="normal" in="SourceGraphic" in2="effect1_dropShadow_2021_1140" result="shape"/>
</filter>
<linearGradient id="paint0_linear_2021_1140" x1="208.012" y1="-18" x2="208.012" y2="291" gradientUnits="userSpaceOnUse">
<stop stop-color="#171717" stop-opacity="0.35"/>
<stop offset="1" stop-color="#171717"/>
</linearGradient>
<linearGradient id="paint1_linear_2021_1140" x1="208.457" y1="-2" x2="208.457" y2="274.367" gradientUnits="userSpaceOnUse">
<stop stop-color="#171717" stop-opacity="0.35"/>
<stop offset="1" stop-color="#171717"/>
</linearGradient>
<linearGradient id="paint2_linear_2021_1140" x1="208.017" y1="16" x2="208.017" y2="257.729" gradientUnits="userSpaceOnUse">
<stop stop-color="#171717" stop-opacity="0.35"/>
<stop offset="1" stop-color="#171717"/>
</linearGradient>
<linearGradient id="paint3_linear_2021_1140" x1="207.902" y1="31" x2="207.902" y2="241.446" gradientUnits="userSpaceOnUse">
<stop stop-color="#171717" stop-opacity="0.35"/>
<stop offset="1" stop-color="#171717"/>
</linearGradient>
<linearGradient id="paint4_linear_2021_1140" x1="209.865" y1="53" x2="209.865" y2="220.777" gradientUnits="userSpaceOnUse">
<stop stop-color="#171717" stop-opacity="0.35"/>
<stop offset="1" stop-color="#171717"/>
</linearGradient>
</defs>
</svg>
