<svg class="text-default h-6 flex-none themed" viewBox="0 0 111 28" height="24" style="margin-left:10px" xmlns="http://www.w3.org/2000/svg" aria-label="Deno Wordmark"><g clip-path="url(#clip0_737_591)"><path d="M0 27.522V0H13.4572C16.6331 0 19.3553 0.510417 21.6076 1.52315C23.8681 2.53588 25.5937 4.06713 26.7928 6.1088C27.9919 8.15046 28.5995 10.6944 28.5995 13.7407C28.5995 16.787 28 19.331 26.7928 21.3727C25.5856 23.4144 23.86 24.9537 21.6076 25.9826C19.3472 27.0116 16.6331 27.522 13.4572 27.522H0ZM7.64815 21.6725H13.1736C14.3484 21.6725 15.4016 21.5104 16.3414 21.1944C17.2731 20.8704 18.0671 20.4086 18.7234 19.7928C19.3796 19.1771 19.8738 18.4155 20.206 17.5081C20.5382 16.6007 20.7083 15.5718 20.7083 14.4213V13.1007C20.7083 11.9259 20.5382 10.8889 20.206 9.99768C19.8738 9.10648 19.3796 8.34491 18.7234 7.71296C18.0671 7.08912 17.2731 6.61111 16.3414 6.28704C15.4097 5.96296 14.3484 5.80903 13.1736 5.80903H7.64815V21.6725Z" fill="currentColor"></path><path d="M43.9849 28C41.3437 28 39.0671 27.603 37.1551 26.8171C35.2431 26.0312 33.7766 24.8241 32.7477 23.1875C31.7187 21.559 31.2083 19.4769 31.2083 16.941C31.2083 14.4051 31.7187 12.4039 32.7315 10.7674C33.7442 9.13889 35.1863 7.92361 37.0579 7.12153C38.9294 6.31945 41.1412 5.92245 43.7095 5.92245C46.2778 5.92245 48.5544 6.31134 50.4016 7.08102C52.2407 7.8588 53.6505 9.04167 54.6065 10.6458C55.5706 12.25 56.0486 14.2917 56.0486 16.7789V18.3426H38.3785C38.4352 19.4606 38.662 20.4005 39.0833 21.1458C39.4965 21.8912 40.1204 22.4583 40.9468 22.831C41.7731 23.2037 42.8021 23.39 44.0336 23.39C44.7303 23.39 45.3704 23.309 45.9537 23.147C46.537 22.985 47.0637 22.7581 47.5174 22.4664C47.9711 22.1748 48.3275 21.8264 48.5787 21.4213C48.8299 21.0243 48.9757 20.5544 49 20.0197H55.9676C55.9676 21.2755 55.684 22.3935 55.125 23.3819C54.566 24.3704 53.7558 25.2049 52.7025 25.8854C51.6493 26.566 50.3854 27.0845 48.919 27.4491C47.4525 27.8056 45.8079 27.9919 43.993 27.9919L43.9849 28ZM38.419 14.5752H48.7164C48.7164 13.9109 48.603 13.3275 48.3762 12.8333C48.1493 12.3391 47.8252 11.9178 47.3958 11.5694C46.9664 11.2211 46.4641 10.9618 45.8727 10.7917C45.2812 10.6215 44.6412 10.5324 43.9525 10.5324C42.8345 10.5324 41.8785 10.6944 41.1088 11.0104C40.331 11.3345 39.7234 11.7882 39.2859 12.3958C38.8484 12.9954 38.5567 13.7245 38.4271 14.5752H38.419Z" fill="currentColor"></path><path d="M59.5162 27.522V6.40857H65.2037L65.6817 9.65741H66.0058C66.6458 8.80671 67.3912 8.10185 68.2257 7.55093C69.0683 7 69.9838 6.59491 70.9722 6.32755C71.9606 6.06019 72.9734 5.93056 74.0185 5.93056C75.809 5.93056 77.3079 6.23033 78.5231 6.82986C79.7384 7.4294 80.662 8.33681 81.2859 9.55208C81.9097 10.7674 82.2257 12.3067 82.2257 14.1782V27.522H75.2176V15.1424C75.2176 14.5023 75.1285 13.9352 74.9583 13.441C74.7882 12.9468 74.537 12.5417 74.2211 12.2176C73.897 11.8935 73.4919 11.6586 72.9977 11.4965C72.5035 11.3345 71.9526 11.2535 71.3368 11.2535C70.4294 11.2535 69.6111 11.456 68.8738 11.853C68.1366 12.25 67.5613 12.7928 67.1319 13.4734C66.7025 14.1539 66.4919 14.9317 66.4919 15.8148V27.5139H59.5243L59.5162 27.522Z" fill="currentColor"></path><path d="M97.7974 28C95.2049 28 92.9687 27.5949 91.0891 26.7766C89.2095 25.9583 87.7593 24.7431 86.7384 23.1146C85.7257 21.4861 85.2153 19.4282 85.2153 16.941C85.2153 14.4537 85.7257 12.4039 86.7384 10.7674C87.7511 9.13889 89.2014 7.92361 91.0891 7.12153C92.9687 6.31945 95.2049 5.92245 97.7974 5.92245C100.39 5.92245 102.626 6.31945 104.506 7.12153C106.385 7.92361 107.836 9.13889 108.856 10.7674C109.869 12.3958 110.38 14.4537 110.38 16.941C110.38 19.4282 109.869 21.478 108.856 23.1146C107.844 24.7431 106.394 25.9664 104.506 26.7766C102.626 27.5949 100.382 28 97.7974 28ZM97.7974 23.1146C99.0289 23.1146 100.05 22.8877 100.86 22.434C101.678 21.9803 102.278 21.3403 102.667 20.5139C103.056 19.6875 103.25 18.6991 103.25 17.5486V16.39C103.25 15.2396 103.056 14.2431 102.667 13.4086C102.278 12.566 101.678 11.9259 100.86 11.4884C100.042 11.0509 99.0208 10.8241 97.7974 10.8241C96.5741 10.8241 95.5127 11.0428 94.7106 11.4884C93.9086 11.9259 93.3171 12.566 92.9282 13.4086C92.5393 14.2512 92.3449 15.2477 92.3449 16.39V17.5486C92.3449 18.6991 92.5393 19.6875 92.9282 20.5139C93.3171 21.3403 93.9086 21.9803 94.7106 22.434C95.5127 22.8877 96.5417 23.1146 97.7974 23.1146Z" fill="currentColor"></path></g><defs><clipPath id="clip0_737_591"><rect width="110.38" height="28" fill="white"></rect></clipPath></defs></svg>