<svg viewBox="0 0 132 36" class="h-8 w-auto" height="36"><path d="M52.7458 27.2074C51.5358 27.2074 50.4727 26.9741 49.5566 26.5074C48.6404 26.0234 47.9231 25.3492 47.4045 24.4849C46.9032 23.6206 46.6526 22.6267 46.6526 21.5031V14.3469C46.6526 13.2233 46.9032 12.2294 47.4045 11.3651C47.9231 10.5008 48.6404 9.83528 49.5566 9.36857C50.4727 8.88457 51.5358 8.64257 52.7458 8.64257C53.9385 8.64257 54.9929 8.87593 55.9091 9.34264C56.8425 9.80936 57.5599 10.4662 58.0612 11.3132C58.5624 12.1429 58.8131 13.085 58.8131 14.1394V14.4765C58.8131 14.6494 58.7266 14.7358 58.5538 14.7358H57.2314C57.0586 14.7358 56.9722 14.6494 56.9722 14.4765V14.1654C56.9722 13.0072 56.5832 12.0651 55.8054 11.3391C55.0448 10.6131 54.0249 10.2501 52.7458 10.2501C51.4666 10.2501 50.4381 10.6218 49.6603 11.3651C48.8824 12.1084 48.4935 13.085 48.4935 14.295V21.555C48.4935 22.765 48.8911 23.7416 49.6862 24.4849C50.4814 25.2282 51.5271 25.5999 52.8236 25.5999C54.0854 25.5999 55.088 25.2541 55.8313 24.5627C56.5919 23.8713 56.9722 22.9465 56.9722 21.7884V19.4289C56.9722 19.3597 56.9376 19.3251 56.8684 19.3251H53.0569C52.8841 19.3251 52.7976 19.2387 52.7976 19.0659V17.9769C52.7976 17.804 52.8841 17.7176 53.0569 17.7176H58.5538C58.7266 17.7176 58.8131 17.804 58.8131 17.9769V21.3216C58.8131 23.1712 58.2599 24.6146 57.1537 25.6517C56.0647 26.6889 54.5954 27.2074 52.7458 27.2074ZM62.3137 27C62.1408 27 62.0544 26.9136 62.0544 26.7407V9.10928C62.0544 8.93643 62.1408 8.85 62.3137 8.85H63.636C63.8089 8.85 63.8953 8.93643 63.8953 9.10928V26.7407C63.8953 26.9136 63.8089 27 63.636 27H62.3137ZM71.8605 13.6727C73.4162 13.6727 74.6175 14.0703 75.4645 14.8654C76.3115 15.6606 76.735 16.715 76.735 18.0287V26.7407C76.735 26.9136 76.6486 27 76.4757 27H75.1534C74.9805 27 74.8941 26.9136 74.8941 26.7407V25.6776C74.8941 25.6431 74.8768 25.6171 74.8422 25.5999C74.825 25.5826 74.799 25.5912 74.7645 25.6258C74.3323 26.1444 73.7705 26.5419 73.0791 26.8185C72.3877 27.0778 71.6185 27.2074 70.7715 27.2074C69.5442 27.2074 68.5157 26.8963 67.686 26.274C66.8562 25.6517 66.4414 24.701 66.4414 23.4219C66.4414 22.1254 66.9081 21.1056 67.8415 20.3623C68.7922 19.6017 70.106 19.2214 71.7827 19.2214H74.7904C74.8595 19.2214 74.8941 19.1869 74.8941 19.1177V18.1324C74.8941 17.2509 74.6435 16.5594 74.1422 16.0581C73.6582 15.5396 72.8976 15.2803 71.8605 15.2803C71.0307 15.2803 70.3566 15.4445 69.838 15.7729C69.3195 16.0841 68.9997 16.5249 68.8787 17.0953C68.8268 17.2681 68.7231 17.3459 68.5675 17.3286L67.1674 17.1471C66.9772 17.1126 66.8995 17.0434 66.934 16.9397C67.0723 15.9717 67.5909 15.1852 68.4897 14.5802C69.3886 13.9752 70.5122 13.6727 71.8605 13.6727ZM71.1345 25.6258C72.1543 25.6258 73.0359 25.3751 73.7792 24.8739C74.5225 24.3553 74.8941 23.6639 74.8941 22.7996V20.7771C74.8941 20.708 74.8595 20.6734 74.7904 20.6734H72.0679C70.927 20.6734 70.0109 20.9068 69.3195 21.3735C68.628 21.8402 68.2823 22.4884 68.2823 23.3181C68.2823 24.0787 68.5416 24.6578 69.0602 25.0554C69.596 25.4356 70.2875 25.6258 71.1345 25.6258ZM85.1481 13.7505C85.7185 13.7505 86.2111 13.8629 86.626 14.0876C86.7643 14.1567 86.8161 14.2691 86.7816 14.4246L86.4963 15.6951C86.4445 15.868 86.3321 15.9199 86.1593 15.8507C85.8654 15.7297 85.5283 15.6692 85.1481 15.6692L84.811 15.6951C83.9121 15.7297 83.1688 16.0668 82.5811 16.7064C81.9934 17.3286 81.6996 18.1238 81.6996 19.0918V26.7407C81.6996 26.9136 81.6131 27 81.4403 27H80.1179C79.9451 27 79.8586 26.9136 79.8586 26.7407V14.1394C79.8586 13.9666 79.9451 13.8801 80.1179 13.8801H81.4403C81.6131 13.8801 81.6996 13.9666 81.6996 14.1394V15.7211C81.6996 15.7729 81.7082 15.8075 81.7255 15.8248C81.7601 15.8248 81.786 15.8075 81.8033 15.7729C82.1663 15.1334 82.6243 14.6407 83.1775 14.295C83.7479 13.932 84.4048 13.7505 85.1481 13.7505ZM98.5299 18.2361C98.599 18.7201 98.6336 19.3251 98.6336 20.0511V20.8809C98.6336 21.0537 98.5471 21.1401 98.3743 21.1401H89.9994C89.9302 21.1401 89.8956 21.1747 89.8956 21.2439C89.9302 22.1946 89.9821 22.8082 90.0512 23.0848C90.2414 23.8626 90.6476 24.4763 91.2699 24.9257C91.8921 25.3751 92.6873 25.5999 93.6553 25.5999C94.3813 25.5999 95.0209 25.4356 95.574 25.1072C96.1271 24.7788 96.5593 24.3121 96.8704 23.7071C96.9741 23.5515 97.0951 23.5169 97.2334 23.6034L98.2446 24.1997C98.3829 24.2861 98.4175 24.4071 98.3484 24.5627C97.9162 25.3924 97.268 26.0493 96.4037 26.5333C95.5394 27 94.5455 27.2334 93.4219 27.2334C92.1946 27.2161 91.1661 26.9222 90.3364 26.3518C89.5067 25.7814 88.9104 24.9862 88.5474 23.9664C88.2362 23.1366 88.0806 21.9439 88.0806 20.3882C88.0806 19.6622 88.0893 19.0745 88.1066 18.6251C88.1411 18.1584 88.2103 17.7435 88.314 17.3805C88.6079 16.2569 89.1956 15.3581 90.0771 14.6839C90.976 14.0098 92.0564 13.6727 93.3182 13.6727C94.8912 13.6727 96.1012 14.0703 96.9482 14.8654C97.7952 15.6606 98.3224 16.7841 98.5299 18.2361ZM93.3182 15.2803C92.4712 15.2803 91.7625 15.505 91.1921 15.9544C90.6389 16.3866 90.2759 16.9743 90.1031 17.7176C89.9994 18.0806 89.9302 18.6683 89.8956 19.4807C89.8956 19.5499 89.9302 19.5844 89.9994 19.5844H96.7149C96.784 19.5844 96.8186 19.5499 96.8186 19.4807C96.784 18.7029 96.7321 18.1497 96.663 17.8213C96.4729 17.0434 96.0839 16.4298 95.4962 15.9804C94.9258 15.5136 94.1998 15.2803 93.3182 15.2803ZM102.21 27C102.037 27 101.951 26.9136 101.951 26.7407V9.10928C101.951 8.93643 102.037 8.85 102.21 8.85H108.329C110.04 8.85 111.397 9.29943 112.4 10.1983C113.42 11.0971 113.93 12.3158 113.93 13.8542V21.9958C113.93 23.5342 113.42 24.7529 112.4 25.6517C111.397 26.5506 110.04 27 108.329 27H102.21ZM103.792 25.2887C103.792 25.3579 103.826 25.3924 103.895 25.3924H108.407C109.53 25.3924 110.421 25.064 111.077 24.4071C111.752 23.7503 112.089 22.8687 112.089 21.7624V14.1135C112.089 12.9899 111.76 12.0997 111.103 11.4429C110.447 10.786 109.548 10.4576 108.407 10.4576H103.895C103.826 10.4576 103.792 10.4921 103.792 10.5613V25.2887ZM126.373 17.5361C126.286 17.5879 126.286 17.6398 126.373 17.6916C127.306 18.0719 128.015 18.6337 128.499 19.377C128.983 20.1203 129.225 21.0191 129.225 22.0736C129.225 23.6293 128.723 24.8393 127.721 25.7036C126.736 26.5679 125.43 27 123.806 27H117.531C117.358 27 117.272 26.9136 117.272 26.7407V9.10928C117.272 8.93643 117.358 8.85 117.531 8.85H123.624C125.301 8.85 126.615 9.26486 127.565 10.0946C128.533 10.9243 129.017 12.0911 129.017 13.5949C129.017 14.5456 128.784 15.3581 128.317 16.0322C127.868 16.6891 127.22 17.1904 126.373 17.5361ZM119.216 10.4576C119.147 10.4576 119.113 10.4921 119.113 10.5613V16.7841C119.113 16.8533 119.147 16.8879 119.216 16.8879H123.624C124.713 16.8879 125.577 16.6026 126.217 16.0322C126.874 15.4618 127.202 14.7012 127.202 13.7505C127.202 12.7479 126.874 11.9528 126.217 11.3651C125.577 10.7601 124.713 10.4576 123.624 10.4576H119.216ZM123.806 25.3665C124.895 25.3665 125.759 25.0554 126.398 24.4331C127.055 23.8108 127.384 22.9724 127.384 21.918C127.384 20.8636 127.047 20.0252 126.373 19.4029C125.716 18.7634 124.825 18.4436 123.702 18.4436H119.216C119.147 18.4436 119.113 18.4781 119.113 18.5473V25.2628C119.113 25.3319 119.147 25.3665 119.216 25.3665H123.806Z" class="themed"></path><path d="M0.589286 11.7857C0.589286 5.6021 5.6021 0.589286 11.7857 0.589286H34.7679V23.5714C34.7679 29.755 29.755 34.7679 23.5714 34.7679H0.589286V11.7857Z" stroke="#FAF1E4" stroke-width="1.17857"></path><path fill-rule="evenodd" clip-rule="evenodd" d="M12.9643 3.53564C7.75704 3.53564 3.53572 7.75696 3.53572 12.9642V23.5714H10.6071V10.6071L23.5714 10.6071L24.75 10.6071H31.8214V3.53564H12.9643ZM31.8214 11.7857L24.75 11.7857V24.75H12.9643L3.53572 24.75V31.8214H22.3929C27.6001 31.8214 31.8214 27.6 31.8214 22.3928V11.7857Z" fill="#FAF1E4"></path><circle cx="17.6786" cy="17.6786" r="4.71429" fill="#FAF1E4"></circle></svg>